<?xml version="1.0" encoding="utf-8"?>
<!-- Generator: Adobe Illustrator 14.0.0, SVG Export Plug-In . SVG Version: 6.00 Build 43363)  -->
<!DOCTYPE svg PUBLIC "-//W3C//DTD SVG 1.1//EN" "http://www.w3.org/Graphics/SVG/1.1/DTD/svg11.dtd">
<svg version="1.1" id="Layer_1" xmlns="http://www.w3.org/2000/svg" xmlns:xlink="http://www.w3.org/1999/xlink" x="0px" y="0px"
	 width="275px" height="80px" viewBox="0 0 2272 1872" enable-background="new 0 0 2272 1872" xml:space="preserve">
<g>
	<rect id="XMLID_435_" x="0.001" fill-rule="evenodd" clip-rule="evenodd" fill="#B8E4FA" width="2271.999" height="921.744"/>
	<path id="XMLID_434_" fill-rule="evenodd" clip-rule="evenodd" fill="#A0DAF5" d="M2272,371.003v550.741H715.518
		c-7.212-31.356-23.9-61.71-62.065-53.432c-74.034,16.06-465.436-57.049-390.558-93.222
		c74.878-36.172,477.739-51.909,606.257-37.419c128.518,14.49-85.417-87.5-350-91.667c-264.583-4.167,50-62.5,275-66.667
		c225-4.167,443.75,2.083,472.917-75c29.166-77.083,164.585-102.083,322.917-77.083c158.333,24.999,145.834-33.333,316.668-102.083
		C2077.486,256.421,2272,371.003,2272,371.003z"/>
	<path id="XMLID_433_" fill-rule="evenodd" clip-rule="evenodd" fill="#E1F3FC" d="M0.001,921.744V546.007
		c0,0,123.324-25.002,127.491,41.666c4.167,66.667,40.625,61.458,90.625,52.083c50-9.374,117.149,39.733,107.292,80.209
		c-9.856,40.475,129.167,36.458,243.75,42.708s169.792,10.417,137.5,28.125c-32.292,17.708-107.293,4.166-102.084,33.333
		c5.208,29.167,104.168,12.105,130.209,31.25c12.368,9.093,26.845,38.25,38.641,66.362H0.001z"/>
	<path id="XMLID_432_" fill-rule="evenodd" clip-rule="evenodd" fill="#E1F3FC" d="M2272,465.143v456.601h-771.309l-528.428-53.432
		c0,0-56.25-24.392-13.542-81.684c42.709-57.292,516.667-17.71,432.293-23.961c-84.377-6.25-6.25-60.417,144.791-61.458
		c151.042-1.042,185.417-22.917,185.417-22.917s-76.042-30.208,4.167-109.375c80.208-79.167,211.458-23.958,211.458-23.958
		s-65.25-139.037,108.334-157.292C2218.764,369.411,2272,465.143,2272,465.143z"/>
	<path id="XMLID_431_" fill-rule="evenodd" clip-rule="evenodd" fill="#E1F3FC" d="M1192.08,0c0,0-116.032,68.602-330.999,69.824
		c-214.965,1.221-172.218,95.269-235.729,122.14c-63.513,26.871-251.604,101.375-368.858,18.32
		C139.24,127.229,202.753,95.475,222.295,71.046C241.836,46.618,163.669,0,0.001,0h913.602H1192.08z"/>
</g>
<g>
	<path id="XMLID_3_" fill-rule="evenodd" clip-rule="evenodd" fill="#4CB64D" d="M1135.768,1126.631
		c312.871,0.931,620.502,37.595,904.502,100.518c33.198,9.053,61.076,13.478,52.025,46.676
		c-5.331,19.553-19.729,34.908-38.49,42.154l-476.873,184.18c22.605,20.678,38.092,46.622,38.092,79.072
		c0,81.638-97.904,122.335-163.127,141.846c-98.714,29.531-213.217,39.492-315.896,39.492h-0.233V1872H2272v-815.121H1135.768
		V1126.631z M695.069,1500.158l-476.872-184.18c-18.761-7.246-33.159-22.602-38.491-42.154
		c-9.051-33.198,10.736-30.322,43.934-39.374c297.692-75.735,607.395-108.726,912.128-107.819v-69.752H0.001V1872h1135.766v-111.432
		c-102.619-0.015-217.023-9.983-315.664-39.492c-65.223-19.511-163.126-60.208-163.126-141.846
		C656.978,1546.78,672.464,1520.837,695.069,1500.158z"/>
	<path id="XMLID_4_" fill-rule="evenodd" clip-rule="evenodd" fill="#14A64B" d="M2272,1706.421h-777.465
		c-14.832,5.868-29.407,10.697-42.639,14.655c-98.714,29.531-213.217,39.492-315.896,39.492s-217.182-9.961-315.896-39.492
		c-13.23-3.958-27.807-8.787-42.638-14.655H0.001V1872H2272V1706.421L2272,1706.421z M695.069,1500.158l-85.5-33.022H0.001v79.479
		h662.622C669.068,1528.76,680.612,1513.382,695.069,1500.158L695.069,1500.158z M562.835,1449.086L404.2,1387.817H0.001v61.269
		H562.835L562.835,1449.086z M325.899,1357.575l-107.702-41.597c-2.376-0.918-4.683-1.967-6.911-3.138H0.001v44.734H325.899
		L325.899,1357.575z M180.053,1275.04c-0.118-0.403-0.236-0.809-0.348-1.216c-8.488-31.138,8.392-30.541,37.912-37.814H0.001v39.03
		H180.053L180.053,1275.04z M407.472,1193.335c63.288-12.293,126.946-22.816,190.828-31.592H0.001v31.592H407.472L407.472,1193.335z
		 M954.791,1130.13c113.752-4.771,227.279-4.628,339.713,0H2272v-22.858H0.001v22.858H954.791L954.791,1130.13z M1665.696,1161.743
		c69.379,8.956,137.912,19.532,205.386,31.592H2272v-31.592H1665.696L1665.696,1161.743z M2070.823,1236.01
		c17.244,6.448,27.471,15.81,21.472,37.814c-0.111,0.407-0.229,0.813-0.348,1.216H2272v-39.03H2070.823L2070.823,1236.01z
		 M2060.715,1312.841c-2.228,1.171-4.534,2.22-6.91,3.138l-107.703,41.597H2272v-44.734H2060.715L2060.715,1312.841z
		 M1867.801,1387.817l-158.635,61.269H2272v-61.269H1867.801L1867.801,1387.817z M1662.432,1467.136l-85.5,33.022
		c14.457,13.224,26.001,28.601,32.446,46.456H2272v-79.479H1662.432L1662.432,1467.136z M1614.244,1566.824
		c0.512,4.026,0.779,8.16,0.779,12.406c0,51.172-38.466,86.258-83.239,110.123H2272v-122.529H1614.244L1614.244,1566.824z
		 M740.217,1689.354c-44.773-23.865-83.239-58.951-83.239-110.123c0-4.246,0.268-8.38,0.779-12.406H0.001v122.529H740.217
		L740.217,1689.354z M2272,1056.879H0.001v17.798H2272V1056.879z"/>
</g>
<g>
	<g id="XMLID_5_">
		<path id="XMLID_413_" fill-rule="evenodd" clip-rule="evenodd" fill="#C1B097" d="M2040.27,1227.148
			c33.198,9.053,61.076,13.478,52.025,46.676c-5.331,19.553-19.729,34.908-38.49,42.154l-476.873,184.18
			c22.605,20.678,38.092,46.622,38.092,79.072c0,81.638-97.904,122.335-163.127,141.846
			c-98.714,29.531-213.217,39.492-315.896,39.492s-217.182-9.961-315.896-39.492c-65.223-19.511-163.126-60.208-163.126-141.846
			c0-32.45,15.486-58.394,38.091-79.072l-476.872-184.18c-18.761-7.246-33.159-22.602-38.491-42.154
			c-9.051-33.198,10.736-30.322,43.934-39.374C826.971,1080.958,1479.653,1102.938,2040.27,1227.148z"/>
		<path id="XMLID_412_" fill-rule="evenodd" clip-rule="evenodd" fill="#FFF0CF" d="M2038.288,1235.174
			c-229.759-56.743-466.442-90.201-702.738-102.216c-246.349-12.526-494.905-1.81-738.999,34.026
			c-124.848,18.33-248.777,43.302-370.806,75.459c-8.88,2.339-17.957,3.956-26.778,6.336c-3.346,0.902-9.423,2.639-11.681,5.503
			c-3.057,3.879-0.732,13.236,0.395,17.367c4.629,16.979,17.146,30.305,33.494,36.618l489.315,188.986l-9.842,9.002
			c-21.339,19.521-35.405,43.39-35.405,72.975c0,76.822,95.844,115.564,157.231,133.928
			c98.833,29.565,210.634,39.146,313.527,39.146s214.694-9.58,313.527-39.146c61.387-18.363,157.231-57.105,157.231-133.928
			c0-29.585-14.066-53.454-35.405-72.973l-9.843-9.004l489.315-188.986c16.349-6.313,28.865-19.639,33.494-36.618
			c1.588-5.818,2.604-12.95-0.957-18.28C2076.483,1243.072,2049.709,1237.994,2038.288,1235.174z"/>
		<path id="XMLID_411_" fill-rule="evenodd" clip-rule="evenodd" fill="#E1CBAF" d="M1136,1706.292
			c233.942,0,424.747-57.079,424.747-127.063S1369.942,1452.168,1136,1452.168c-233.941,0-424.746,57.078-424.746,127.062
			S902.06,1706.292,1136,1706.292z"/>
		<path id="XMLID_6_" fill="#636263" d="M1345.375,1610.048v-16.668h132.413l-75.146-86.109h-57.268v-16.667h59.543l536.286-207.128
			c-13.482-7.331-21.438-16.357-21.438-26.121c0-5.775,2.783-11.294,7.848-16.354c-169.052-35.761-371.518-58.054-582.238-66.895
			v-17.329c257.523,10.842,502.453,41.755,688.696,92.569l-2.182,8.009l2.193-8.04c4.44,1.211,7.058,5.793,5.847,10.232
			c-0.787,2.891-3.006,5.007-5.681,5.8l-613.802,237.065l81.887,93.834l12.045,13.802h-18.296H1345.375z M1059.041,1507.271H926.628
			v-16.667h142.588h10.175l-2.038,9.994l-20.949,102.777l-1.359,6.673h-6.778h-121.64v-16.668h114.862L1059.041,1507.271
			L1059.041,1507.271z M1345.375,1156.776v17.329c-138.397-5.807-280.352-5.805-418.747,0v-17.38
			C1065.092,1150.926,1207.044,1150.954,1345.375,1156.776L1345.375,1156.776z M1345.375,1490.604v16.667h-132.414l17.553,86.109
			h114.861v16.668h-121.639h-6.778l-1.359-6.673l-20.95-102.777l-2.038-9.994h10.176H1345.375z M926.628,1507.271H869.36
			l-75.146,86.109h132.414v16.668H775.919h-18.295l12.044-13.802l81.886-93.833l-613.802-237.066
			c-2.675-0.793-4.894-2.909-5.681-5.8c-1.21-4.439,1.407-9.021,5.847-10.232l2.193,8.04l-2.181-8.009
			c187.149-51.063,431.903-81.859,688.698-92.62v17.38c-210.722,8.841-413.185,31.135-582.237,66.896
			c5.063,5.061,7.845,10.578,7.845,16.353c0,9.764-7.956,18.79-21.438,26.121l536.287,207.128h59.544V1507.271z"/>
		<path id="XMLID_405_" fill-rule="evenodd" clip-rule="evenodd" fill="#FFF0CF" d="M1136,1569.246
			c22.089,0,40.104-7.137,40.104-15.887c0-8.749-18.015-15.885-40.104-15.885c-22.088,0-40.103,7.136-40.103,15.885
			C1095.897,1562.109,1113.913,1569.246,1136,1569.246z"/>
		<path id="XMLID_404_" fill-rule="evenodd" clip-rule="evenodd" fill="#C1B097" d="M877.106,1433.162l-396.237-160.963
			l23.604-6.425c5.831-1.587,12.804-3.956,17.823-7.4c0.828-0.568,3.973-2.992,3.973-4.185c0-1.23-3.309-3.736-4.166-4.314
			l-17.596-11.857l20.981-3.169c65.27-9.855,130.868-17.499,196.591-23.608c137.563-12.785,275.777-18.549,413.92-18.549
			s276.358,5.764,413.921,18.549c65.722,6.109,131.32,13.753,196.59,23.608l20.981,3.169l-17.596,11.857
			c-0.857,0.578-4.166,3.084-4.166,4.314c0,1.192,3.146,3.616,3.974,4.185c5.019,3.444,11.991,5.813,17.822,7.4l23.604,6.425
			l-396.237,160.963H877.106z"/>
	</g>
	<g id="XMLID_7_">
		<path id="XMLID_403_" fill-rule="evenodd" clip-rule="evenodd" fill="#43B54E" d="M878.721,1424.897h514.559l372.076-151.148
			c-17.025-4.635-27.89-11.675-27.89-19.56c0-4.009,2.813-7.8,7.812-11.168c-65.242-9.852-130.824-17.482-196.122-23.551
			c-137.231-12.755-275.4-18.514-413.156-18.514s-275.924,5.759-413.155,18.514c-65.299,6.068-130.88,13.699-196.122,23.551
			c4.999,3.368,7.812,7.159,7.812,11.168c0,7.885-10.865,14.925-27.891,19.56L878.721,1424.897z"/>
		<path id="XMLID_8_" fill-rule="evenodd" clip-rule="evenodd" fill="#14A64B" d="M878.721,1424.897h514.559l5.945-2.415h-526.45
			L878.721,1424.897L878.721,1424.897z M1449.441,1402.083l74.279-30.175H748.28l74.279,30.175H1449.441L1449.441,1402.083z
			 M1586.488,1346.411l64.811-26.329H620.702l64.811,26.329H1586.488L1586.488,1346.411z M1722.156,1291.298l43.2-17.549
			c-4.116-1.121-7.872-2.382-11.201-3.762H517.846c-3.33,1.38-7.085,2.641-11.202,3.762l43.2,17.549H1722.156L1722.156,1291.298z
			 M1739.292,1248.664c1.329-1.979,3.354-3.868,5.986-5.643c-23.406-3.533-46.856-6.783-70.322-9.775H597.045
			c-23.465,2.992-46.916,6.242-70.322,9.775c2.631,1.774,4.657,3.664,5.986,5.643H1739.292L1739.292,1248.664z M1446.989,1211.26
			c-103.513-7.043-207.368-10.303-310.989-10.303s-207.476,3.26-310.989,10.303H1446.989z"/>
	</g>
	<g id="XMLID_9_">
		<path id="XMLID_396_" fill-rule="evenodd" clip-rule="evenodd" fill="#E1CBAF" d="M1136,1300.532
			c88.929,0,161.459-14.365,161.459-31.978s-72.53-31.976-161.459-31.976c-88.927,0-161.458,14.363-161.458,31.976
			S1047.073,1300.532,1136,1300.532z"/>
		<path id="XMLID_395_" fill-rule="evenodd" clip-rule="evenodd" fill="#00B04C" d="M1136,1286.594
			c61.756,0,112.125-9.976,112.125-22.206s-50.368-22.206-112.125-22.206c-61.755,0-112.123,9.976-112.123,22.206
			S1074.246,1286.594,1136,1286.594z"/>
	</g>
</g>
<g>
	<path id="XMLID_394_" fill-rule="evenodd" clip-rule="evenodd" fill="#006D3A" d="M2272,808.692c0,0-64.009-20.725-79.246,2.411
		c-15.238,23.134-15.238,23.134-15.238,23.134s-38.427-6.505-55.984,2.411c-17.557,8.917,5.631,14.941,5.631,14.941
		s-16.895-3.133-18.219,3.856c-1.326,6.988-2.65,12.771-18.552,12.53c-15.9-0.24-36.769-8.193-46.378-3.373
		c-9.607,4.82-27.827,4.578-23.854,11.325c3.977,6.749,19.549,6.749,24.187,8.436c4.639,1.686,4.307,9.398-2.65,10.844
		c-6.955,1.447-9.607,0.964-18.22-1.927c-8.612-2.893-19.877-6.025-25.838-3.375c-5.963,2.65-8.282,7.23-8.282,7.23
		s1.324,6.022,8.282,7.229c6.957,1.206,19.543,0.962,12.918,5.061c-6.623,4.098-31.469,7.954-37.101,2.652
		c-5.632-5.302,12.257-14.219-13.582-11.327c-25.84,2.891-26.502,3.614-26.502,6.025c0,2.409-1.989,4.578,0.993,6.988
		c2.982,2.41,13.583,4.82,13.583,4.82s-27.497-6.024-36.109-2.41s-8.281,10.812-8.281,10.812H2272V808.692z"/>
	<path id="XMLID_393_" fill-rule="evenodd" clip-rule="evenodd" fill="#006D3A" d="M0.002,719.399c0,0,33.6-6.766,42.166,8.112
		c8.565,14.877,3.607,21.642,13.073,40.124c9.467,18.484,22.091,1.353,27.951,21.64c5.861,20.287,10.372,24.344,0.453,32.46
		c-9.919,8.115-14.427,14.879-1.354,20.739c13.074,5.86,32.912,12.172,37.87,6.761c4.958-5.41,20.286-6.765,24.341,6.76
		c4.057,13.526-0.001,11.723,2.253,22.993c2.256,11.271-3.155,6.313,13.526,3.607c16.68-2.705,19.835-7.663,22.091-1.352
		c2.254,6.312,2.254,21.639,2.254,21.639s3.157,10.819,14.877,6.762c11.721-4.057,15.778-30.207,34.713-31.558
		c18.937-1.352,31.108,18.938,35.616,9.469c4.509-9.469-0.449-16.683,9.919-18.936c10.369-2.253,14.877-9.016,18.484-2.253
		c3.607,6.762-10.818,13.071,6.312,17.13c17.131,4.059,23.895-9.467,29.754-17.583c5.86-8.115,1.804-20.289,13.075-10.82
		c11.27,9.469,14.425,11.723,14.877,22.993c0.451,11.27,22.09,8.115,22.09,8.115s18.709-3.607,24.796,9.017
		c6.088,12.625,12.399,15.782,21.866,10.821c9.468-4.961,32.909-6.312,34.488,0.901c1.578,7.214,2.705,9.564,2.705,9.564H0
		L0.002,719.399z"/>
</g>
<g>
	<g>
		
			<rect id="XMLID_392_" x="0.002" y="926.983" fill-rule="evenodd" clip-rule="evenodd" fill="#E4E5E5" width="2271.998" height="129.894"/>
		
			<rect id="XMLID_391_" x="1052.667" y="797.09" fill-rule="evenodd" clip-rule="evenodd" fill="#CAC9CA" width="166.666" height="259.787"/>
		
			<rect id="XMLID_390_" x="1219.333" y="868.311" fill-rule="evenodd" clip-rule="evenodd" fill="#CAC9CA" width="345.697" height="188.566"/>
		
			<rect id="XMLID_389_" x="706.971" y="868.311" fill-rule="evenodd" clip-rule="evenodd" fill="#CAC9CA" width="345.697" height="188.566"/>
		
			<rect id="XMLID_388_" x="1219.333" y="868.312" fill-rule="evenodd" clip-rule="evenodd" fill="#E4E5E5" width="399.215" height="35.417"/>
		
			<rect id="XMLID_387_" x="1219.333" y="868.311" fill-rule="evenodd" clip-rule="evenodd" fill="#FFFFFF" width="399.215" height="6.217"/>
		
			<rect id="XMLID_386_" x="653.453" y="868.312" fill-rule="evenodd" clip-rule="evenodd" fill="#E4E5E5" width="399.215" height="35.417"/>
		
			<rect id="XMLID_385_" x="653.453" y="868.311" fill-rule="evenodd" clip-rule="evenodd" fill="#FFFFFF" width="399.215" height="6.217"/>
		
			<rect id="XMLID_384_" x="1052.667" y="797.09" fill-rule="evenodd" clip-rule="evenodd" fill="#B2B1B1" width="9.433" height="259.787"/>
		
			<rect id="XMLID_383_" x="1209.899" y="797.09" fill-rule="evenodd" clip-rule="evenodd" fill="#B2B1B1" width="9.434" height="259.787"/>
		
			<rect id="XMLID_382_" x="1052.667" y="797.089" fill-rule="evenodd" clip-rule="evenodd" fill="#B2B1B1" width="166.666" height="9.28"/>
		
			<rect id="XMLID_381_" x="1219.333" y="903.728" fill-rule="evenodd" clip-rule="evenodd" fill="#B2B1B1" width="345.697" height="6.29"/>
		
			<rect id="XMLID_380_" x="706.971" y="903.728" fill-rule="evenodd" clip-rule="evenodd" fill="#B2B1B1" width="345.697" height="6.29"/>
		<g id="XMLID_11_">
			
				<rect id="XMLID_379_" x="1219.333" y="945.949" fill-rule="evenodd" clip-rule="evenodd" fill="#E4E5E5" width="365.694" height="14.583"/>
			
				<rect id="XMLID_378_" x="1219.333" y="1005.325" fill-rule="evenodd" clip-rule="evenodd" fill="#E4E5E5" width="365.694" height="14.583"/>
		</g>
		<g id="XMLID_12_">
			
				<rect id="XMLID_377_" x="686.973" y="945.949" fill-rule="evenodd" clip-rule="evenodd" fill="#E4E5E5" width="365.694" height="14.583"/>
			
				<rect id="XMLID_376_" x="686.973" y="1005.325" fill-rule="evenodd" clip-rule="evenodd" fill="#E4E5E5" width="365.694" height="14.583"/>
		</g>
		<g id="XMLID_13_">
			
				<rect id="XMLID_375_" x="1565.03" y="926.986" fill-rule="evenodd" clip-rule="evenodd" fill="#B2B1B1" width="56.456" height="129.893"/>
			<path id="XMLID_14_" fill-rule="evenodd" clip-rule="evenodd" fill="#B2B1B1" d="M2272,1042.812h-686.973v14.067H2272V1042.812
				L2272,1042.812z M2272,957.645h-686.973v14.067H2272V957.645L2272,957.645z M2272,986.033h-686.973v14.067H2272V986.033
				L2272,986.033z M2272,1014.423h-686.973v14.066H2272V1014.423z"/>
			
				<rect id="XMLID_370_" x="1565.03" y="916.504" fill-rule="evenodd" clip-rule="evenodd" fill="#959596" width="706.97" height="10.48"/>
			
				<rect id="XMLID_369_" x="1565.03" y="916.502" fill-rule="evenodd" clip-rule="evenodd" fill="#FFFFFF" width="706.97" height="5.24"/>
		</g>
		<g id="XMLID_15_">
			
				<rect id="XMLID_368_" x="650.513" y="926.986" fill-rule="evenodd" clip-rule="evenodd" fill="#B2B1B1" width="56.457" height="129.893"/>
			<path id="XMLID_16_" fill-rule="evenodd" clip-rule="evenodd" fill="#B2B1B1" d="M686.974,1042.812H0.001v14.067h686.973
				V1042.812L686.974,1042.812z M686.974,957.645H0.001v14.067h686.973V957.645L686.974,957.645z M686.974,986.033H0.001v14.067
				h686.973V986.033L686.974,986.033z M686.974,1014.423H0.001v14.066h686.973V1014.423z"/>
			
				<rect id="XMLID_363_" x="0.001" y="916.504" fill-rule="evenodd" clip-rule="evenodd" fill="#959596" width="706.97" height="10.48"/>
			
				<rect id="XMLID_362_" x="0.001" y="916.502" fill-rule="evenodd" clip-rule="evenodd" fill="#FFFFFF" width="706.97" height="5.24"/>
		</g>
		<path id="XMLID_17_" fill-rule="evenodd" clip-rule="evenodd" fill="#959596" d="M1233.067,916.725h41.079v22.396h-41.079V916.725
			L1233.067,916.725z M1233.067,970.37h41.079v22.396h-41.079V970.37L1233.067,970.37z M1510.219,970.37h41.078v22.396h-41.078
			V970.37L1510.219,970.37z M1454.788,970.37h41.079v22.396h-41.079V970.37L1454.788,970.37z M1399.358,970.37h41.078v22.396
			h-41.078V970.37L1399.358,970.37z M1343.928,970.37h41.078v22.396h-41.078V970.37L1343.928,970.37z M1288.497,970.37h41.079
			v22.396h-41.079V970.37L1288.497,970.37z M1510.219,916.725h41.078v22.396h-41.078V916.725L1510.219,916.725z M1454.788,916.725
			h41.079v22.396h-41.079V916.725L1454.788,916.725z M1399.358,916.725h41.078v22.396h-41.078V916.725L1399.358,916.725z
			 M1343.928,916.725h41.078v22.396h-41.078V916.725L1343.928,916.725z M1288.497,916.725h41.079v22.396h-41.079V916.725z"/>
		<path id="XMLID_18_" fill-rule="evenodd" clip-rule="evenodd" fill="#959596" d="M720.703,916.725h41.079v22.396h-41.079V916.725
			L720.703,916.725z M720.703,970.37h41.079v22.396h-41.079V970.37L720.703,970.37z M997.854,970.37h41.079v22.396h-41.079V970.37
			L997.854,970.37z M942.424,970.37h41.079v22.396h-41.079V970.37L942.424,970.37z M886.994,970.37h41.079v22.396h-41.079V970.37
			L886.994,970.37z M831.563,970.37h41.079v22.396h-41.079V970.37L831.563,970.37z M776.133,970.37h41.079v22.396h-41.079V970.37
			L776.133,970.37z M997.854,916.725h41.079v22.396h-41.079V916.725L997.854,916.725z M942.424,916.725h41.079v22.396h-41.079
			V916.725L942.424,916.725z M886.994,916.725h41.079v22.396h-41.079V916.725L886.994,916.725z M831.563,916.725h41.079v22.396
			h-41.079V916.725L831.563,916.725z M776.133,916.725h41.079v22.396h-41.079V916.725z"/>
	</g>
	<path id="XMLID_337_" fill-rule="evenodd" clip-rule="evenodd" fill="#959596" d="M1136,939.366
		c26.105,0,47.396-21.291,47.396-47.396s-21.291-47.396-47.396-47.396c-26.104,0-47.395,21.292-47.395,47.396
		S1109.897,939.366,1136,939.366z"/>
</g>
<g>
	<g>
		<g id="XMLID_19_">
			<g id="XMLID_20_">
				
					<rect id="XMLID_336_" x="1721.129" y="824.794" fill-rule="evenodd" clip-rule="evenodd" fill="#424242" width="98.3" height="3.8"/>
				<g id="XMLID_21_">
					
						<rect id="XMLID_335_" x="1746.785" y="828.595" fill-rule="evenodd" clip-rule="evenodd" fill="#424242" width="3.8" height="87.909"/>
					
						<rect id="XMLID_334_" x="1789.973" y="828.595" fill-rule="evenodd" clip-rule="evenodd" fill="#424242" width="3.799" height="87.909"/>
				</g>
				
					<rect id="XMLID_333_" x="1721.129" y="861.599" fill-rule="evenodd" clip-rule="evenodd" fill="#424242" width="98.3" height="3.8"/>
				<g id="XMLID_22_">
					<g id="XMLID_23_">
						<path id="XMLID_332_" fill-rule="evenodd" clip-rule="evenodd" fill="#7D7C7D" d="M1711.173,811.263h31.716
							c0.793,0,1.441,0.693,1.441,1.542v27.781c0,0.849-0.648,1.542-1.441,1.542h-31.716c-0.793,0-1.441-0.693-1.441-1.542v-27.781
							C1709.731,811.956,1710.38,811.263,1711.173,811.263z"/>
						
							<rect id="XMLID_331_" x="1713.457" y="814.585" fill-rule="evenodd" clip-rule="evenodd" fill="#424242" width="27.147" height="24.221"/>
						
							<rect id="XMLID_330_" x="1714.61" y="815.615" fill-rule="evenodd" clip-rule="evenodd" fill="#FFFFFF" width="24.84" height="22.161"/>
						
							<rect id="XMLID_329_" x="1716.162" y="817" fill-rule="evenodd" clip-rule="evenodd" fill="#FFE5B9" width="21.736" height="19.39"/>
					</g>
					<g id="XMLID_24_">
						<path id="XMLID_328_" fill-rule="evenodd" clip-rule="evenodd" fill="#7D7C7D" d="M1711.173,848.066h31.716
							c0.793,0,1.441,0.694,1.441,1.543v27.781c0,0.849-0.648,1.542-1.441,1.542h-31.716c-0.793,0-1.441-0.693-1.441-1.542v-27.781
							C1709.731,848.76,1710.38,848.066,1711.173,848.066z"/>
						
							<rect id="XMLID_327_" x="1713.457" y="851.389" fill-rule="evenodd" clip-rule="evenodd" fill="#424242" width="27.147" height="24.221"/>
						
							<rect id="XMLID_326_" x="1714.61" y="852.419" fill-rule="evenodd" clip-rule="evenodd" fill="#FFFFFF" width="24.84" height="22.162"/>
						
							<rect id="XMLID_325_" x="1716.162" y="853.805" fill-rule="evenodd" clip-rule="evenodd" fill="#FFE5B9" width="21.736" height="19.391"/>
					</g>
					<g id="XMLID_25_">
						<path id="XMLID_324_" fill-rule="evenodd" clip-rule="evenodd" fill="#7D7C7D" d="M1754.421,811.263h31.715
							c0.794,0,1.441,0.693,1.441,1.542v27.781c0,0.849-0.647,1.542-1.441,1.542h-31.715c-0.794,0-1.442-0.693-1.442-1.542v-27.781
							C1752.979,811.956,1753.627,811.263,1754.421,811.263z"/>
						
							<rect id="XMLID_323_" x="1756.704" y="814.585" fill-rule="evenodd" clip-rule="evenodd" fill="#424242" width="27.147" height="24.221"/>
						
							<rect id="XMLID_322_" x="1757.858" y="815.615" fill-rule="evenodd" clip-rule="evenodd" fill="#FFFFFF" width="24.841" height="22.161"/>
						
							<rect id="XMLID_321_" x="1759.411" y="817" fill-rule="evenodd" clip-rule="evenodd" fill="#FFE5B9" width="21.734" height="19.39"/>
					</g>
					<g id="XMLID_26_">
						<path id="XMLID_320_" fill-rule="evenodd" clip-rule="evenodd" fill="#7D7C7D" d="M1754.421,848.066h31.715
							c0.794,0,1.441,0.694,1.441,1.543v27.781c0,0.849-0.647,1.542-1.441,1.542h-31.715c-0.794,0-1.442-0.693-1.442-1.542v-27.781
							C1752.979,848.76,1753.627,848.066,1754.421,848.066z"/>
						
							<rect id="XMLID_319_" x="1756.704" y="851.389" fill-rule="evenodd" clip-rule="evenodd" fill="#424242" width="27.147" height="24.221"/>
						
							<rect id="XMLID_318_" x="1757.858" y="852.419" fill-rule="evenodd" clip-rule="evenodd" fill="#FFFFFF" width="24.841" height="22.162"/>
						
							<rect id="XMLID_317_" x="1759.411" y="853.805" fill-rule="evenodd" clip-rule="evenodd" fill="#FFE5B9" width="21.734" height="19.391"/>
					</g>
					<g id="XMLID_27_">
						<path id="XMLID_316_" fill-rule="evenodd" clip-rule="evenodd" fill="#7D7C7D" d="M1797.668,811.263h31.715
							c0.794,0,1.442,0.693,1.442,1.542v27.781c0,0.849-0.648,1.542-1.442,1.542h-31.715c-0.793,0-1.44-0.693-1.44-1.542v-27.781
							C1796.228,811.956,1796.875,811.263,1797.668,811.263z"/>
						
							<rect id="XMLID_315_" x="1799.952" y="814.585" fill-rule="evenodd" clip-rule="evenodd" fill="#424242" width="27.147" height="24.221"/>
						
							<rect id="XMLID_314_" x="1801.106" y="815.615" fill-rule="evenodd" clip-rule="evenodd" fill="#FFFFFF" width="24.839" height="22.161"/>
						
							<rect id="XMLID_313_" x="1802.658" y="817" fill-rule="evenodd" clip-rule="evenodd" fill="#FFE5B9" width="21.734" height="19.39"/>
					</g>
					<g id="XMLID_28_">
						<path id="XMLID_312_" fill-rule="evenodd" clip-rule="evenodd" fill="#7D7C7D" d="M1797.668,848.066h31.715
							c0.794,0,1.442,0.694,1.442,1.543v27.781c0,0.849-0.648,1.542-1.442,1.542h-31.715c-0.793,0-1.44-0.693-1.44-1.542v-27.781
							C1796.228,848.76,1796.875,848.066,1797.668,848.066z"/>
						
							<rect id="XMLID_311_" x="1799.952" y="851.389" fill-rule="evenodd" clip-rule="evenodd" fill="#424242" width="27.147" height="24.221"/>
						
							<rect id="XMLID_310_" x="1801.106" y="852.419" fill-rule="evenodd" clip-rule="evenodd" fill="#FFFFFF" width="24.839" height="22.162"/>
						
							<rect id="XMLID_309_" x="1802.658" y="853.805" fill-rule="evenodd" clip-rule="evenodd" fill="#FFE5B9" width="21.734" height="19.391"/>
					</g>
				</g>
			</g>
			<g id="XMLID_29_">
				
					<rect id="XMLID_308_" x="1891.678" y="824.794" fill-rule="evenodd" clip-rule="evenodd" fill="#424242" width="98.3" height="3.8"/>
				<g id="XMLID_30_">
					
						<rect id="XMLID_307_" x="1917.334" y="828.595" fill-rule="evenodd" clip-rule="evenodd" fill="#424242" width="3.799" height="87.909"/>
					
						<rect id="XMLID_306_" x="1960.521" y="828.595" fill-rule="evenodd" clip-rule="evenodd" fill="#424242" width="3.8" height="87.909"/>
				</g>
				
					<rect id="XMLID_305_" x="1891.678" y="861.599" fill-rule="evenodd" clip-rule="evenodd" fill="#424242" width="98.3" height="3.8"/>
				<g id="XMLID_31_">
					<g id="XMLID_32_">
						<path id="XMLID_304_" fill-rule="evenodd" clip-rule="evenodd" fill="#7D7C7D" d="M1881.722,811.263h31.716
							c0.793,0,1.44,0.693,1.44,1.542v27.781c0,0.849-0.647,1.542-1.44,1.542h-31.716c-0.793,0-1.441-0.693-1.441-1.542v-27.781
							C1880.28,811.956,1880.929,811.263,1881.722,811.263z"/>
						
							<rect id="XMLID_303_" x="1884.006" y="814.585" fill-rule="evenodd" clip-rule="evenodd" fill="#424242" width="27.147" height="24.221"/>
						
							<rect id="XMLID_302_" x="1885.16" y="815.615" fill-rule="evenodd" clip-rule="evenodd" fill="#FFFFFF" width="24.839" height="22.161"/>
						
							<rect id="XMLID_301_" x="1886.711" y="817" fill-rule="evenodd" clip-rule="evenodd" fill="#FFE5B9" width="21.736" height="19.39"/>
					</g>
					<g id="XMLID_33_">
						<path id="XMLID_300_" fill-rule="evenodd" clip-rule="evenodd" fill="#7D7C7D" d="M1881.722,848.066h31.716
							c0.793,0,1.44,0.694,1.44,1.543v27.781c0,0.849-0.647,1.542-1.44,1.542h-31.716c-0.793,0-1.441-0.693-1.441-1.542v-27.781
							C1880.28,848.76,1880.929,848.066,1881.722,848.066z"/>
						
							<rect id="XMLID_299_" x="1884.006" y="851.389" fill-rule="evenodd" clip-rule="evenodd" fill="#424242" width="27.147" height="24.221"/>
						
							<rect id="XMLID_298_" x="1885.16" y="852.419" fill-rule="evenodd" clip-rule="evenodd" fill="#FFFFFF" width="24.839" height="22.162"/>
						
							<rect id="XMLID_297_" x="1886.711" y="853.805" fill-rule="evenodd" clip-rule="evenodd" fill="#FFE5B9" width="21.736" height="19.391"/>
					</g>
					<g id="XMLID_34_">
						<path id="XMLID_296_" fill-rule="evenodd" clip-rule="evenodd" fill="#7D7C7D" d="M1924.97,811.263h31.715
							c0.794,0,1.44,0.693,1.44,1.542v27.781c0,0.849-0.646,1.542-1.44,1.542h-31.715c-0.794,0-1.442-0.693-1.442-1.542v-27.781
							C1923.527,811.956,1924.176,811.263,1924.97,811.263z"/>
						
							<rect id="XMLID_295_" x="1927.253" y="814.585" fill-rule="evenodd" clip-rule="evenodd" fill="#424242" width="27.147" height="24.221"/>
						
							<rect id="XMLID_294_" x="1928.406" y="815.615" fill-rule="evenodd" clip-rule="evenodd" fill="#FFFFFF" width="24.842" height="22.161"/>
						
							<rect id="XMLID_293_" x="1929.96" y="817" fill-rule="evenodd" clip-rule="evenodd" fill="#FFE5B9" width="21.734" height="19.39"/>
					</g>
					<g id="XMLID_35_">
						<path id="XMLID_292_" fill-rule="evenodd" clip-rule="evenodd" fill="#7D7C7D" d="M1924.97,848.066h31.715
							c0.794,0,1.44,0.694,1.44,1.543v27.781c0,0.849-0.646,1.542-1.44,1.542h-31.715c-0.794,0-1.442-0.693-1.442-1.542v-27.781
							C1923.527,848.76,1924.176,848.066,1924.97,848.066z"/>
						
							<rect id="XMLID_291_" x="1927.253" y="851.389" fill-rule="evenodd" clip-rule="evenodd" fill="#424242" width="27.147" height="24.221"/>
						
							<rect id="XMLID_290_" x="1928.406" y="852.419" fill-rule="evenodd" clip-rule="evenodd" fill="#FFFFFF" width="24.842" height="22.162"/>
						
							<rect id="XMLID_289_" x="1929.96" y="853.805" fill-rule="evenodd" clip-rule="evenodd" fill="#FFE5B9" width="21.734" height="19.391"/>
					</g>
					<g id="XMLID_36_">
						<path id="XMLID_288_" fill-rule="evenodd" clip-rule="evenodd" fill="#7D7C7D" d="M1968.217,811.263h31.715
							c0.794,0,1.442,0.693,1.442,1.542v27.781c0,0.849-0.648,1.542-1.442,1.542h-31.715c-0.792,0-1.441-0.693-1.441-1.542v-27.781
							C1966.775,811.956,1967.425,811.263,1968.217,811.263z"/>
						
							<rect id="XMLID_287_" x="1970.501" y="814.585" fill-rule="evenodd" clip-rule="evenodd" fill="#424242" width="27.147" height="24.221"/>
						
							<rect id="XMLID_286_" x="1971.655" y="815.615" fill-rule="evenodd" clip-rule="evenodd" fill="#FFFFFF" width="24.84" height="22.161"/>
						
							<rect id="XMLID_285_" x="1973.207" y="817" fill-rule="evenodd" clip-rule="evenodd" fill="#FFE5B9" width="21.734" height="19.39"/>
					</g>
					<g id="XMLID_37_">
						<path id="XMLID_284_" fill-rule="evenodd" clip-rule="evenodd" fill="#7D7C7D" d="M1968.217,848.066h31.715
							c0.794,0,1.442,0.694,1.442,1.543v27.781c0,0.849-0.648,1.542-1.442,1.542h-31.715c-0.792,0-1.441-0.693-1.441-1.542v-27.781
							C1966.775,848.76,1967.425,848.066,1968.217,848.066z"/>
						
							<rect id="XMLID_283_" x="1970.501" y="851.389" fill-rule="evenodd" clip-rule="evenodd" fill="#424242" width="27.147" height="24.221"/>
						
							<rect id="XMLID_282_" x="1971.655" y="852.419" fill-rule="evenodd" clip-rule="evenodd" fill="#FFFFFF" width="24.84" height="22.162"/>
						
							<rect id="XMLID_281_" x="1973.207" y="853.805" fill-rule="evenodd" clip-rule="evenodd" fill="#FFE5B9" width="21.734" height="19.391"/>
					</g>
				</g>
			</g>
			<g id="XMLID_38_">
				
					<rect id="XMLID_280_" x="2062.227" y="824.794" fill-rule="evenodd" clip-rule="evenodd" fill="#424242" width="98.3" height="3.8"/>
				<g id="XMLID_39_">
					
						<rect id="XMLID_279_" x="2087.883" y="828.595" fill-rule="evenodd" clip-rule="evenodd" fill="#424242" width="3.799" height="87.909"/>
					
						<rect id="XMLID_278_" x="2131.069" y="828.595" fill-rule="evenodd" clip-rule="evenodd" fill="#424242" width="3.8" height="87.909"/>
				</g>
				
					<rect id="XMLID_277_" x="2062.227" y="861.599" fill-rule="evenodd" clip-rule="evenodd" fill="#424242" width="98.3" height="3.8"/>
				<g id="XMLID_40_">
					<g id="XMLID_41_">
						<path id="XMLID_276_" fill-rule="evenodd" clip-rule="evenodd" fill="#7D7C7D" d="M2052.27,811.263h31.717
							c0.793,0,1.44,0.693,1.44,1.542v27.781c0,0.849-0.647,1.542-1.44,1.542h-31.717c-0.792,0-1.44-0.693-1.44-1.542v-27.781
							C2050.829,811.956,2051.478,811.263,2052.27,811.263z"/>
						
							<rect id="XMLID_275_" x="2054.555" y="814.585" fill-rule="evenodd" clip-rule="evenodd" fill="#424242" width="27.147" height="24.221"/>
						
							<rect id="XMLID_274_" x="2055.708" y="815.615" fill-rule="evenodd" clip-rule="evenodd" fill="#FFFFFF" width="24.84" height="22.161"/>
						
							<rect id="XMLID_273_" x="2057.261" y="817" fill-rule="evenodd" clip-rule="evenodd" fill="#FFE5B9" width="21.735" height="19.39"/>
					</g>
					<g id="XMLID_42_">
						<path id="XMLID_272_" fill-rule="evenodd" clip-rule="evenodd" fill="#7D7C7D" d="M2052.27,848.066h31.717
							c0.793,0,1.44,0.694,1.44,1.543v27.781c0,0.849-0.647,1.542-1.44,1.542h-31.717c-0.792,0-1.44-0.693-1.44-1.542v-27.781
							C2050.829,848.76,2051.478,848.066,2052.27,848.066z"/>
						
							<rect id="XMLID_271_" x="2054.555" y="851.389" fill-rule="evenodd" clip-rule="evenodd" fill="#424242" width="27.147" height="24.221"/>
						
							<rect id="XMLID_270_" x="2055.708" y="852.419" fill-rule="evenodd" clip-rule="evenodd" fill="#FFFFFF" width="24.84" height="22.162"/>
						
							<rect id="XMLID_269_" x="2057.261" y="853.805" fill-rule="evenodd" clip-rule="evenodd" fill="#FFE5B9" width="21.735" height="19.391"/>
					</g>
					<g id="XMLID_43_">
						<path id="XMLID_268_" fill-rule="evenodd" clip-rule="evenodd" fill="#7D7C7D" d="M2095.519,811.263h31.715
							c0.794,0,1.441,0.693,1.441,1.542v27.781c0,0.849-0.647,1.542-1.441,1.542h-31.715c-0.794,0-1.442-0.693-1.442-1.542v-27.781
							C2094.076,811.956,2094.725,811.263,2095.519,811.263z"/>
						
							<rect id="XMLID_267_" x="2097.802" y="814.585" fill-rule="evenodd" clip-rule="evenodd" fill="#424242" width="27.147" height="24.221"/>
						
							<rect id="XMLID_266_" x="2098.955" y="815.615" fill-rule="evenodd" clip-rule="evenodd" fill="#FFFFFF" width="24.841" height="22.161"/>
						
							<rect id="XMLID_265_" x="2100.509" y="817" fill-rule="evenodd" clip-rule="evenodd" fill="#FFE5B9" width="21.734" height="19.39"/>
					</g>
					<g id="XMLID_44_">
						<path id="XMLID_264_" fill-rule="evenodd" clip-rule="evenodd" fill="#7D7C7D" d="M2095.519,848.066h31.715
							c0.794,0,1.441,0.694,1.441,1.543v27.781c0,0.849-0.647,1.542-1.441,1.542h-31.715c-0.794,0-1.442-0.693-1.442-1.542v-27.781
							C2094.076,848.76,2094.725,848.066,2095.519,848.066z"/>
						
							<rect id="XMLID_263_" x="2097.802" y="851.389" fill-rule="evenodd" clip-rule="evenodd" fill="#424242" width="27.147" height="24.221"/>
						
							<rect id="XMLID_262_" x="2098.955" y="852.419" fill-rule="evenodd" clip-rule="evenodd" fill="#FFFFFF" width="24.841" height="22.162"/>
						
							<rect id="XMLID_261_" x="2100.509" y="853.805" fill-rule="evenodd" clip-rule="evenodd" fill="#FFE5B9" width="21.734" height="19.391"/>
					</g>
					<g id="XMLID_45_">
						<path id="XMLID_260_" fill-rule="evenodd" clip-rule="evenodd" fill="#7D7C7D" d="M2138.766,811.263h31.715
							c0.794,0,1.442,0.693,1.442,1.542v27.781c0,0.849-0.648,1.542-1.442,1.542h-31.715c-0.792,0-1.441-0.693-1.441-1.542v-27.781
							C2137.324,811.956,2137.974,811.263,2138.766,811.263z"/>
						
							<rect id="XMLID_259_" x="2141.05" y="814.585" fill-rule="evenodd" clip-rule="evenodd" fill="#424242" width="27.147" height="24.221"/>
						
							<rect id="XMLID_258_" x="2142.204" y="815.615" fill-rule="evenodd" clip-rule="evenodd" fill="#FFFFFF" width="24.84" height="22.161"/>
						
							<rect id="XMLID_257_" x="2143.756" y="817" fill-rule="evenodd" clip-rule="evenodd" fill="#FFE5B9" width="21.734" height="19.39"/>
					</g>
					<g id="XMLID_46_">
						<path id="XMLID_256_" fill-rule="evenodd" clip-rule="evenodd" fill="#7D7C7D" d="M2138.766,848.066h31.715
							c0.794,0,1.442,0.694,1.442,1.543v27.781c0,0.849-0.648,1.542-1.442,1.542h-31.715c-0.792,0-1.441-0.693-1.441-1.542v-27.781
							C2137.324,848.76,2137.974,848.066,2138.766,848.066z"/>
						
							<rect id="XMLID_255_" x="2141.05" y="851.389" fill-rule="evenodd" clip-rule="evenodd" fill="#424242" width="27.147" height="24.221"/>
						
							<rect id="XMLID_254_" x="2142.204" y="852.419" fill-rule="evenodd" clip-rule="evenodd" fill="#FFFFFF" width="24.84" height="22.162"/>
						
							<rect id="XMLID_253_" x="2143.756" y="853.805" fill-rule="evenodd" clip-rule="evenodd" fill="#FFE5B9" width="21.734" height="19.391"/>
					</g>
				</g>
			</g>
		</g>
		<g id="XMLID_47_">
			<g id="XMLID_48_">
				
					<rect id="XMLID_252_" x="111.477" y="824.794" fill-rule="evenodd" clip-rule="evenodd" fill="#424242" width="98.299" height="3.8"/>
				<g id="XMLID_49_">
					
						<rect id="XMLID_251_" x="137.133" y="828.595" fill-rule="evenodd" clip-rule="evenodd" fill="#424242" width="3.8" height="87.909"/>
					
						<rect id="XMLID_250_" x="180.32" y="828.595" fill-rule="evenodd" clip-rule="evenodd" fill="#424242" width="3.8" height="87.909"/>
				</g>
				
					<rect id="XMLID_249_" x="111.477" y="861.599" fill-rule="evenodd" clip-rule="evenodd" fill="#424242" width="98.299" height="3.8"/>
				<g id="XMLID_50_">
					<g id="XMLID_51_">
						<path id="XMLID_248_" fill-rule="evenodd" clip-rule="evenodd" fill="#7D7C7D" d="M101.521,811.263h31.716
							c0.792,0,1.441,0.693,1.441,1.542v27.781c0,0.849-0.648,1.542-1.441,1.542h-31.716c-0.792,0-1.441-0.693-1.441-1.542v-27.781
							C100.08,811.956,100.728,811.263,101.521,811.263z"/>
						
							<rect id="XMLID_247_" x="103.805" y="814.585" fill-rule="evenodd" clip-rule="evenodd" fill="#424242" width="27.148" height="24.221"/>
						
							<rect id="XMLID_246_" x="104.958" y="815.615" fill-rule="evenodd" clip-rule="evenodd" fill="#FFFFFF" width="24.84" height="22.161"/>
						
							<rect id="XMLID_245_" x="106.511" y="817" fill-rule="evenodd" clip-rule="evenodd" fill="#FFE5B9" width="21.735" height="19.39"/>
					</g>
					<g id="XMLID_52_">
						<path id="XMLID_244_" fill-rule="evenodd" clip-rule="evenodd" fill="#7D7C7D" d="M101.521,848.066h31.716
							c0.792,0,1.441,0.694,1.441,1.543v27.781c0,0.849-0.648,1.542-1.441,1.542h-31.716c-0.792,0-1.441-0.693-1.441-1.542v-27.781
							C100.08,848.76,100.728,848.066,101.521,848.066z"/>
						
							<rect id="XMLID_243_" x="103.805" y="851.389" fill-rule="evenodd" clip-rule="evenodd" fill="#424242" width="27.148" height="24.221"/>
						
							<rect id="XMLID_242_" x="104.958" y="852.419" fill-rule="evenodd" clip-rule="evenodd" fill="#FFFFFF" width="24.84" height="22.162"/>
						
							<rect id="XMLID_241_" x="106.511" y="853.805" fill-rule="evenodd" clip-rule="evenodd" fill="#FFE5B9" width="21.735" height="19.391"/>
					</g>
					<g id="XMLID_53_">
						<path id="XMLID_240_" fill-rule="evenodd" clip-rule="evenodd" fill="#7D7C7D" d="M144.769,811.263h31.715
							c0.793,0,1.441,0.693,1.441,1.542v27.781c0,0.849-0.647,1.542-1.441,1.542h-31.715c-0.793,0-1.442-0.693-1.442-1.542v-27.781
							C143.327,811.956,143.975,811.263,144.769,811.263z"/>
						
							<rect id="XMLID_239_" x="147.052" y="814.585" fill-rule="evenodd" clip-rule="evenodd" fill="#424242" width="27.147" height="24.221"/>
						
							<rect id="XMLID_238_" x="148.206" y="815.615" fill-rule="evenodd" clip-rule="evenodd" fill="#FFFFFF" width="24.841" height="22.161"/>
						
							<rect id="XMLID_237_" x="149.759" y="817" fill-rule="evenodd" clip-rule="evenodd" fill="#FFE5B9" width="21.734" height="19.39"/>
					</g>
					<g id="XMLID_54_">
						<path id="XMLID_236_" fill-rule="evenodd" clip-rule="evenodd" fill="#7D7C7D" d="M144.769,848.066h31.715
							c0.793,0,1.441,0.694,1.441,1.543v27.781c0,0.849-0.647,1.542-1.441,1.542h-31.715c-0.793,0-1.442-0.693-1.442-1.542v-27.781
							C143.327,848.76,143.975,848.066,144.769,848.066z"/>
						
							<rect id="XMLID_235_" x="147.052" y="851.389" fill-rule="evenodd" clip-rule="evenodd" fill="#424242" width="27.147" height="24.221"/>
						
							<rect id="XMLID_234_" x="148.206" y="852.419" fill-rule="evenodd" clip-rule="evenodd" fill="#FFFFFF" width="24.841" height="22.162"/>
						
							<rect id="XMLID_233_" x="149.759" y="853.805" fill-rule="evenodd" clip-rule="evenodd" fill="#FFE5B9" width="21.734" height="19.391"/>
					</g>
					<g id="XMLID_55_">
						<path id="XMLID_232_" fill-rule="evenodd" clip-rule="evenodd" fill="#7D7C7D" d="M188.016,811.263h31.715
							c0.793,0,1.442,0.693,1.442,1.542v27.781c0,0.849-0.648,1.542-1.442,1.542h-31.715c-0.792,0-1.441-0.693-1.441-1.542v-27.781
							C186.575,811.956,187.224,811.263,188.016,811.263z"/>
						
							<rect id="XMLID_231_" x="190.3" y="814.585" fill-rule="evenodd" clip-rule="evenodd" fill="#424242" width="27.147" height="24.221"/>
						
							<rect id="XMLID_230_" x="191.454" y="815.615" fill-rule="evenodd" clip-rule="evenodd" fill="#FFFFFF" width="24.84" height="22.161"/>
						
							<rect id="XMLID_229_" x="193.006" y="817" fill-rule="evenodd" clip-rule="evenodd" fill="#FFE5B9" width="21.734" height="19.39"/>
					</g>
					<g id="XMLID_56_">
						<path id="XMLID_228_" fill-rule="evenodd" clip-rule="evenodd" fill="#7D7C7D" d="M188.016,848.066h31.715
							c0.793,0,1.442,0.694,1.442,1.543v27.781c0,0.849-0.648,1.542-1.442,1.542h-31.715c-0.792,0-1.441-0.693-1.441-1.542v-27.781
							C186.575,848.76,187.224,848.066,188.016,848.066z"/>
						
							<rect id="XMLID_227_" x="190.3" y="851.389" fill-rule="evenodd" clip-rule="evenodd" fill="#424242" width="27.147" height="24.221"/>
						
							<rect id="XMLID_226_" x="191.454" y="852.419" fill-rule="evenodd" clip-rule="evenodd" fill="#FFFFFF" width="24.84" height="22.162"/>
						
							<rect id="XMLID_225_" x="193.006" y="853.805" fill-rule="evenodd" clip-rule="evenodd" fill="#FFE5B9" width="21.734" height="19.391"/>
					</g>
				</g>
			</g>
			<g id="XMLID_57_">
				
					<rect id="XMLID_224_" x="282.026" y="824.794" fill-rule="evenodd" clip-rule="evenodd" fill="#424242" width="98.299" height="3.8"/>
				<g id="XMLID_58_">
					
						<rect id="XMLID_223_" x="307.682" y="828.595" fill-rule="evenodd" clip-rule="evenodd" fill="#424242" width="3.799" height="87.909"/>
					
						<rect id="XMLID_222_" x="350.869" y="828.595" fill-rule="evenodd" clip-rule="evenodd" fill="#424242" width="3.8" height="87.909"/>
				</g>
				
					<rect id="XMLID_221_" x="282.026" y="861.599" fill-rule="evenodd" clip-rule="evenodd" fill="#424242" width="98.299" height="3.8"/>
				<g id="XMLID_59_">
					<g id="XMLID_60_">
						<path id="XMLID_220_" fill-rule="evenodd" clip-rule="evenodd" fill="#7D7C7D" d="M272.069,811.263h31.716
							c0.793,0,1.441,0.693,1.441,1.542v27.781c0,0.849-0.648,1.542-1.441,1.542h-31.716c-0.793,0-1.441-0.693-1.441-1.542v-27.781
							C270.628,811.956,271.276,811.263,272.069,811.263z"/>
						
							<rect id="XMLID_219_" x="274.354" y="814.585" fill-rule="evenodd" clip-rule="evenodd" fill="#424242" width="27.147" height="24.221"/>
						
							<rect id="XMLID_218_" x="275.507" y="815.615" fill-rule="evenodd" clip-rule="evenodd" fill="#FFFFFF" width="24.84" height="22.161"/>
						
							<rect id="XMLID_217_" x="277.06" y="817" fill-rule="evenodd" clip-rule="evenodd" fill="#FFE5B9" width="21.736" height="19.39"/>
					</g>
					<g id="XMLID_61_">
						<path id="XMLID_216_" fill-rule="evenodd" clip-rule="evenodd" fill="#7D7C7D" d="M272.069,848.066h31.716
							c0.793,0,1.441,0.694,1.441,1.543v27.781c0,0.849-0.648,1.542-1.441,1.542h-31.716c-0.793,0-1.441-0.693-1.441-1.542v-27.781
							C270.628,848.76,271.276,848.066,272.069,848.066z"/>
						
							<rect id="XMLID_215_" x="274.354" y="851.389" fill-rule="evenodd" clip-rule="evenodd" fill="#424242" width="27.147" height="24.221"/>
						
							<rect id="XMLID_214_" x="275.507" y="852.419" fill-rule="evenodd" clip-rule="evenodd" fill="#FFFFFF" width="24.84" height="22.162"/>
						
							<rect id="XMLID_213_" x="277.06" y="853.805" fill-rule="evenodd" clip-rule="evenodd" fill="#FFE5B9" width="21.736" height="19.391"/>
					</g>
					<g id="XMLID_62_">
						<path id="XMLID_212_" fill-rule="evenodd" clip-rule="evenodd" fill="#7D7C7D" d="M315.318,811.263h31.714
							c0.794,0,1.441,0.693,1.441,1.542v27.781c0,0.849-0.647,1.542-1.441,1.542h-31.714c-0.794,0-1.442-0.693-1.442-1.542v-27.781
							C313.875,811.956,314.524,811.263,315.318,811.263z"/>
						
							<rect id="XMLID_211_" x="317.601" y="814.585" fill-rule="evenodd" clip-rule="evenodd" fill="#424242" width="27.147" height="24.221"/>
						
							<rect id="XMLID_210_" x="318.754" y="815.615" fill-rule="evenodd" clip-rule="evenodd" fill="#FFFFFF" width="24.841" height="22.161"/>
						
							<rect id="XMLID_209_" x="320.308" y="817" fill-rule="evenodd" clip-rule="evenodd" fill="#FFE5B9" width="21.734" height="19.39"/>
					</g>
					<g id="XMLID_63_">
						<path id="XMLID_208_" fill-rule="evenodd" clip-rule="evenodd" fill="#7D7C7D" d="M315.318,848.066h31.714
							c0.794,0,1.441,0.694,1.441,1.543v27.781c0,0.849-0.647,1.542-1.441,1.542h-31.714c-0.794,0-1.442-0.693-1.442-1.542v-27.781
							C313.875,848.76,314.524,848.066,315.318,848.066z"/>
						
							<rect id="XMLID_207_" x="317.601" y="851.389" fill-rule="evenodd" clip-rule="evenodd" fill="#424242" width="27.147" height="24.221"/>
						
							<rect id="XMLID_206_" x="318.754" y="852.419" fill-rule="evenodd" clip-rule="evenodd" fill="#FFFFFF" width="24.841" height="22.162"/>
						
							<rect id="XMLID_205_" x="320.308" y="853.805" fill-rule="evenodd" clip-rule="evenodd" fill="#FFE5B9" width="21.734" height="19.391"/>
					</g>
					<g id="XMLID_64_">
						<path id="XMLID_204_" fill-rule="evenodd" clip-rule="evenodd" fill="#7D7C7D" d="M358.565,811.263h31.715
							c0.794,0,1.442,0.693,1.442,1.542v27.781c0,0.849-0.648,1.542-1.442,1.542h-31.715c-0.792,0-1.441-0.693-1.441-1.542v-27.781
							C357.124,811.956,357.772,811.263,358.565,811.263z"/>
						
							<rect id="XMLID_203_" x="360.849" y="814.585" fill-rule="evenodd" clip-rule="evenodd" fill="#424242" width="27.147" height="24.221"/>
						
							<rect id="XMLID_202_" x="362.003" y="815.615" fill-rule="evenodd" clip-rule="evenodd" fill="#FFFFFF" width="24.839" height="22.161"/>
						
							<rect id="XMLID_201_" x="363.555" y="817" fill-rule="evenodd" clip-rule="evenodd" fill="#FFE5B9" width="21.735" height="19.39"/>
					</g>
					<g id="XMLID_65_">
						<path id="XMLID_200_" fill-rule="evenodd" clip-rule="evenodd" fill="#7D7C7D" d="M358.565,848.066h31.715
							c0.794,0,1.442,0.694,1.442,1.543v27.781c0,0.849-0.648,1.542-1.442,1.542h-31.715c-0.792,0-1.441-0.693-1.441-1.542v-27.781
							C357.124,848.76,357.772,848.066,358.565,848.066z"/>
						
							<rect id="XMLID_199_" x="360.849" y="851.389" fill-rule="evenodd" clip-rule="evenodd" fill="#424242" width="27.147" height="24.221"/>
						
							<rect id="XMLID_198_" x="362.003" y="852.419" fill-rule="evenodd" clip-rule="evenodd" fill="#FFFFFF" width="24.839" height="22.162"/>
						
							<rect id="XMLID_197_" x="363.555" y="853.805" fill-rule="evenodd" clip-rule="evenodd" fill="#FFE5B9" width="21.735" height="19.391"/>
					</g>
				</g>
			</g>
			<g id="XMLID_66_">
				
					<rect id="XMLID_196_" x="452.575" y="824.794" fill-rule="evenodd" clip-rule="evenodd" fill="#424242" width="98.3" height="3.8"/>
				<g id="XMLID_67_">
					
						<rect id="XMLID_195_" x="478.23" y="828.595" fill-rule="evenodd" clip-rule="evenodd" fill="#424242" width="3.8" height="87.909"/>
					
						<rect id="XMLID_194_" x="521.418" y="828.595" fill-rule="evenodd" clip-rule="evenodd" fill="#424242" width="3.799" height="87.909"/>
				</g>
				
					<rect id="XMLID_193_" x="452.575" y="861.599" fill-rule="evenodd" clip-rule="evenodd" fill="#424242" width="98.3" height="3.8"/>
				<g id="XMLID_68_">
					<g id="XMLID_69_">
						<path id="XMLID_192_" fill-rule="evenodd" clip-rule="evenodd" fill="#7D7C7D" d="M442.618,811.263h31.716
							c0.792,0,1.441,0.693,1.441,1.542v27.781c0,0.849-0.648,1.542-1.441,1.542h-31.716c-0.792,0-1.44-0.693-1.44-1.542v-27.781
							C441.177,811.956,441.825,811.263,442.618,811.263z"/>
						
							<rect id="XMLID_191_" x="444.902" y="814.585" fill-rule="evenodd" clip-rule="evenodd" fill="#424242" width="27.147" height="24.221"/>
						
							<rect id="XMLID_190_" x="446.056" y="815.615" fill-rule="evenodd" clip-rule="evenodd" fill="#FFFFFF" width="24.84" height="22.161"/>
						
							<rect id="XMLID_189_" x="447.608" y="817" fill-rule="evenodd" clip-rule="evenodd" fill="#FFE5B9" width="21.736" height="19.39"/>
					</g>
					<g id="XMLID_70_">
						<path id="XMLID_188_" fill-rule="evenodd" clip-rule="evenodd" fill="#7D7C7D" d="M442.618,848.066h31.716
							c0.792,0,1.441,0.694,1.441,1.543v27.781c0,0.849-0.648,1.542-1.441,1.542h-31.716c-0.792,0-1.44-0.693-1.44-1.542v-27.781
							C441.177,848.76,441.825,848.066,442.618,848.066z"/>
						
							<rect id="XMLID_187_" x="444.902" y="851.389" fill-rule="evenodd" clip-rule="evenodd" fill="#424242" width="27.147" height="24.221"/>
						
							<rect id="XMLID_186_" x="446.056" y="852.419" fill-rule="evenodd" clip-rule="evenodd" fill="#FFFFFF" width="24.84" height="22.162"/>
						
							<rect id="XMLID_185_" x="447.608" y="853.805" fill-rule="evenodd" clip-rule="evenodd" fill="#FFE5B9" width="21.736" height="19.391"/>
					</g>
					<g id="XMLID_71_">
						<path id="XMLID_184_" fill-rule="evenodd" clip-rule="evenodd" fill="#7D7C7D" d="M485.867,811.263h31.715
							c0.793,0,1.441,0.693,1.441,1.542v27.781c0,0.849-0.647,1.542-1.441,1.542h-31.715c-0.794,0-1.442-0.693-1.442-1.542v-27.781
							C484.424,811.956,485.073,811.263,485.867,811.263z"/>
						
							<rect id="XMLID_183_" x="488.149" y="814.585" fill-rule="evenodd" clip-rule="evenodd" fill="#424242" width="27.147" height="24.221"/>
						
							<rect id="XMLID_182_" x="489.304" y="815.615" fill-rule="evenodd" clip-rule="evenodd" fill="#FFFFFF" width="24.841" height="22.161"/>
						
							<rect id="XMLID_181_" x="490.856" y="817" fill-rule="evenodd" clip-rule="evenodd" fill="#FFE5B9" width="21.735" height="19.39"/>
					</g>
					<g id="XMLID_72_">
						<path id="XMLID_180_" fill-rule="evenodd" clip-rule="evenodd" fill="#7D7C7D" d="M485.867,848.066h31.715
							c0.793,0,1.441,0.694,1.441,1.543v27.781c0,0.849-0.647,1.542-1.441,1.542h-31.715c-0.794,0-1.442-0.693-1.442-1.542v-27.781
							C484.424,848.76,485.073,848.066,485.867,848.066z"/>
						
							<rect id="XMLID_179_" x="488.149" y="851.389" fill-rule="evenodd" clip-rule="evenodd" fill="#424242" width="27.147" height="24.221"/>
						
							<rect id="XMLID_178_" x="489.304" y="852.419" fill-rule="evenodd" clip-rule="evenodd" fill="#FFFFFF" width="24.841" height="22.162"/>
						
							<rect id="XMLID_177_" x="490.856" y="853.805" fill-rule="evenodd" clip-rule="evenodd" fill="#FFE5B9" width="21.735" height="19.391"/>
					</g>
					<g id="XMLID_73_">
						<path id="XMLID_176_" fill-rule="evenodd" clip-rule="evenodd" fill="#7D7C7D" d="M529.114,811.263h31.715
							c0.794,0,1.442,0.693,1.442,1.542v27.781c0,0.849-0.648,1.542-1.442,1.542h-31.715c-0.792,0-1.441-0.693-1.441-1.542v-27.781
							C527.673,811.956,528.321,811.263,529.114,811.263z"/>
						
							<rect id="XMLID_175_" x="531.398" y="814.585" fill-rule="evenodd" clip-rule="evenodd" fill="#424242" width="27.148" height="24.221"/>
						
							<rect id="XMLID_174_" x="532.552" y="815.615" fill-rule="evenodd" clip-rule="evenodd" fill="#FFFFFF" width="24.84" height="22.161"/>
						
							<rect id="XMLID_173_" x="534.104" y="817" fill-rule="evenodd" clip-rule="evenodd" fill="#FFE5B9" width="21.735" height="19.39"/>
					</g>
					<g id="XMLID_74_">
						<path id="XMLID_172_" fill-rule="evenodd" clip-rule="evenodd" fill="#7D7C7D" d="M529.114,848.066h31.715
							c0.794,0,1.442,0.694,1.442,1.543v27.781c0,0.849-0.648,1.542-1.442,1.542h-31.715c-0.792,0-1.441-0.693-1.441-1.542v-27.781
							C527.673,848.76,528.321,848.066,529.114,848.066z"/>
						
							<rect id="XMLID_171_" x="531.398" y="851.389" fill-rule="evenodd" clip-rule="evenodd" fill="#424242" width="27.148" height="24.221"/>
						
							<rect id="XMLID_170_" x="532.552" y="852.419" fill-rule="evenodd" clip-rule="evenodd" fill="#FFFFFF" width="24.84" height="22.162"/>
						
							<rect id="XMLID_169_" x="534.104" y="853.805" fill-rule="evenodd" clip-rule="evenodd" fill="#FFE5B9" width="21.735" height="19.391"/>
					</g>
				</g>
			</g>
		</g>
	</g>
	<g>
		<g id="XMLID_75_">
			<g id="XMLID_76_">
				
					<rect id="XMLID_168_" x="1249.945" y="798.138" fill-rule="evenodd" clip-rule="evenodd" fill="#424242" width="75.217" height="2.907"/>
				<g id="XMLID_77_">
					
						<rect id="XMLID_167_" x="1269.577" y="801.046" fill-rule="evenodd" clip-rule="evenodd" fill="#424242" width="2.907" height="67.266"/>
					
						<rect id="XMLID_166_" x="1302.623" y="801.046" fill-rule="evenodd" clip-rule="evenodd" fill="#424242" width="2.907" height="67.266"/>
				</g>
				
					<rect id="XMLID_165_" x="1249.945" y="826.3" fill-rule="evenodd" clip-rule="evenodd" fill="#424242" width="75.217" height="2.907"/>
				<g id="XMLID_78_">
					<g id="XMLID_79_">
						<path id="XMLID_164_" fill-rule="evenodd" clip-rule="evenodd" fill="#7D7C7D" d="M1242.325,787.783h24.271
							c0.606,0,1.103,0.532,1.103,1.18v21.257c0,0.651-0.496,1.182-1.103,1.182h-24.271c-0.605,0-1.102-0.531-1.102-1.182v-21.257
							C1241.224,788.315,1241.72,787.783,1242.325,787.783z"/>
						
							<rect id="XMLID_163_" x="1244.075" y="790.325" fill-rule="evenodd" clip-rule="evenodd" fill="#424242" width="20.771" height="18.535"/>
						
							<rect id="XMLID_162_" x="1244.957" y="791.114" fill-rule="evenodd" clip-rule="evenodd" fill="#FFFFFF" width="19.008" height="16.957"/>
						
							<rect id="XMLID_161_" x="1246.145" y="792.174" fill-rule="evenodd" clip-rule="evenodd" fill="#FFE5B9" width="16.632" height="14.838"/>
					</g>
					<g id="XMLID_80_">
						<path id="XMLID_160_" fill-rule="evenodd" clip-rule="evenodd" fill="#7D7C7D" d="M1242.325,815.944h24.271
							c0.606,0,1.103,0.533,1.103,1.183v21.257c0,0.648-0.496,1.18-1.103,1.18h-24.271c-0.605,0-1.102-0.532-1.102-1.18v-21.257
							C1241.224,816.477,1241.72,815.944,1242.325,815.944z"/>
						
							<rect id="XMLID_159_" x="1244.075" y="818.487" fill-rule="evenodd" clip-rule="evenodd" fill="#424242" width="20.771" height="18.535"/>
						
							<rect id="XMLID_158_" x="1244.957" y="819.276" fill-rule="evenodd" clip-rule="evenodd" fill="#FFFFFF" width="19.008" height="16.957"/>
						
							<rect id="XMLID_157_" x="1246.145" y="820.337" fill-rule="evenodd" clip-rule="evenodd" fill="#FFE5B9" width="16.632" height="14.837"/>
					</g>
					<g id="XMLID_81_">
						<path id="XMLID_156_" fill-rule="evenodd" clip-rule="evenodd" fill="#7D7C7D" d="M1275.419,787.783h24.269
							c0.608,0,1.103,0.532,1.103,1.18v21.257c0,0.651-0.494,1.182-1.103,1.182h-24.269c-0.607,0-1.103-0.531-1.103-1.182v-21.257
							C1274.316,788.315,1274.812,787.783,1275.419,787.783z"/>
						
							<rect id="XMLID_155_" x="1277.167" y="790.325" fill-rule="evenodd" clip-rule="evenodd" fill="#424242" width="20.771" height="18.535"/>
						
							<rect id="XMLID_154_" x="1278.051" y="791.114" fill-rule="evenodd" clip-rule="evenodd" fill="#FFFFFF" width="19.008" height="16.957"/>
						
							<rect id="XMLID_153_" x="1279.237" y="792.174" fill-rule="evenodd" clip-rule="evenodd" fill="#FFE5B9" width="16.631" height="14.838"/>
					</g>
					<g id="XMLID_82_">
						<path id="XMLID_152_" fill-rule="evenodd" clip-rule="evenodd" fill="#7D7C7D" d="M1275.419,815.944h24.269
							c0.608,0,1.103,0.533,1.103,1.183v21.257c0,0.648-0.494,1.18-1.103,1.18h-24.269c-0.607,0-1.103-0.532-1.103-1.18v-21.257
							C1274.316,816.477,1274.812,815.944,1275.419,815.944z"/>
						
							<rect id="XMLID_151_" x="1277.167" y="818.487" fill-rule="evenodd" clip-rule="evenodd" fill="#424242" width="20.771" height="18.535"/>
						
							<rect id="XMLID_150_" x="1278.051" y="819.276" fill-rule="evenodd" clip-rule="evenodd" fill="#FFFFFF" width="19.008" height="16.957"/>
						
							<rect id="XMLID_149_" x="1279.237" y="820.337" fill-rule="evenodd" clip-rule="evenodd" fill="#FFE5B9" width="16.631" height="14.837"/>
					</g>
					<g id="XMLID_83_">
						<path id="XMLID_148_" fill-rule="evenodd" clip-rule="evenodd" fill="#7D7C7D" d="M1308.511,787.783h24.27
							c0.607,0,1.104,0.532,1.104,1.18v21.257c0,0.651-0.496,1.182-1.104,1.182h-24.27c-0.605,0-1.102-0.531-1.102-1.182v-21.257
							C1307.409,788.315,1307.905,787.783,1308.511,787.783z"/>
						
							<rect id="XMLID_147_" x="1310.261" y="790.325" fill-rule="evenodd" clip-rule="evenodd" fill="#424242" width="20.771" height="18.535"/>
						
							<rect id="XMLID_146_" x="1311.144" y="791.114" fill-rule="evenodd" clip-rule="evenodd" fill="#FFFFFF" width="19.007" height="16.957"/>
						
							<rect id="XMLID_145_" x="1312.33" y="792.174" fill-rule="evenodd" clip-rule="evenodd" fill="#FFE5B9" width="16.631" height="14.838"/>
					</g>
					<g id="XMLID_84_">
						<path id="XMLID_144_" fill-rule="evenodd" clip-rule="evenodd" fill="#7D7C7D" d="M1308.511,815.944h24.27
							c0.607,0,1.104,0.533,1.104,1.183v21.257c0,0.648-0.496,1.18-1.104,1.18h-24.27c-0.605,0-1.102-0.532-1.102-1.18v-21.257
							C1307.409,816.477,1307.905,815.944,1308.511,815.944z"/>
						
							<rect id="XMLID_143_" x="1310.261" y="818.487" fill-rule="evenodd" clip-rule="evenodd" fill="#424242" width="20.771" height="18.535"/>
						
							<rect id="XMLID_142_" x="1311.144" y="819.276" fill-rule="evenodd" clip-rule="evenodd" fill="#FFFFFF" width="19.007" height="16.957"/>
						
							<rect id="XMLID_141_" x="1312.33" y="820.337" fill-rule="evenodd" clip-rule="evenodd" fill="#FFE5B9" width="16.631" height="14.837"/>
					</g>
				</g>
			</g>
			<g id="XMLID_85_">
				
					<rect id="XMLID_140_" x="1380.447" y="798.138" fill-rule="evenodd" clip-rule="evenodd" fill="#424242" width="75.218" height="2.907"/>
				<g id="XMLID_86_">
					
						<rect id="XMLID_139_" x="1400.08" y="801.046" fill-rule="evenodd" clip-rule="evenodd" fill="#424242" width="2.906" height="67.266"/>
					
						<rect id="XMLID_138_" x="1433.126" y="801.046" fill-rule="evenodd" clip-rule="evenodd" fill="#424242" width="2.906" height="67.266"/>
				</g>
				
					<rect id="XMLID_137_" x="1380.447" y="826.3" fill-rule="evenodd" clip-rule="evenodd" fill="#424242" width="75.218" height="2.907"/>
				<g id="XMLID_87_">
					<g id="XMLID_88_">
						<path id="XMLID_136_" fill-rule="evenodd" clip-rule="evenodd" fill="#7D7C7D" d="M1372.828,787.783h24.27
							c0.606,0,1.103,0.532,1.103,1.18v21.257c0,0.651-0.496,1.182-1.103,1.182h-24.27c-0.605,0-1.102-0.531-1.102-1.182v-21.257
							C1371.727,788.315,1372.223,787.783,1372.828,787.783z"/>
						
							<rect id="XMLID_135_" x="1374.577" y="790.325" fill-rule="evenodd" clip-rule="evenodd" fill="#424242" width="20.772" height="18.535"/>
						
							<rect id="XMLID_134_" x="1375.46" y="791.114" fill-rule="evenodd" clip-rule="evenodd" fill="#FFFFFF" width="19.006" height="16.957"/>
						
							<rect id="XMLID_133_" x="1376.646" y="792.174" fill-rule="evenodd" clip-rule="evenodd" fill="#FFE5B9" width="16.633" height="14.838"/>
					</g>
					<g id="XMLID_89_">
						<path id="XMLID_132_" fill-rule="evenodd" clip-rule="evenodd" fill="#7D7C7D" d="M1372.828,815.944h24.27
							c0.606,0,1.103,0.533,1.103,1.183v21.257c0,0.648-0.496,1.18-1.103,1.18h-24.27c-0.605,0-1.102-0.532-1.102-1.18v-21.257
							C1371.727,816.477,1372.223,815.944,1372.828,815.944z"/>
						
							<rect id="XMLID_131_" x="1374.577" y="818.487" fill-rule="evenodd" clip-rule="evenodd" fill="#424242" width="20.772" height="18.535"/>
						
							<rect id="XMLID_130_" x="1375.46" y="819.276" fill-rule="evenodd" clip-rule="evenodd" fill="#FFFFFF" width="19.006" height="16.957"/>
						
							<rect id="XMLID_129_" x="1376.646" y="820.337" fill-rule="evenodd" clip-rule="evenodd" fill="#FFE5B9" width="16.633" height="14.837"/>
					</g>
					<g id="XMLID_90_">
						<path id="XMLID_128_" fill-rule="evenodd" clip-rule="evenodd" fill="#7D7C7D" d="M1405.922,787.783h24.269
							c0.607,0,1.103,0.532,1.103,1.18v21.257c0,0.651-0.495,1.182-1.103,1.182h-24.269c-0.607,0-1.104-0.531-1.104-1.182v-21.257
							C1404.818,788.315,1405.314,787.783,1405.922,787.783z"/>
						
							<rect id="XMLID_127_" x="1407.669" y="790.325" fill-rule="evenodd" clip-rule="evenodd" fill="#424242" width="20.772" height="18.535"/>
						
							<rect id="XMLID_126_" x="1408.552" y="791.114" fill-rule="evenodd" clip-rule="evenodd" fill="#FFFFFF" width="19.008" height="16.957"/>
						
							<rect id="XMLID_125_" x="1409.739" y="792.174" fill-rule="evenodd" clip-rule="evenodd" fill="#FFE5B9" width="16.633" height="14.838"/>
					</g>
					<g id="XMLID_91_">
						<path id="XMLID_124_" fill-rule="evenodd" clip-rule="evenodd" fill="#7D7C7D" d="M1405.922,815.944h24.269
							c0.607,0,1.103,0.533,1.103,1.183v21.257c0,0.648-0.495,1.18-1.103,1.18h-24.269c-0.607,0-1.104-0.532-1.104-1.18v-21.257
							C1404.818,816.477,1405.314,815.944,1405.922,815.944z"/>
						
							<rect id="XMLID_123_" x="1407.669" y="818.487" fill-rule="evenodd" clip-rule="evenodd" fill="#424242" width="20.772" height="18.535"/>
						
							<rect id="XMLID_122_" x="1408.552" y="819.276" fill-rule="evenodd" clip-rule="evenodd" fill="#FFFFFF" width="19.008" height="16.957"/>
						
							<rect id="XMLID_121_" x="1409.739" y="820.337" fill-rule="evenodd" clip-rule="evenodd" fill="#FFE5B9" width="16.633" height="14.837"/>
					</g>
					<g id="XMLID_92_">
						<path id="XMLID_120_" fill-rule="evenodd" clip-rule="evenodd" fill="#7D7C7D" d="M1439.015,787.783h24.268
							c0.607,0,1.104,0.532,1.104,1.18v21.257c0,0.651-0.496,1.182-1.104,1.182h-24.268c-0.606,0-1.104-0.531-1.104-1.182v-21.257
							C1437.911,788.315,1438.408,787.783,1439.015,787.783z"/>
						
							<rect id="XMLID_119_" x="1440.763" y="790.325" fill-rule="evenodd" clip-rule="evenodd" fill="#424242" width="20.772" height="18.535"/>
						
							<rect id="XMLID_118_" x="1441.646" y="791.114" fill-rule="evenodd" clip-rule="evenodd" fill="#FFFFFF" width="19.007" height="16.957"/>
						
							<rect id="XMLID_117_" x="1442.833" y="792.174" fill-rule="evenodd" clip-rule="evenodd" fill="#FFE5B9" width="16.631" height="14.838"/>
					</g>
					<g id="XMLID_93_">
						<path id="XMLID_116_" fill-rule="evenodd" clip-rule="evenodd" fill="#7D7C7D" d="M1439.015,815.944h24.268
							c0.607,0,1.104,0.533,1.104,1.183v21.257c0,0.648-0.496,1.18-1.104,1.18h-24.268c-0.606,0-1.104-0.532-1.104-1.18v-21.257
							C1437.911,816.477,1438.408,815.944,1439.015,815.944z"/>
						
							<rect id="XMLID_115_" x="1440.763" y="818.487" fill-rule="evenodd" clip-rule="evenodd" fill="#424242" width="20.772" height="18.535"/>
						
							<rect id="XMLID_114_" x="1441.646" y="819.276" fill-rule="evenodd" clip-rule="evenodd" fill="#FFFFFF" width="19.007" height="16.957"/>
						
							<rect id="XMLID_113_" x="1442.833" y="820.337" fill-rule="evenodd" clip-rule="evenodd" fill="#FFE5B9" width="16.631" height="14.837"/>
					</g>
				</g>
			</g>
			<g id="XMLID_94_">
				
					<rect id="XMLID_112_" x="1510.949" y="798.138" fill-rule="evenodd" clip-rule="evenodd" fill="#424242" width="75.218" height="2.907"/>
				<g id="XMLID_95_">
					
						<rect id="XMLID_111_" x="1530.582" y="801.046" fill-rule="evenodd" clip-rule="evenodd" fill="#424242" width="2.907" height="67.266"/>
					
						<rect id="XMLID_110_" x="1563.628" y="801.046" fill-rule="evenodd" clip-rule="evenodd" fill="#424242" width="2.907" height="67.266"/>
				</g>
				
					<rect id="XMLID_109_" x="1510.949" y="826.3" fill-rule="evenodd" clip-rule="evenodd" fill="#424242" width="75.218" height="2.907"/>
				<g id="XMLID_96_">
					<g id="XMLID_97_">
						<path id="XMLID_108_" fill-rule="evenodd" clip-rule="evenodd" fill="#7D7C7D" d="M1503.332,787.783h24.268
							c0.607,0,1.104,0.532,1.104,1.18v21.257c0,0.651-0.496,1.182-1.104,1.182h-24.268c-0.607,0-1.104-0.531-1.104-1.182v-21.257
							C1502.229,788.315,1502.725,787.783,1503.332,787.783z"/>
						
							<rect id="XMLID_107_" x="1505.08" y="790.325" fill-rule="evenodd" clip-rule="evenodd" fill="#424242" width="20.771" height="18.535"/>
						
							<rect id="XMLID_106_" x="1505.962" y="791.114" fill-rule="evenodd" clip-rule="evenodd" fill="#FFFFFF" width="19.006" height="16.957"/>
						
							<rect id="XMLID_105_" x="1507.15" y="792.174" fill-rule="evenodd" clip-rule="evenodd" fill="#FFE5B9" width="16.632" height="14.838"/>
					</g>
					<g id="XMLID_98_">
						<path id="XMLID_104_" fill-rule="evenodd" clip-rule="evenodd" fill="#7D7C7D" d="M1503.332,815.944h24.268
							c0.607,0,1.104,0.533,1.104,1.183v21.257c0,0.648-0.496,1.18-1.104,1.18h-24.268c-0.607,0-1.104-0.532-1.104-1.18v-21.257
							C1502.229,816.477,1502.725,815.944,1503.332,815.944z"/>
						
							<rect id="XMLID_103_" x="1505.08" y="818.487" fill-rule="evenodd" clip-rule="evenodd" fill="#424242" width="20.771" height="18.535"/>
						
							<rect id="XMLID_102_" x="1505.962" y="819.276" fill-rule="evenodd" clip-rule="evenodd" fill="#FFFFFF" width="19.006" height="16.957"/>
						
							<rect id="XMLID_101_" x="1507.15" y="820.337" fill-rule="evenodd" clip-rule="evenodd" fill="#FFE5B9" width="16.632" height="14.837"/>
					</g>
					<g id="XMLID_99_">
						<path id="XMLID_100_" fill-rule="evenodd" clip-rule="evenodd" fill="#7D7C7D" d="M1536.425,787.783h24.269
							c0.606,0,1.102,0.532,1.102,1.18v21.257c0,0.651-0.495,1.182-1.102,1.182h-24.269c-0.608,0-1.104-0.531-1.104-1.182v-21.257
							C1535.32,788.315,1535.816,787.783,1536.425,787.783z"/>
						
							<rect id="XMLID_436_" x="1538.172" y="790.325" fill-rule="evenodd" clip-rule="evenodd" fill="#424242" width="20.771" height="18.535"/>
						
							<rect id="XMLID_437_" x="1539.054" y="791.114" fill-rule="evenodd" clip-rule="evenodd" fill="#FFFFFF" width="19.008" height="16.957"/>
						
							<rect id="XMLID_438_" x="1540.243" y="792.174" fill-rule="evenodd" clip-rule="evenodd" fill="#FFE5B9" width="16.632" height="14.838"/>
					</g>
					<g id="XMLID_439_">
						<path id="XMLID_440_" fill-rule="evenodd" clip-rule="evenodd" fill="#7D7C7D" d="M1536.425,815.944h24.269
							c0.606,0,1.102,0.533,1.102,1.183v21.257c0,0.648-0.495,1.18-1.102,1.18h-24.269c-0.608,0-1.104-0.532-1.104-1.18v-21.257
							C1535.32,816.477,1535.816,815.944,1536.425,815.944z"/>
						
							<rect id="XMLID_441_" x="1538.172" y="818.487" fill-rule="evenodd" clip-rule="evenodd" fill="#424242" width="20.771" height="18.535"/>
						
							<rect id="XMLID_442_" x="1539.054" y="819.276" fill-rule="evenodd" clip-rule="evenodd" fill="#FFFFFF" width="19.008" height="16.957"/>
						
							<rect id="XMLID_443_" x="1540.243" y="820.337" fill-rule="evenodd" clip-rule="evenodd" fill="#FFE5B9" width="16.632" height="14.837"/>
					</g>
					<g id="XMLID_444_">
						<path id="XMLID_445_" fill-rule="evenodd" clip-rule="evenodd" fill="#7D7C7D" d="M1569.518,787.783h24.268
							c0.607,0,1.104,0.532,1.104,1.18v21.257c0,0.651-0.496,1.182-1.104,1.182h-24.268c-0.607,0-1.104-0.531-1.104-1.182v-21.257
							C1568.414,788.315,1568.91,787.783,1569.518,787.783z"/>
						
							<rect id="XMLID_446_" x="1571.265" y="790.325" fill-rule="evenodd" clip-rule="evenodd" fill="#424242" width="20.772" height="18.535"/>
						
							<rect id="XMLID_447_" x="1572.147" y="791.114" fill-rule="evenodd" clip-rule="evenodd" fill="#FFFFFF" width="19.007" height="16.957"/>
						
							<rect id="XMLID_448_" x="1573.336" y="792.174" fill-rule="evenodd" clip-rule="evenodd" fill="#FFE5B9" width="16.631" height="14.838"/>
					</g>
					<g id="XMLID_449_">
						<path id="XMLID_450_" fill-rule="evenodd" clip-rule="evenodd" fill="#7D7C7D" d="M1569.518,815.944h24.268
							c0.607,0,1.104,0.533,1.104,1.183v21.257c0,0.648-0.496,1.18-1.104,1.18h-24.268c-0.607,0-1.104-0.532-1.104-1.18v-21.257
							C1568.414,816.477,1568.91,815.944,1569.518,815.944z"/>
						
							<rect id="XMLID_451_" x="1571.265" y="818.487" fill-rule="evenodd" clip-rule="evenodd" fill="#424242" width="20.772" height="18.535"/>
						
							<rect id="XMLID_452_" x="1572.147" y="819.276" fill-rule="evenodd" clip-rule="evenodd" fill="#FFFFFF" width="19.007" height="16.957"/>
						
							<rect id="XMLID_453_" x="1573.336" y="820.337" fill-rule="evenodd" clip-rule="evenodd" fill="#FFE5B9" width="16.631" height="14.837"/>
					</g>
				</g>
			</g>
		</g>
		<g id="XMLID_454_">
			<g id="XMLID_455_">
				
					<rect id="XMLID_456_" x="685.835" y="798.138" fill-rule="evenodd" clip-rule="evenodd" fill="#424242" width="75.217" height="2.907"/>
				<g id="XMLID_457_">
					
						<rect id="XMLID_458_" x="705.466" y="801.046" fill-rule="evenodd" clip-rule="evenodd" fill="#424242" width="2.907" height="67.266"/>
					
						<rect id="XMLID_459_" x="738.512" y="801.046" fill-rule="evenodd" clip-rule="evenodd" fill="#424242" width="2.907" height="67.266"/>
				</g>
				
					<rect id="XMLID_460_" x="685.835" y="826.3" fill-rule="evenodd" clip-rule="evenodd" fill="#424242" width="75.217" height="2.907"/>
				<g id="XMLID_461_">
					<g id="XMLID_462_">
						<path id="XMLID_463_" fill-rule="evenodd" clip-rule="evenodd" fill="#7D7C7D" d="M678.215,787.783h24.269
							c0.607,0,1.104,0.532,1.104,1.18v21.257c0,0.651-0.497,1.182-1.104,1.182h-24.269c-0.606,0-1.102-0.531-1.102-1.182v-21.257
							C677.113,788.315,677.609,787.783,678.215,787.783z"/>
						
							<rect id="XMLID_464_" x="679.964" y="790.325" fill-rule="evenodd" clip-rule="evenodd" fill="#424242" width="20.772" height="18.535"/>
						
							<rect id="XMLID_465_" x="680.846" y="791.114" fill-rule="evenodd" clip-rule="evenodd" fill="#FFFFFF" width="19.007" height="16.957"/>
						
							<rect id="XMLID_466_" x="682.033" y="792.174" fill-rule="evenodd" clip-rule="evenodd" fill="#FFE5B9" width="16.632" height="14.838"/>
					</g>
					<g id="XMLID_467_">
						<path id="XMLID_468_" fill-rule="evenodd" clip-rule="evenodd" fill="#7D7C7D" d="M678.215,815.944h24.269
							c0.607,0,1.104,0.533,1.104,1.183v21.257c0,0.648-0.497,1.18-1.104,1.18h-24.269c-0.606,0-1.102-0.532-1.102-1.18v-21.257
							C677.113,816.477,677.609,815.944,678.215,815.944z"/>
						
							<rect id="XMLID_469_" x="679.964" y="818.487" fill-rule="evenodd" clip-rule="evenodd" fill="#424242" width="20.772" height="18.535"/>
						
							<rect id="XMLID_470_" x="680.846" y="819.276" fill-rule="evenodd" clip-rule="evenodd" fill="#FFFFFF" width="19.007" height="16.957"/>
						
							<rect id="XMLID_471_" x="682.033" y="820.337" fill-rule="evenodd" clip-rule="evenodd" fill="#FFE5B9" width="16.632" height="14.837"/>
					</g>
					<g id="XMLID_472_">
						<path id="XMLID_473_" fill-rule="evenodd" clip-rule="evenodd" fill="#7D7C7D" d="M711.308,787.783h24.268
							c0.608,0,1.103,0.532,1.103,1.18v21.257c0,0.651-0.495,1.182-1.103,1.182h-24.268c-0.607,0-1.103-0.531-1.103-1.182v-21.257
							C710.205,788.315,710.701,787.783,711.308,787.783z"/>
						
							<rect id="XMLID_474_" x="713.056" y="790.325" fill-rule="evenodd" clip-rule="evenodd" fill="#424242" width="20.772" height="18.535"/>
						
							<rect id="XMLID_475_" x="713.939" y="791.114" fill-rule="evenodd" clip-rule="evenodd" fill="#FFFFFF" width="19.007" height="16.957"/>
						
							<rect id="XMLID_476_" x="715.126" y="792.174" fill-rule="evenodd" clip-rule="evenodd" fill="#FFE5B9" width="16.631" height="14.838"/>
					</g>
					<g id="XMLID_477_">
						<path id="XMLID_478_" fill-rule="evenodd" clip-rule="evenodd" fill="#7D7C7D" d="M711.308,815.944h24.268
							c0.608,0,1.103,0.533,1.103,1.183v21.257c0,0.648-0.495,1.18-1.103,1.18h-24.268c-0.607,0-1.103-0.532-1.103-1.18v-21.257
							C710.205,816.477,710.701,815.944,711.308,815.944z"/>
						
							<rect id="XMLID_479_" x="713.056" y="818.487" fill-rule="evenodd" clip-rule="evenodd" fill="#424242" width="20.772" height="18.535"/>
						
							<rect id="XMLID_480_" x="713.939" y="819.276" fill-rule="evenodd" clip-rule="evenodd" fill="#FFFFFF" width="19.007" height="16.957"/>
						
							<rect id="XMLID_481_" x="715.126" y="820.337" fill-rule="evenodd" clip-rule="evenodd" fill="#FFE5B9" width="16.631" height="14.837"/>
					</g>
					<g id="XMLID_482_">
						<path id="XMLID_483_" fill-rule="evenodd" clip-rule="evenodd" fill="#7D7C7D" d="M744.4,787.783h24.269
							c0.607,0,1.104,0.532,1.104,1.18v21.257c0,0.651-0.497,1.182-1.104,1.182H744.4c-0.606,0-1.102-0.531-1.102-1.182v-21.257
							C743.298,788.315,743.794,787.783,744.4,787.783z"/>
						
							<rect id="XMLID_484_" x="746.149" y="790.325" fill-rule="evenodd" clip-rule="evenodd" fill="#424242" width="20.772" height="18.535"/>
						
							<rect id="XMLID_485_" x="747.033" y="791.114" fill-rule="evenodd" clip-rule="evenodd" fill="#FFFFFF" width="19.006" height="16.957"/>
						
							<rect id="XMLID_486_" x="748.219" y="792.174" fill-rule="evenodd" clip-rule="evenodd" fill="#FFE5B9" width="16.631" height="14.838"/>
					</g>
					<g id="XMLID_487_">
						<path id="XMLID_488_" fill-rule="evenodd" clip-rule="evenodd" fill="#7D7C7D" d="M744.4,815.944h24.269
							c0.607,0,1.104,0.533,1.104,1.183v21.257c0,0.648-0.497,1.18-1.104,1.18H744.4c-0.606,0-1.102-0.532-1.102-1.18v-21.257
							C743.298,816.477,743.794,815.944,744.4,815.944z"/>
						
							<rect id="XMLID_489_" x="746.149" y="818.487" fill-rule="evenodd" clip-rule="evenodd" fill="#424242" width="20.772" height="18.535"/>
						
							<rect id="XMLID_490_" x="747.033" y="819.276" fill-rule="evenodd" clip-rule="evenodd" fill="#FFFFFF" width="19.006" height="16.957"/>
						
							<rect id="XMLID_491_" x="748.219" y="820.337" fill-rule="evenodd" clip-rule="evenodd" fill="#FFE5B9" width="16.631" height="14.837"/>
					</g>
				</g>
			</g>
			<g id="XMLID_492_">
				
					<rect id="XMLID_493_" x="816.338" y="798.138" fill-rule="evenodd" clip-rule="evenodd" fill="#424242" width="75.217" height="2.907"/>
				<g id="XMLID_494_">
					
						<rect id="XMLID_495_" x="835.969" y="801.046" fill-rule="evenodd" clip-rule="evenodd" fill="#424242" width="2.907" height="67.266"/>
					
						<rect id="XMLID_496_" x="869.015" y="801.046" fill-rule="evenodd" clip-rule="evenodd" fill="#424242" width="2.907" height="67.266"/>
				</g>
				
					<rect id="XMLID_497_" x="816.338" y="826.3" fill-rule="evenodd" clip-rule="evenodd" fill="#424242" width="75.217" height="2.907"/>
				<g id="XMLID_498_">
					<g id="XMLID_499_">
						<path id="XMLID_500_" fill-rule="evenodd" clip-rule="evenodd" fill="#7D7C7D" d="M808.717,787.783h24.269
							c0.607,0,1.103,0.532,1.103,1.18v21.257c0,0.651-0.496,1.182-1.103,1.182h-24.269c-0.606,0-1.102-0.531-1.102-1.182v-21.257
							C807.615,788.315,808.111,787.783,808.717,787.783z"/>
						
							<rect id="XMLID_501_" x="810.466" y="790.325" fill-rule="evenodd" clip-rule="evenodd" fill="#424242" width="20.772" height="18.535"/>
						
							<rect id="XMLID_502_" x="811.349" y="791.114" fill-rule="evenodd" clip-rule="evenodd" fill="#FFFFFF" width="19.006" height="16.957"/>
						
							<rect id="XMLID_503_" x="812.536" y="792.174" fill-rule="evenodd" clip-rule="evenodd" fill="#FFE5B9" width="16.632" height="14.838"/>
					</g>
					<g id="XMLID_504_">
						<path id="XMLID_505_" fill-rule="evenodd" clip-rule="evenodd" fill="#7D7C7D" d="M808.717,815.944h24.269
							c0.607,0,1.103,0.533,1.103,1.183v21.257c0,0.648-0.496,1.18-1.103,1.18h-24.269c-0.606,0-1.102-0.532-1.102-1.18v-21.257
							C807.615,816.477,808.111,815.944,808.717,815.944z"/>
						
							<rect id="XMLID_506_" x="810.466" y="818.487" fill-rule="evenodd" clip-rule="evenodd" fill="#424242" width="20.772" height="18.535"/>
						
							<rect id="XMLID_507_" x="811.349" y="819.276" fill-rule="evenodd" clip-rule="evenodd" fill="#FFFFFF" width="19.006" height="16.957"/>
						
							<rect id="XMLID_508_" x="812.536" y="820.337" fill-rule="evenodd" clip-rule="evenodd" fill="#FFE5B9" width="16.632" height="14.837"/>
					</g>
					<g id="XMLID_509_">
						<path id="XMLID_510_" fill-rule="evenodd" clip-rule="evenodd" fill="#7D7C7D" d="M841.811,787.783h24.269
							c0.607,0,1.102,0.532,1.102,1.18v21.257c0,0.651-0.495,1.182-1.102,1.182h-24.269c-0.607,0-1.104-0.531-1.104-1.182v-21.257
							C840.707,788.315,841.204,787.783,841.811,787.783z"/>
						
							<rect id="XMLID_511_" x="843.559" y="790.325" fill-rule="evenodd" clip-rule="evenodd" fill="#424242" width="20.772" height="18.535"/>
						
							<rect id="XMLID_512_" x="844.44" y="791.114" fill-rule="evenodd" clip-rule="evenodd" fill="#FFFFFF" width="19.008" height="16.957"/>
						
							<rect id="XMLID_513_" x="845.629" y="792.174" fill-rule="evenodd" clip-rule="evenodd" fill="#FFE5B9" width="16.632" height="14.838"/>
					</g>
					<g id="XMLID_514_">
						<path id="XMLID_515_" fill-rule="evenodd" clip-rule="evenodd" fill="#7D7C7D" d="M841.811,815.944h24.269
							c0.607,0,1.102,0.533,1.102,1.183v21.257c0,0.648-0.495,1.18-1.102,1.18h-24.269c-0.607,0-1.104-0.532-1.104-1.18v-21.257
							C840.707,816.477,841.204,815.944,841.811,815.944z"/>
						
							<rect id="XMLID_516_" x="843.559" y="818.487" fill-rule="evenodd" clip-rule="evenodd" fill="#424242" width="20.772" height="18.535"/>
						
							<rect id="XMLID_517_" x="844.44" y="819.276" fill-rule="evenodd" clip-rule="evenodd" fill="#FFFFFF" width="19.008" height="16.957"/>
						
							<rect id="XMLID_518_" x="845.629" y="820.337" fill-rule="evenodd" clip-rule="evenodd" fill="#FFE5B9" width="16.632" height="14.837"/>
					</g>
					<g id="XMLID_519_">
						<path id="XMLID_520_" fill-rule="evenodd" clip-rule="evenodd" fill="#7D7C7D" d="M874.903,787.783h24.269
							c0.607,0,1.103,0.532,1.103,1.18v21.257c0,0.651-0.496,1.182-1.103,1.182h-24.269c-0.607,0-1.103-0.531-1.103-1.182v-21.257
							C873.801,788.315,874.296,787.783,874.903,787.783z"/>
						
							<rect id="XMLID_521_" x="876.652" y="790.325" fill-rule="evenodd" clip-rule="evenodd" fill="#424242" width="20.772" height="18.535"/>
						
							<rect id="XMLID_522_" x="877.534" y="791.114" fill-rule="evenodd" clip-rule="evenodd" fill="#FFFFFF" width="19.007" height="16.957"/>
						
							<rect id="XMLID_523_" x="878.722" y="792.174" fill-rule="evenodd" clip-rule="evenodd" fill="#FFE5B9" width="16.631" height="14.838"/>
					</g>
					<g id="XMLID_524_">
						<path id="XMLID_525_" fill-rule="evenodd" clip-rule="evenodd" fill="#7D7C7D" d="M874.903,815.944h24.269
							c0.607,0,1.103,0.533,1.103,1.183v21.257c0,0.648-0.496,1.18-1.103,1.18h-24.269c-0.607,0-1.103-0.532-1.103-1.18v-21.257
							C873.801,816.477,874.296,815.944,874.903,815.944z"/>
						
							<rect id="XMLID_526_" x="876.652" y="818.487" fill-rule="evenodd" clip-rule="evenodd" fill="#424242" width="20.772" height="18.535"/>
						
							<rect id="XMLID_527_" x="877.534" y="819.276" fill-rule="evenodd" clip-rule="evenodd" fill="#FFFFFF" width="19.007" height="16.957"/>
						
							<rect id="XMLID_528_" x="878.722" y="820.337" fill-rule="evenodd" clip-rule="evenodd" fill="#FFE5B9" width="16.631" height="14.837"/>
					</g>
				</g>
			</g>
			<g id="XMLID_529_">
				
					<rect id="XMLID_530_" x="946.84" y="798.138" fill-rule="evenodd" clip-rule="evenodd" fill="#424242" width="75.217" height="2.907"/>
				<g id="XMLID_531_">
					
						<rect id="XMLID_532_" x="966.471" y="801.046" fill-rule="evenodd" clip-rule="evenodd" fill="#424242" width="2.907" height="67.266"/>
					
						<rect id="XMLID_533_" x="999.517" y="801.046" fill-rule="evenodd" clip-rule="evenodd" fill="#424242" width="2.907" height="67.266"/>
				</g>
				
					<rect id="XMLID_534_" x="946.84" y="826.3" fill-rule="evenodd" clip-rule="evenodd" fill="#424242" width="75.217" height="2.907"/>
				<g id="XMLID_535_">
					<g id="XMLID_536_">
						<path id="XMLID_537_" fill-rule="evenodd" clip-rule="evenodd" fill="#7D7C7D" d="M939.221,787.783h24.269
							c0.607,0,1.103,0.532,1.103,1.18v21.257c0,0.651-0.496,1.182-1.103,1.182h-24.269c-0.607,0-1.103-0.531-1.103-1.182v-21.257
							C938.118,788.315,938.614,787.783,939.221,787.783z"/>
						
							<rect id="XMLID_538_" x="940.969" y="790.325" fill-rule="evenodd" clip-rule="evenodd" fill="#424242" width="20.772" height="18.535"/>
						
							<rect id="XMLID_539_" x="941.851" y="791.114" fill-rule="evenodd" clip-rule="evenodd" fill="#FFFFFF" width="19.006" height="16.957"/>
						
							<rect id="XMLID_540_" x="943.039" y="792.174" fill-rule="evenodd" clip-rule="evenodd" fill="#FFE5B9" width="16.632" height="14.838"/>
					</g>
					<g id="XMLID_541_">
						<path id="XMLID_542_" fill-rule="evenodd" clip-rule="evenodd" fill="#7D7C7D" d="M939.221,815.944h24.269
							c0.607,0,1.103,0.533,1.103,1.183v21.257c0,0.648-0.496,1.18-1.103,1.18h-24.269c-0.607,0-1.103-0.532-1.103-1.18v-21.257
							C938.118,816.477,938.614,815.944,939.221,815.944z"/>
						
							<rect id="XMLID_543_" x="940.969" y="818.487" fill-rule="evenodd" clip-rule="evenodd" fill="#424242" width="20.772" height="18.535"/>
						
							<rect id="XMLID_544_" x="941.851" y="819.276" fill-rule="evenodd" clip-rule="evenodd" fill="#FFFFFF" width="19.006" height="16.957"/>
						
							<rect id="XMLID_545_" x="943.039" y="820.337" fill-rule="evenodd" clip-rule="evenodd" fill="#FFE5B9" width="16.632" height="14.837"/>
					</g>
					<g id="XMLID_546_">
						<path id="XMLID_547_" fill-rule="evenodd" clip-rule="evenodd" fill="#7D7C7D" d="M972.314,787.783h24.268
							c0.607,0,1.102,0.532,1.102,1.18v21.257c0,0.651-0.495,1.182-1.102,1.182h-24.268c-0.608,0-1.104-0.531-1.104-1.182v-21.257
							C971.21,788.315,971.706,787.783,972.314,787.783z"/>
						
							<rect id="XMLID_548_" x="974.061" y="790.325" fill-rule="evenodd" clip-rule="evenodd" fill="#424242" width="20.772" height="18.535"/>
						
							<rect id="XMLID_549_" x="974.943" y="791.114" fill-rule="evenodd" clip-rule="evenodd" fill="#FFFFFF" width="19.007" height="16.957"/>
						
							<rect id="XMLID_550_" x="976.132" y="792.174" fill-rule="evenodd" clip-rule="evenodd" fill="#FFE5B9" width="16.631" height="14.838"/>
					</g>
					<g id="XMLID_551_">
						<path id="XMLID_552_" fill-rule="evenodd" clip-rule="evenodd" fill="#7D7C7D" d="M972.314,815.944h24.268
							c0.607,0,1.102,0.533,1.102,1.183v21.257c0,0.648-0.495,1.18-1.102,1.18h-24.268c-0.608,0-1.104-0.532-1.104-1.18v-21.257
							C971.21,816.477,971.706,815.944,972.314,815.944z"/>
						
							<rect id="XMLID_553_" x="974.061" y="818.487" fill-rule="evenodd" clip-rule="evenodd" fill="#424242" width="20.772" height="18.535"/>
						
							<rect id="XMLID_554_" x="974.943" y="819.276" fill-rule="evenodd" clip-rule="evenodd" fill="#FFFFFF" width="19.007" height="16.957"/>
						
							<rect id="XMLID_555_" x="976.132" y="820.337" fill-rule="evenodd" clip-rule="evenodd" fill="#FFE5B9" width="16.631" height="14.837"/>
					</g>
					<g id="XMLID_556_">
						<path id="XMLID_557_" fill-rule="evenodd" clip-rule="evenodd" fill="#7D7C7D" d="M1005.406,787.783h24.268
							c0.607,0,1.103,0.532,1.103,1.18v21.257c0,0.651-0.496,1.182-1.103,1.182h-24.268c-0.607,0-1.103-0.531-1.103-1.182v-21.257
							C1004.303,788.315,1004.799,787.783,1005.406,787.783z"/>
						
							<rect id="XMLID_558_" x="1007.154" y="790.325" fill-rule="evenodd" clip-rule="evenodd" fill="#424242" width="20.771" height="18.535"/>
						
							<rect id="XMLID_559_" x="1008.037" y="791.114" fill-rule="evenodd" clip-rule="evenodd" fill="#FFFFFF" width="19.007" height="16.957"/>
						
							<rect id="XMLID_560_" x="1009.225" y="792.174" fill-rule="evenodd" clip-rule="evenodd" fill="#FFE5B9" width="16.631" height="14.838"/>
					</g>
					<g id="XMLID_561_">
						<path id="XMLID_562_" fill-rule="evenodd" clip-rule="evenodd" fill="#7D7C7D" d="M1005.406,815.944h24.268
							c0.607,0,1.103,0.533,1.103,1.183v21.257c0,0.648-0.496,1.18-1.103,1.18h-24.268c-0.607,0-1.103-0.532-1.103-1.18v-21.257
							C1004.303,816.477,1004.799,815.944,1005.406,815.944z"/>
						
							<rect id="XMLID_563_" x="1007.154" y="818.487" fill-rule="evenodd" clip-rule="evenodd" fill="#424242" width="20.771" height="18.535"/>
						
							<rect id="XMLID_564_" x="1008.037" y="819.276" fill-rule="evenodd" clip-rule="evenodd" fill="#FFFFFF" width="19.007" height="16.957"/>
						
							<rect id="XMLID_565_" x="1009.225" y="820.337" fill-rule="evenodd" clip-rule="evenodd" fill="#FFE5B9" width="16.631" height="14.837"/>
					</g>
				</g>
			</g>
		</g>
	</g>
</g>
</svg>
