<?xml version="1.0" encoding="UTF-8"?>
<!DOCTYPE svg PUBLIC "-//W3C//DTD SVG 1.1//EN" "http://www.w3.org/Graphics/SVG/1.1/DTD/svg11.dtd">
<!-- Creator: CorelDRAW X5 -->
<svg xmlns="http://www.w3.org/2000/svg" xml:space="preserve" width="80mm" height="30mm" style="shape-rendering:geometricPrecision; text-rendering:geometricPrecision; image-rendering:optimizeQuality; fill-rule:evenodd; clip-rule:evenodd"
viewBox="0 0 13547 4953"
 xmlns:xlink="http://www.w3.org/1999/xlink"
 xmlns:svg="http://www.w3.org/2000/svg">
 <defs>
  <style type="text/css">
   <![CDATA[
    .fil0 {fill:#13264F;fill-rule:nonzero}
    .fil1 {fill:#CD1141;fill-rule:nonzero}
    .fil2 {fill:#E9AA00;fill-rule:nonzero}
   ]]>
  </style>
 </defs>
 <g id="Layer_x0020_1">
  <metadata id="CorelCorpID_0Corel-Layer"/>
  <path class="fil0" d="M1813 1c-508,12 -810,281 -975,506 -226,307 -296,661 -249,853l25 101 103 37c63,20 130,5 180,-41 150,-121 241,-155 263,-157l22 -2c-257,347 -413,780 -563,1200 -157,440 -306,855 -544,1077l-74 70 18 102c20,114 35,359 24,605 -2,86 37,155 102,191 65,35 142,28 204,-19 403,-301 675,-1126 915,-1853 100,-301 195,-588 283,-786 -11,53 -12,107 1,162 56,215 236,327 447,285 0,0 20,-9 43,-20 65,100 100,243 100,401 0,123 -21,255 -64,378 -56,160 -234,532 -666,522 -94,-3 -191,-44 -210,-54 -110,-65 -211,-18 -256,55 -47,75 -43,188 55,263 -10,-9 6,5 6,5 94,84 315,284 753,267 366,-16 709,-274 896,-662 0,5 -2,10 -2,15 0,57 27,99 40,116 48,64 150,109 276,31 71,-44 165,-107 268,-201 174,-160 345,-379 539,-692 9,-15 108,-175 204,-376 21,0 43,-1 65,-2 -48,142 -99,313 -99,476 0,182 63,349 264,440 225,102 593,17 940,-356 82,108 195,179 336,193 140,5 290,-64 403,-145 84,60 198,118 351,102 224,-24 446,-197 680,-531l138 -210c138,-217 344,-538 505,-707 -12,31 -25,66 -52,110 -135,228 -263,464 -263,668 0,48 7,94 23,137 36,100 114,175 219,210 432,143 889,-227 1238,-989 44,-12 87,-27 130,-45 -50,108 -82,209 -82,298 0,150 61,271 146,353 215,209 593,197 875,-7 121,69 262,111 412,112 325,5 612,-143 786,-407 172,-261 203,-597 83,-898l0 0c-43,-107 -166,-416 24,-680 73,-88 39,-183 27,-210 -12,-27 -62,-114 -187,-112l-7 0 -7 0c-386,38 -600,490 -826,967 -23,49 -51,102 -78,153 -10,-2 -21,-6 -31,-7 -37,-4 -73,0 -108,4 -1,-6 -1,-12 -3,-18 -8,-23 -26,-41 -42,-59 31,-8 70,-18 70,-18 106,-28 145,-137 157,-184 8,-31 12,-62 12,-93 0,-71 -20,-140 -60,-199 -63,-95 -166,-158 -284,-174 -226,-30 -472,160 -572,419 -81,93 -174,159 -264,203 -23,-185 -137,-318 -306,-348 -183,-32 -371,68 -447,239 -3,7 -4,14 -7,22 -37,-63 -87,-116 -153,-142 -486,-195 -856,393 -1182,910 -130,207 -253,402 -371,535 -10,12 -15,13 -22,21 3,-34 11,-75 35,-127 3,-6 446,-1057 446,-1057l-612 61c0,0 -7,18 -12,30 -56,-28 -116,-52 -187,-60 -546,-70 -883,416 -1016,894 -8,25 -55,120 -99,199 -177,316 -329,403 -389,409 -5,-17 -9,-34 -9,-61 0,-168 82,-508 174,-734 14,-39 20,-74 20,-104 0,-80 -40,-128 -62,-148 -47,-44 -130,-73 -223,-25 -104,62 -208,99 -305,121 1,-15 5,-32 5,-47 0,-42 -5,-81 -18,-114 -58,-157 -175,-260 -320,-283 -146,-23 -295,39 -390,162 -62,82 -94,178 -94,280 0,64 13,130 38,196 24,62 67,120 117,174 -56,115 -119,239 -183,350 -186,329 -358,564 -592,811 -10,10 -17,20 -24,30 6,-18 13,-35 19,-52 49,-148 73,-298 73,-445 0,-308 -109,-602 -308,-844 307,-243 493,-594 493,-962 0,-73 -9,-146 -23,-219 45,-14 89,-29 138,-44 171,-44 157,-197 155,-214 -3,-18 -27,-169 -208,-166 -90,2 -177,7 -263,16 -180,-244 -492,-435 -966,-433l0 0zm-44 589l0 0c20,-1 41,0 63,1 41,2 105,15 174,44 -260,117 -487,283 -679,491l-1 -22c-2,-41 -8,-258 121,-394 73,-76 181,-116 323,-120l0 0zm10098 171l0 0 -169 263c-94,144 -105,284 -113,377 0,0 -4,37 -5,52 -8,8 -21,21 -21,21l-80 87 -9 12c-114,142 -133,262 -133,551l-1 27c-8,10 -18,23 -18,23 -95,123 -99,271 -102,380 0,0 -4,88 -5,89 -276,40 -5740,828 -5863,845 -350,47 -512,325 -487,561 45,409 333,531 588,508 161,-13 4131,-606 5541,-817 -11,56 -20,115 -20,178 0,77 13,160 42,244 -22,51 -40,108 -48,173 -5,38 -7,74 -7,107 0,227 96,353 184,420 139,107 324,115 548,36 232,43 488,19 718,-69 216,41 437,-87 546,-153 0,0 3,-2 3,-2l10 0 151 -4 25 -5c99,-19 285,-54 369,-242 25,-55 33,-109 33,-160 0,-130 -61,-239 -86,-283 1,-9 1,-17 1,-27 0,-36 -3,-82 -14,-133 -30,-142 -107,-246 -162,-321l-44 -64 -20 -48c-8,-21 -17,-46 -29,-73 120,-99 169,-209 188,-283 41,-159 -4,-324 -121,-441 -116,-115 -289,-168 -484,-154 -6,-253 -123,-396 -188,-470 -1,-13 -1,-26 -1,-26 -1,-148 -3,-421 -223,-641 -47,-48 -53,-62 -72,-110 0,0 -22,-53 -29,-67 -12,-30 -44,-98 -149,-176l-248 -185 0 0zm-2183 273l0 0c5,55 30,95 45,112l0 0c0,0 11,12 17,18 -38,-10 -77,-17 -127,-1 -2,0 -4,-1 -6,-2 0,-2 -1,-4 -1,-7 0,-41 22,-82 50,-105 10,-8 16,-12 23,-16zm-7366 68l0 0c-1,98 -26,310 -193,517l-2 2c-6,8 -14,14 -21,21 -149,-74 -307,-66 -425,29 -12,10 -23,20 -33,31 2,-3 5,-7 6,-10l36 -50c113,-157 246,-341 632,-540l0 0zm8270 165l0 0c7,36 15,71 15,114 0,16 -1,33 -2,51 -14,303 -193,405 -357,438 112,-171 207,-349 292,-508 17,-31 35,-64 52,-95l0 0zm-2455 293l0 0c5,10 6,21 11,30 22,40 56,67 87,96 -135,246 -265,404 -345,456 28,-101 105,-264 153,-364l65 -137c14,-30 19,-53 29,-81l0 0zm1333 184l0 0c-5,29 -18,56 -18,84 0,60 11,118 30,175 -40,14 -79,20 -98,3 -13,-11 -18,-29 -18,-52 0,-31 12,-71 35,-116 16,-33 41,-64 70,-94l0 0zm-3516 46l0 0c11,0 13,3 14,4 6,9 12,30 12,65 0,48 -12,121 -51,223 -140,364 -237,430 -264,441 -7,4 -13,7 -32,-2 -10,-4 -37,-73 -8,-221 57,-281 239,-510 328,-510z"/>
  <path class="fil1" d="M1814 187c-836,18 -1115,871 -1051,1127 1,5 8,11 14,5 156,-127 287,-196 369,-203 -13,-226 65,-738 694,-709 141,6 382,84 531,291 -348,98 -721,292 -1020,676 -537,691 -636,1855 -1156,2340 24,140 38,402 27,646 -1,27 14,19 22,13 587,-440 927,-2334 1264,-2793 151,-206 303,-466 939,-741 22,55 39,116 48,184 15,126 -7,438 -232,716 -51,66 -140,121 -166,116 -33,-27 -29,-18 -65,-43 -195,-104 -342,49 -309,193 25,96 104,171 239,145 41,-8 110,-70 124,-59 466,386 231,1727 -681,1708 -138,-4 -271,-63 -293,-77 -22,-13 -23,-6 -8,4 74,65 250,254 646,238 738,-32 1267,-1266 464,-1966 513,-278 693,-846 521,-1273 95,-33 196,-68 308,-103 26,-6 46,-16 0,-16 -104,2 -224,9 -352,27 -144,-259 -435,-445 -878,-444l0 0zm9128 176l0 0c-281,27 -463,401 -682,864 -46,96 -99,198 -156,300 -78,-66 -333,-117 -440,138 -62,148 -35,289 48,401 -22,22 -44,43 -66,60 -259,210 -599,-9 -407,-377 94,-180 326,-321 415,-356 43,-18 90,-78 19,-54 -85,30 -206,-18 -231,-106 -36,-128 21,-258 105,-328 213,-178 338,-6 315,96 -12,38 15,10 26,-34 31,-121 -62,-219 -180,-235 -157,-20 -349,146 -404,349 -182,212 -433,330 -632,350 32,-96 51,-180 47,-225 -23,-270 -333,-250 -414,-67 -79,177 -54,444 170,477 -168,349 -453,786 -668,737 -256,-58 -16,-465 136,-793 120,-260 70,-408 -27,-447 -503,-201 -936,924 -1355,1398 -268,302 -430,7 -283,-311l321 -763 -199 20 -64 166c-26,-67 -128,-166 -283,-186 -435,-56 -710,361 -821,761 -15,55 -93,198 -116,240 -228,406 -476,565 -642,483 -216,-104 16,-835 96,-1034 14,-39 6,-53 -19,-39 -188,113 -427,179 -617,169 48,-133 74,-249 51,-309 -123,-333 -565,-124 -431,219 28,75 88,146 173,196 -74,162 -169,348 -251,492 -215,379 -400,616 -619,847 -54,57 -7,39 18,23 76,-47 155,-102 241,-180 164,-152 329,-367 507,-654 68,-110 167,-294 246,-473 72,16 153,20 245,4 51,-9 148,-52 186,-70 10,-4 13,9 13,9 -19,185 -395,835 -33,999 202,92 584,-44 918,-534 24,194 119,338 302,356 136,4 327,-119 385,-199 109,100 381,421 886,-298 122,-173 434,-711 674,-955 252,-256 444,-29 216,354 -165,279 -371,657 -119,741 415,138 816,-413 1057,-972 272,-42 600,-293 689,-385 7,64 42,151 101,180 -115,86 -237,180 -306,269 -417,592 247,865 651,518 18,-15 35,-32 52,-48 106,91 256,149 422,151 560,9 903,-536 699,-1050l0 0c-43,-109 -208,-506 46,-860 15,-18 14,-27 -13,-26l0 0zm-282 470l0 0c-12,118 146,296 122,614 -22,475 -373,595 -558,620 -119,15 -230,-2 -319,-41 358,-419 579,-1042 755,-1193l0 0zm1245 110l0 0 -99 155c-75,116 -85,232 -91,316l-11 84c-6,24 -18,37 -55,73l-68 75 -10 13c-80,100 -103,174 -103,467 0,64 -6,80 -6,81 -1,0 -17,22 -17,22l-23 29c-69,88 -71,201 -74,301l-6 107c-7,48 -16,78 -26,98 -125,18 -5893,850 -5947,857 -302,41 -391,276 -375,416 42,385 329,401 450,391 165,-14 4621,-679 5728,-845 -33,97 -69,211 -69,337 0,81 15,166 56,255 -30,57 -54,113 -62,179 -3,32 -6,62 -6,89 0,174 69,267 133,316 153,118 360,53 470,7 224,47 472,18 696,-72 182,67 394,-61 504,-129l25 -14c12,-7 21,-8 64,-5l117 -3 26 -5c93,-17 220,-41 275,-166 16,-35 22,-71 22,-105 0,-82 -37,-160 -70,-217l0 0 -10 -17c0,0 -4,-6 -9,-10 0,-2 0,-6 0,-6 1,-16 3,-37 3,-60 0,-29 -3,-64 -11,-105 -24,-113 -88,-200 -140,-270l-53 -78 -29 -68c-16,-44 -36,-100 -79,-161 161,-91 216,-205 235,-276 29,-112 -3,-229 -87,-311 -103,-102 -267,-140 -455,-109 -8,-12 -17,-23 -25,-35 0,0 -34,-50 -42,-62 1,-8 1,-18 1,-26 0,-221 -102,-337 -164,-407 0,0 -18,-21 -24,-29 -1,-17 -3,-76 -3,-76 -1,-137 -3,-366 -183,-548 -67,-67 -80,-100 -101,-155l-30 -70c-7,-15 -24,-52 -100,-113l-142 -115 0 0zm-3383 180l0 0c8,1 16,3 24,6 83,32 83,121 10,306 -32,-3 -62,-10 -87,-20 -132,-55 -66,-303 52,-292l0 0zm1355 466l0 0c59,1 112,51 135,93 -66,104 -135,201 -205,285 -82,-70 -115,-166 -66,-267l0 0c40,-83 89,-111 135,-110zm-3925 18l0 0c160,0 288,167 143,546 -152,397 -322,636 -534,541 -328,-146 26,-1087 392,-1087l0 0zm-2190 51l0 0c52,1 99,38 96,128 -1,31 -28,108 -71,208 -58,-21 -105,-54 -134,-102 -81,-133 22,-235 109,-233z"/>
  <path class="fil0" d="M13228 4121c-42,-45 -40,-71 -37,-117 3,-31 6,-70 -5,-122 -17,-82 -67,-149 -114,-213l-63 -94 -39 -88c-20,-56 -41,-114 -108,-183 -6,-6 -11,-12 -16,-18l-57 -71c183,-53 304,-145 332,-253 16,-62 -2,-124 -48,-170 -67,-66 -213,-111 -426,-50 0,0 -1,-2 -1,-3 -17,-35 -42,-71 -68,-108 -3,-4 -6,-7 -9,-12 -14,-21 -34,-52 -48,-75 -8,-17 -14,-32 -13,-44 14,-195 -67,-287 -126,-353 -26,-30 -49,-55 -55,-82 -8,-29 -8,-71 -9,-120 -1,-129 -2,-305 -140,-445 -88,-87 -109,-141 -134,-203l-26 -62c-9,-24 -46,-52 -61,-64l-21 -16 -15 23c-55,85 -62,171 -69,247l-14 107c-17,66 -55,104 -95,144l-55 59 -12 14c-51,64 -71,101 -71,375 0,128 -21,153 -57,197l-21 26c-39,50 -41,129 -43,212l-8 126c-2,16 -5,31 -8,45l-15 59c0,0 0,1 0,1l0 0c-16,52 -37,82 -61,103 -3,2 -5,4 -8,5 -16,3 -176,26 -436,63l-43 5c-1,0 -1,1 -1,1 -163,23 -362,52 -585,85 0,0 -1,0 -1,0l-117 17c-1255,182 -3187,460 -4180,603 -2,0 -4,-1 -6,-1l-128 21 -504 72c-202,27 -263,171 -254,256 8,70 31,286 298,263 28,-3 188,-25 437,-60 1,0 2,0 4,0l133 -21c863,-125 2520,-372 3771,-558l12 -1 67 -10c513,-78 952,-143 1230,-184 2,0 4,0 6,0l193 -30c1,0 1,0 1,0 31,-5 56,-9 75,-11 -6,63 -26,130 -50,203 -33,96 -67,199 -67,308 0,81 22,165 74,252 -2,6 -7,17 -7,17 -48,78 -68,127 -75,185 -3,25 -5,50 -5,72 0,93 25,159 76,198 74,57 199,48 369,-27 229,60 498,30 725,-79 121,83 315,-32 421,-96l26 -16c52,-31 99,-27 144,-23l80 -1 27 -5c77,-14 148,-28 174,-85 20,-44 6,-104 -41,-189l0 0zm-7377 49l0 0c-244,36 -400,58 -427,60 -193,17 -231,-106 -243,-216 -1,-3 -1,-7 -1,-11 0,-52 36,-163 210,-186l414 -60c34,25 63,89 76,168 16,98 4,195 -29,245l0 0zm3710 -548l0 0c-1162,173 -2603,387 -3442,509 30,-75 31,-175 18,-249 -11,-68 -33,-125 -62,-164l3441 -497c26,109 48,231 45,401l0 0zm239 -210l0 0c-8,-85 -23,-158 -40,-226l225 -32 -186 258 0 0zm196 144l0 0 151 -213c6,56 10,119 8,189 -52,8 -105,16 -159,24l0 0zm404 -61l0 0c1,-69 -2,-131 -9,-188l173 164c-53,8 -108,16 -165,24l0 0zm304 -244l0 0c-26,-23 -131,-121 -190,-175l342 -50c-47,70 -132,195 -152,224l0 0zm354 146l0 0c-59,8 -125,18 -197,29l184 -247c9,62 14,132 12,217zm1980 -568l0 0c24,24 38,54 38,86 0,10 -1,20 -4,32 -24,91 -140,171 -312,219 -15,-20 -28,-48 -40,-77 -5,-12 -10,-24 -13,-36 0,-1 -1,-2 -2,-3 -10,-30 -18,-56 -23,-73 -7,-31 -12,-59 -14,-85 -2,-23 -2,-45 -2,-62 0,0 -1,-8 -3,-18l0 -11c0,-1 0,-2 0,-2l0 -2c0,-2 -1,-4 -1,-6 191,-55 320,-18 376,38zm-418 102l0 0c2,16 5,33 10,50 0,0 0,0 1,1l0 2 0 2c4,16 9,34 14,51 -32,0 -63,-7 -91,-19 22,-28 45,-57 67,-87zm-64 -240l0 0c-53,76 -116,155 -189,234 -58,-31 -152,-105 -215,-165 22,-3 43,-7 64,-9l340 -60zm-92 529l0 0c-30,0 -59,-1 -84,-4 7,-7 15,-14 22,-22 20,10 40,19 61,26zm-774 -202l0 0c-5,-48 -16,-93 -33,-126 -4,-9 -9,-15 -14,-23 73,-24 150,-44 229,-60 100,102 244,215 329,272 -25,20 -51,39 -77,58l-65 -22c-105,-37 -247,-85 -369,-100l0 0zm160 270l0 0c-77,30 -159,54 -247,69 27,-45 47,-89 62,-132 45,7 89,24 132,42 17,7 35,14 53,21l0 0zm-314 -726l0 0c2,-75 3,-145 32,-182l20 -24c46,-56 69,-91 69,-232 0,-267 20,-292 60,-341l12 -16 50 -54c42,-41 90,-87 109,-169l15 -114c6,-65 16,-130 49,-196 10,9 17,17 19,22 1,1 25,60 25,60 26,64 50,126 145,222 124,123 125,281 126,407 1,52 1,98 10,133 10,39 38,70 67,104 51,58 114,129 114,274 0,12 0,26 -1,39 0,2 0,4 0,7l-238 41c60,-144 18,-324 -43,-444 -6,-12 -22,-18 -35,-11 -12,6 -17,23 -11,35 59,118 100,298 26,429l-43 7c-201,30 -407,61 -586,120l8 -119 -1 0zm-192 794l0 0c-11,2 -25,4 -42,6 3,-159 -19,-274 -47,-391l112 -16c2,0 3,2 5,2 30,0 50,13 62,39 36,79 -8,251 -91,360l0 0zm1878 932l0 0c-15,32 -73,44 -136,55l-27 5 -66 0c-49,-4 -109,-9 -174,30l-27 16c-92,56 -284,173 -376,94l-13 -11 -15 8c-83,41 -381,169 -711,78l-9 -2 -8 4c-154,69 -267,82 -326,36 -47,-37 -64,-110 -51,-221 6,-48 24,-92 67,-162l21 -58 -8 -5c-121,-188 -64,-360 -8,-526 360,-16 611,-95 819,-238 214,55 493,46 678,-20 38,48 55,91 71,135l42 97 67 99c44,60 89,122 105,193 5,23 6,43 6,62 0,16 -1,30 -2,45 -1,12 -2,24 -2,37 0,36 8,73 50,116 25,47 39,85 39,112 0,9 -1,16 -4,23l0 0z"/>
  <path class="fil0" d="M11868 2140c6,14 0,29 -13,35 -52,26 -96,87 -109,154 -13,65 4,127 46,177 10,11 9,28 -1,37 -11,9 -27,9 -37,-2 -54,-63 -75,-141 -59,-223 16,-83 71,-159 138,-191 13,-6 28,0 34,12l0 0zm817 1316l0 0c14,1 25,12 24,27 -2,33 39,66 87,105 84,68 199,162 151,333 -4,14 -18,23 -32,18 -14,-4 -22,-19 -18,-32 39,-137 -49,-209 -133,-277 -57,-46 -110,-89 -107,-150 1,-14 13,-26 27,-24l0 0zm268 575l0 0c-8,35 -19,43 -28,45l-53 -1 -58 -3c-36,4 -72,20 -100,42l-90 72 -21 9c-38,9 -75,5 -114,-9 -13,-5 -28,2 -33,15 -5,14 2,29 15,34 48,18 95,22 142,11l41 -18 90 -71c20,-17 48,-28 74,-31l45 2 76 -1c48,-14 59,-66 63,-84 3,-14 -5,-28 -19,-32 -14,-3 -28,6 -31,20l0 0zm-728 -474l0 0c56,91 60,207 12,319 -10,24 0,48 37,89 0,0 13,12 11,23 -3,12 -3,22 -15,23 -8,1 -22,1 -33,-9 -25,-26 -76,-82 -48,-146 41,-97 39,-194 -8,-270 -7,-12 -4,-29 8,-36 12,-8 28,-4 35,8l0 0zm-533 82l0 0c50,50 33,125 -9,173l-63 54c-56,42 -90,71 -75,124 4,14 -4,28 -18,32 -13,4 -28,-3 -32,-18 -25,-91 41,-141 94,-181l56 -48c14,-16 44,-66 11,-100 -10,-10 -10,-27 0,-37 10,-11 26,-11 36,0l0 0zm-123 608l0 0c23,62 86,97 143,81l73 -34 76 -34c30,-11 58,-1 82,7 20,6 36,12 50,7l21 -7 -1 1c1,-1 35,-13 44,-5 25,23 -12,39 -1,33l-40 26 -6 1c-31,12 -59,2 -84,-7 -20,-7 -37,-12 -51,-7l-67 31 -84 37c-83,23 -172,-27 -204,-113 -5,-13 1,-29 15,-34 13,-5 28,2 33,15l0 0zm467 -2688l0 0c13,6 18,22 13,35 -24,57 -22,134 5,201 21,51 54,89 90,103 13,5 20,20 15,34 -5,14 -20,21 -33,16 -50,-20 -93,-66 -120,-132 -33,-80 -34,-174 -5,-243 6,-14 21,-20 34,-14l0 0z"/>
  <path class="fil2" d="M12178 2603c0,0 1,0 1,0 92,-16 264,-45 290,-50 1,2 3,4 3,5 12,28 31,57 53,86l-316 55c-60,9 -121,18 -181,29 -87,13 -135,22 -153,28 -92,19 -181,41 -265,70 -28,-28 -62,-45 -98,-51 3,-12 5,-24 8,-36 180,-63 393,-95 601,-126 0,0 22,-4 56,-9l0 0zm634 723l0 0c-163,52 -388,61 -579,22 6,-4 11,-9 16,-14 8,-5 14,-11 22,-16 22,-18 45,-38 63,-55 101,22 304,6 404,-30 20,30 44,59 70,89 1,1 3,3 3,3l0 0zm-1855 -312l0 0c18,-2 38,-4 53,-7 4,16 13,53 19,79 1,9 3,17 5,26 -18,23 -233,311 -245,327 -17,2 -140,20 -160,24 -16,-15 -232,-220 -249,-236 -8,-43 -17,-84 -26,-124 31,-4 79,-12 95,-14l243 224c5,5 12,7 20,7 7,-1 14,-6 18,-11 0,0 186,-274 196,-289l32 -5 0 0zm-656 95l0 0 25 116c13,73 22,152 22,246 0,11 0,22 0,33 -28,4 -105,16 -142,22 0,-9 1,-18 1,-27 0,-84 -7,-156 -18,-223l0 0c-1,-11 -4,-28 -8,-49 -3,-14 -5,-27 -8,-41 -5,-22 -9,-42 -13,-58 12,-2 31,-4 50,-7 0,0 92,-13 92,-13zm-735 107l0 0c35,-5 112,-16 142,-21 23,97 44,203 46,341l0 57c-28,3 -107,14 -143,19 0,-9 0,-19 0,-27 0,-154 -21,-267 -46,-370l0 0zm240 370l0 0c0,-24 0,-47 0,-69l0 -25c10,-13 238,-330 250,-347 11,-2 32,-4 53,-7 6,29 23,112 27,132 -14,20 -199,281 -211,297 -9,2 -42,7 -74,12 -15,2 -30,4 -45,7zm1303 -195l0 0c0,-8 1,-16 1,-24 0,-100 -10,-180 -23,-249 1,-2 1,-4 0,-6 -11,-56 -19,-89 -25,-111 36,-5 112,-16 143,-20 26,108 48,215 48,358 0,10 -1,21 -1,31 -39,6 -87,13 -143,21l0 0zm1349 -257l0 0c3,-4 6,-7 9,-11 19,-22 43,-50 54,-62 43,20 90,31 141,29 6,15 13,30 20,46 6,12 12,24 19,35 1,2 2,4 3,5 1,2 1,3 2,4 -77,14 -175,11 -263,-29 2,-3 8,-10 16,-18l0 0zm-532 121l0 0c-36,-6 -73,-21 -111,-37 -43,-18 -88,-34 -136,-43 9,-36 12,-71 13,-104 115,15 250,61 351,96l26 9c-44,28 -91,54 -140,77 -1,0 -2,1 -2,1l0 0zm317 -209l0 0c-72,-46 -205,-151 -308,-249 27,-5 54,-10 81,-14 22,-4 47,-7 75,-12 55,59 162,146 239,192 -27,26 -71,70 -71,70l-12 10c-1,1 -2,2 -3,3l0 0zm-747 -219l0 0c36,4 69,21 93,52l1 2c8,10 15,22 22,34 18,38 28,85 29,140 0,2 0,3 0,4 0,21 -2,43 -6,65 0,3 -1,6 -1,9 -13,73 -44,153 -99,232 -11,1 -22,3 -34,4 -2,0 -3,0 -5,0 -27,3 -56,4 -84,5l0 -30 -1 0c51,-82 89,-189 89,-279 0,-35 -5,-67 -17,-93 -10,-22 -25,-39 -43,-51 23,-25 42,-55 57,-94l0 0z"/>
  <path class="fil2" d="M11389 3518c9,-30 15,-59 19,-89 0,0 0,-1 0,-1 36,0 105,-3 148,-11 2,0 2,-2 4,-2 140,-18 265,-56 376,-107 36,-10 147,-71 207,-117 0,0 0,0 0,-1 41,-28 79,-58 115,-88 2,-1 4,-2 5,-2l29 -27 2 -2c118,-107 214,-224 291,-331 8,12 16,27 21,41 3,7 5,15 5,22l0 53c-1,2 -2,4 -2,4 -322,446 -607,680 -1236,714 5,-16 10,-35 15,-54zm-5379 207l0 0c34,26 63,88 76,167 5,29 7,59 7,87 0,68 -14,126 -39,161 -17,3 -97,15 -148,23 19,-46 31,-98 31,-152 0,-33 -3,-66 -8,-95 -12,-74 -38,-127 -70,-167 50,-8 132,-21 150,-24l0 0z"/>
 </g>
</svg>
