<?xml version="1.0" encoding="iso-8859-1"?>
<!-- Generator: Adobe Illustrator 19.0.0, SVG Export Plug-In . SVG Version: 6.00 Build 0)  -->
<svg version="1.1" id="Layer_1" xmlns="http://www.w3.org/2000/svg" xmlns:xlink="http://www.w3.org/1999/xlink" x="0px" y="0px"
	 viewBox="0 0 511.999 511.999" style="enable-background:new 0 0 511.999 511.999;" xml:space="preserve">
<g>
	<g>
		<path d="M495.796,104.002c16.345-24.591,13.689-58.171-7.974-79.834c-21.664-21.662-55.247-24.316-79.84-7.968
			C390.693,5.595,370.915,0,350.435,0c-29.432,0-57.102,11.46-77.913,32.271L32.28,272.517
			c-36.164,36.162-42.549,92.315-16.075,135.468c-16.344,24.588-13.689,58.166,7.973,79.83
			c11.964,11.965,27.869,18.554,44.787,18.554c12.666-0.001,24.764-3.696,35.066-10.573c17.715,10.865,37.615,16.204,57.431,16.203
			c28.444-0.001,56.701-10.973,78.012-32.284l240.247-240.249C515.883,203.304,522.268,147.152,495.796,104.002z M43.026,283.265
			L283.269,43.018c17.94-17.94,41.793-27.82,67.166-27.82c15.986,0,31.475,3.939,45.318,11.463L26.669,395.752
			C6.791,359.19,13.034,313.253,43.026,283.265z M468.973,228.72L228.727,468.969c-29.991,29.992-75.927,36.238-112.485,16.356
			l66.355-66.355l-10.747-10.747l-68.839,68.839c-1.248,1.245-2.6,2.452-4.017,3.587l-0.004,0.003
			c-8.501,6.812-18.976,10.52-30.027,10.52c-12.858,0-24.947-5.007-34.039-14.101c-17.517-17.519-18.679-45.287-3.498-64.171
			c0.169-0.21,0.337-0.411,0.507-0.614c0.397-0.48,0.801-0.956,1.221-1.424c0.068-0.075,0.138-0.149,0.206-0.224
			c0.508-0.557,1.026-1.107,1.564-1.645L408.989,34.919c1.222-1.22,2.573-2.425,4.014-3.579l0.053-0.042
			c18.884-15.052,46.547-13.851,64.019,3.617c17.493,17.492,18.675,45.205,3.562,64.09c-1.148,1.431-2.346,2.775-3.563,3.993
			L186.181,393.891l10.747,10.747l288.403-288.403C505.21,152.796,498.964,198.729,468.973,228.72z"/>
	</g>
</g>
<g>
	<g>
		<path d="M454.56,71.709c-8.149,8.148-16.82,7.447-27.794,6.556c-11.873-0.964-26.648-2.164-39.766,10.956
			c-13.121,13.119-11.92,27.895-10.954,39.769c0.892,10.974,1.596,19.642-6.549,27.789c-8.148,8.147-16.816,7.444-27.792,6.552
			c-11.872-0.966-26.649-2.164-39.766,10.954c-13.121,13.12-11.923,27.896-10.959,39.769c0.891,10.975,1.593,19.644-6.557,27.793
			c-8.149,8.149-16.819,7.446-27.793,6.556c-11.876-0.965-26.651-2.162-39.769,10.957c-13.119,13.12-11.921,27.896-10.957,39.77
			c0.89,10.975,1.593,19.645-6.556,27.794c-8.151,8.151-16.821,7.449-27.795,6.556c-11.872-0.965-26.648-2.166-39.77,10.957
			c-13.12,13.12-11.922,27.897-10.959,39.772c0.891,10.977,1.593,19.647-6.558,27.797c-8.15,8.151-16.815,7.45-27.797,6.557
			c-11.874-0.962-26.652-2.16-39.774,10.96l10.747,10.747c8.151-8.151,16.821-7.447,27.799-6.559
			c11.873,0.965,26.651,2.161,39.772-10.959c13.12-13.121,11.922-27.898,10.959-39.772c-0.891-10.977-1.593-19.647,6.558-27.798
			c8.147-8.15,16.818-7.45,27.793-6.556c11.877,0.964,26.65,2.163,39.771-10.956c13.118-13.119,11.919-27.895,10.956-39.769
			c-0.89-10.975-1.593-19.645,6.557-27.795c8.148-8.15,16.816-7.447,27.792-6.555c11.873,0.961,26.65,2.162,39.769-10.957
			c13.12-13.12,11.922-27.895,10.959-39.769c-0.891-10.975-1.594-19.644,6.557-27.794c8.146-8.146,16.814-7.443,27.79-6.552
			c11.875,0.965,26.649,2.165,39.768-10.954c13.116-13.118,11.915-27.893,10.951-39.766c-0.892-10.975-1.597-19.643,6.553-27.792
			c8.148-8.148,16.816-7.444,27.79-6.555c11.877,0.963,26.65,2.163,39.771-10.958L454.56,71.709z"/>
	</g>
</g>
<g>
</g>
<g>
</g>
<g>
</g>
<g>
</g>
<g>
</g>
<g>
</g>
<g>
</g>
<g>
</g>
<g>
</g>
<g>
</g>
<g>
</g>
<g>
</g>
<g>
</g>
<g>
</g>
<g>
</g>
</svg>
