<?xml version="1.0" encoding="UTF-8"?>
<!DOCTYPE svg PUBLIC "-//W3C//DTD SVG 1.1//EN" "http://www.w3.org/Graphics/SVG/1.1/DTD/svg11.dtd">
<!-- Creator: CorelDRAW X5 -->
<svg xmlns="http://www.w3.org/2000/svg" xml:space="preserve" width="50mm" height="30mm" style="shape-rendering:geometricPrecision; text-rendering:geometricPrecision; image-rendering:optimizeQuality; fill-rule:evenodd; clip-rule:evenodd"
viewBox="0 0 13547 7612"
 xmlns:xlink="http://www.w3.org/1999/xlink"
 xmlns:svg="http://www.w3.org/2000/svg">
 <defs>
  <style type="text/css">
   <![CDATA[
    .fil2 {fill:#031D42;fill-rule:nonzero}
    .fil1 {fill:#BF0C3D;fill-rule:nonzero}
    .fil0 {fill:white;fill-rule:nonzero}
   ]]>
  </style>
 </defs>
 <g id="Layer_x0020_1">
  <metadata id="CorelCorpID_0Corel-Layer"/>
 </g>
 <g id="Layer_x0020_1_0">
  <metadata id="CorelCorpID_1Corel-Layer"/>
  <path class="fil0" d="M12415 1l-11285 0c-299,-1 -587,116 -800,326 -213,214 -332,504 -329,805l0 5036c-3,301 115,590 328,802 212,212 501,332 801,331l11285 0c624,-3 1127,-510 1127,-1133l0 -5037c5,-619 -494,-1125 -1113,-1130 -5,0 -9,0 -14,0z"/>
  <path class="fil1" d="M13145 1131c5,-400 -316,-729 -717,-734 -5,0 -9,0 -14,0l-3154 0 1810 3024 167 21 106 138 0 129 114 23 106 144 0 125 118 21 119 130 0 288c142,128 302,235 476,317 160,61 178,317 274,453 121,199 285,278 251,389 -80,297 -385,798 -668,821l-1121 0 0 480 1404 0c405,-2 732,-332 730,-737 0,-1 0,-2 0,-3l0 -5031 -1 0z"/>
  <path class="fil2" d="M5428 6429l-542 0c0,-1355 458,-2105 1006,-2254 75,-14 39,-384 -56,-497l-317 0c-51,0 -21,-95 -21,-95l257 -549 -35 -150 -949 0 780 -545c36,-1439 1512,-1551 2401,-951 529,350 569,1043 529,1522 -6,31 -137,11 -137,11 0,0 -90,529 145,529l1037 0c423,-17 831,270 831,270l99 -363 -2272 -2959 -7054 0c-195,-1 -383,75 -522,211 -137,139 -213,327 -211,522l0 5037c-2,195 74,382 211,520 139,139 326,216 522,217l4579 0c-112,-192 -240,-411 -279,-476l-1 0z"/>
  <path class="fil0" d="M1412 5360c0,-277 224,-501 501,-501 277,0 501,224 501,501 0,277 -224,501 -501,501 -1,0 -3,0 -4,0 -274,1 -496,-221 -497,-495 0,-2 0,-4 0,-6zm12032 2006l0 0c0,-57 -34,-64 -82,-64l-106 0 0 211 44 0 0 -84 36 0 49 84 50 0 -51 -84c30,1 56,-23 57,-53 0,-3 0,-6 0,-9l4 -1zm-86 25l0 0 -59 0 0 -52 49 0c21,0 48,0 48,23 0,23 -13,29 -37,29z"/>
  <path class="fil0" d="M13344 7205c-112,0 -203,91 -203,203 0,112 91,203 203,203 112,0 202,-90 203,-202 2,-111 -87,-202 -198,-204 -2,0 -4,0 -5,0zm0 363l0 0c-88,0 -159,-71 -159,-159 0,-88 71,-159 159,-159 88,0 159,71 159,159 0,88 -71,159 -159,159z"/>
 </g>
</svg>
