<?xml version="1.0" encoding="UTF-8"?>
<!DOCTYPE svg PUBLIC "-//W3C//DTD SVG 1.1//EN" "http://www.w3.org/Graphics/SVG/1.1/DTD/svg11.dtd">
<!-- Creator: CorelDRAW X5 -->
<svg xmlns="http://www.w3.org/2000/svg" xml:space="preserve" width="80mm" height="30mm" style="shape-rendering:geometricPrecision; text-rendering:geometricPrecision; image-rendering:optimizeQuality; fill-rule:evenodd; clip-rule:evenodd"
viewBox="0 0 13547 2743"
 xmlns:xlink="http://www.w3.org/1999/xlink"
 xmlns:svg="http://www.w3.org/2000/svg">
 <defs>
  <style type="text/css">
   <![CDATA[
    .fil2 {fill:#031D42;fill-rule:nonzero}
    .fil1 {fill:#BF0C3D;fill-rule:nonzero}
    .fil0 {fill:white;fill-rule:nonzero}
   ]]>
  </style>
 </defs>
 <g id="Layer_x0020_1">
  <metadata id="CorelCorpID_0Corel-Layer"/>
 </g>
 <g id="Layer_x0020_1_0">
  <metadata id="CorelCorpID_1Corel-Layer"/>
  <path class="fil0" d="M5366 310c0,-83 -32,-160 -91,-218 -59,-58 -136,-91 -219,-91l-4748 0c-83,0 -160,32 -218,91 -59,58 -91,136 -91,219l0 2123c0,83 32,160 91,219 58,58 136,90 218,90l4748 0c170,0 309,-139 309,-309l0 -2123z"/>
  <path class="fil1" d="M5366 2433l0 -2123c0,-83 -32,-160 -91,-218 -59,-58 -136,-91 -219,-91l-1327 0 763 1274 70 9 41 59 0 55 50 9 44 61 0 52 49 9 50 55 0 119c0,0 107,99 204,136 67,26 76,133 114,192 53,81 121,116 108,163 -36,125 -162,347 -282,347l-471 0 0 200 589 0c170,0 309,-139 309,-309l0 0z"/>
  <path class="fil2" d="M309 1c-83,0 -160,32 -218,91 -59,58 -91,136 -91,219l0 2123c0,83 32,160 91,219 58,58 136,90 218,90l1928 0c-49,-81 -103,-172 -119,-200l-230 0c0,-570 194,-889 425,-948 31,-8 17,-163 -24,-209 0,0 -111,3 -134,-3 -29,-8 -9,-37 -9,-37l108 -233 -14 -64 -399 0c-6,0 329,-230 329,-230 17,-605 637,-652 1012,-402 222,148 239,439 222,643 -3,12 -59,3 -59,3 0,0 -37,221 61,221l436 0c178,0 349,113 349,113l44 -151 -957 -1243 -2969 0zm329 1879l0 0c117,0 213,95 213,212 0,118 -95,213 -212,213 -117,0 -212,-95 -212,-212 0,-117 95,-212 212,-213z"/>
  <path class="fil2" d="M10965 2187l-1256 0 0 -2186 -562 0 0 2741 1818 0 0 -555zm-5163 555l0 0 563 0 0 -1636 728 1218 307 0 729 -1218 0 1636 562 0 0 -2741 -554 0 -890 1487 -891 -1487 -554 0 0 2741zm7629 -1984l0 0c0,-417 -354,-755 -857,-755l-1249 0 0 2739 1275 0c507,0 946,-268 946,-815 0,-284 -136,-549 -393,-668 168,-113 278,-303 278,-501zm-1545 315l0 0 0 -555 721 0c185,0 278,139 278,278 0,139 -93,278 -278,278l-721 0zm0 1148l0 0 0 -646 754 0c181,0 328,147 328,328 0,181 -147,318 -328,318l-754 0z"/>
 </g>
</svg>
