<?xml version="1.0" encoding="utf-8"?>
<!-- Generator: Adobe Illustrator 22.0.1, SVG Export Plug-In . SVG Version: 6.00 Build 0)  -->
<svg version="1.1" xmlns="http://www.w3.org/2000/svg" xmlns:xlink="http://www.w3.org/1999/xlink" x="0px" y="0px"
	 viewBox="0 0 2272 1872" style="enable-background:new 0 0 2272 1872;" xml:space="preserve">
<style type="text/css">
	.st0{fill:#0C1532;}
	.st1{fill:#101D3D;}
	.st2{fill:#091123;}
	.st3{fill:#ED623B;}
	.st4{fill:url(#SVGID_1_);}
	.st5{fill:url(#SVGID_2_);}
	.st6{fill:url(#SVGID_3_);}
	.st7{clip-path:url(#SVGID_5_);}
	.st8{fill:#EBB531;}
	.st9{fill:#DD923A;}
	.st10{fill:url(#SVGID_6_);}
	.st11{fill:#1F3768;}
	.st12{fill:#FFFFFF;}
	.st13{fill:#EC613C;}
	.st14{fill:url(#SVGID_7_);}
	.st15{fill:#F4F3E6;}
	.st16{font-family:'Anton-Regular';}
	.st17{font-size:97.6634px;}
	.st18{letter-spacing:19;}
	.st19{font-family:'Roboto-Regular';}
	.st20{font-size:57.8697px;}
	.st21{letter-spacing:11;}
</style>
<g id="background">
	<g>
		<g>
			<g>
				<rect class="st0" width="2272" height="1872"/>
			</g>
		</g>
		<g>
			<path class="st1" d="M2129.1,1362.8l19.9-202.4V894.6c0-26.4-21.5-47.9-47.8-47.9c-26.4,0-47.8,21.5-47.8,47.9l0,266.4
				l19.8,201.8c0,0.1,0,0.1,0,0.2l2.7,27c-7.9,1.2-14,8-14,16.3v15.1c0,9.1,7.4,16.5,16.5,16.5h45.6c9.1,0,16.5-7.4,16.5-16.5v-15.1
				c0-8.3-6.1-15.1-14-16.3L2129.1,1362.8C2129.1,1362.9,2129.1,1362.8,2129.1,1362.8z M2128.9,1239.8h-55.6l-2.6-26.6h60.8
				L2128.9,1239.8z M2127.7,1252l-2.6,26.6c-0.2,0-0.4,0-0.6,0h-46.8c-0.2,0-0.4,0-0.6,0l-2.6-26.6H2127.7z M2121.3,1317.3H2081
				l-2.6-26.6h45.6L2121.3,1317.3z M2082.2,1329.6h37.9l-2.6,26.6h-32.7L2082.2,1329.6z M2086,1368.3h30.3l-2.1,21.4h-26.1
				L2086,1368.3z M2065.5,894.6c0-19.7,16-35.7,35.6-35.7c19.7,0,35.6,16,35.6,35.7l0,265.2l-4.1,41.2h-63.2l-4-40.6V894.6z
				 M2128.2,1406.3v15.1c0,2.4-1.9,4.3-4.3,4.3h-45.6c-2.4,0-4.3-1.9-4.3-4.3v-15.1c0-2.4,1.9-4.3,4.3-4.3h4.2h37.1h4.2
				C2126.3,1402,2128.2,1403.9,2128.2,1406.3z"/>
			<path class="st1" d="M2035,1551c-0.1,0.1-0.2,0.2-0.3,0.2c-3.4,3.9-6.4,8-9,12.3c0,0,0,0,0,0c-1.5,2.4-2.8,4.8-4,7.4
				c-0.3,0.5-0.5,1.1-0.7,1.6c-0.3,0.7-0.6,1.3-0.9,2c-0.3,0.8-0.7,1.6-1,2.4c-0.2,0.4-0.3,0.8-0.5,1.3c-0.3,0.9-0.6,1.7-0.9,2.6
				c-0.1,0.4-0.3,0.8-0.4,1.2c-0.3,0.9-0.5,1.8-0.8,2.7c-0.1,0.4-0.2,0.8-0.4,1.2c-0.2,0.9-0.5,1.8-0.7,2.6
				c-0.1,0.5-0.2,0.9-0.3,1.4c-0.2,0.8-0.4,1.7-0.5,2.6c-0.1,0.5-0.2,1-0.3,1.6c-0.1,0.8-0.3,1.6-0.4,2.4c-0.1,0.6-0.2,1.3-0.2,1.9
				c-0.1,0.7-0.2,1.4-0.2,2.2c-0.1,0.8-0.1,1.6-0.2,2.4c0,0.6-0.1,1.1-0.1,1.7c-0.1,1.4-0.1,2.8-0.1,4.2c0,1.4,0,2.8,0.1,4.2
				c0,0.6,0.1,1.1,0.1,1.7c0.1,0.8,0.1,1.6,0.2,2.4c0.1,0.7,0.2,1.5,0.2,2.2c0.1,0.6,0.1,1.3,0.2,1.9c0.1,0.8,0.2,1.6,0.4,2.4
				c0.1,0.5,0.2,1,0.3,1.6c0.2,0.9,0.3,1.7,0.5,2.6c0.1,0.5,0.2,0.9,0.3,1.4c0.2,0.9,0.4,1.8,0.7,2.7c0.1,0.4,0.2,0.8,0.3,1.2
				c0.3,0.9,0.5,1.8,0.8,2.7c0.1,0.4,0.3,0.8,0.4,1.1c0.3,0.9,0.6,1.8,0.9,2.7c0.1,0.4,0.3,0.8,0.5,1.2c0.3,0.8,0.7,1.7,1,2.5
				c0.3,0.6,0.5,1.2,0.8,1.8c0.3,0.6,0.6,1.3,0.9,1.9c0.6,1.2,1.2,2.5,1.9,3.7c0,0.1,0.1,0.1,0.1,0.2c0.6,1.2,1.3,2.4,2,3.5
				c0,0.1,0.1,0.1,0.1,0.2c0.7,1.2,1.4,2.3,2.2,3.4c0,0,0,0.1,0.1,0.1c0.8,1.1,1.6,2.3,2.4,3.4c0,0,0,0,0,0c1.4,1.8,2.8,3.6,4.3,5.4
				c0.1,0.2,0.3,0.3,0.4,0.4c16,18,39.4,29.4,65.3,29.4s49.3-11.4,65.3-29.4c0.2-0.1,0.3-0.3,0.4-0.4c1.5-1.7,2.9-3.5,4.3-5.4
				c0,0,0,0,0,0c0.8-1.1,1.6-2.2,2.4-3.4c0,0,0-0.1,0.1-0.1c0.8-1.1,1.5-2.3,2.2-3.4c0-0.1,0.1-0.1,0.1-0.2c0.7-1.2,1.4-2.3,2-3.5
				c0-0.1,0.1-0.1,0.1-0.2c0.7-1.2,1.3-2.4,1.9-3.7c0.3-0.6,0.6-1.3,0.9-1.9c0.3-0.6,0.5-1.2,0.8-1.8c0.4-0.8,0.7-1.7,1-2.5
				c0.2-0.4,0.3-0.8,0.5-1.2c0.3-0.9,0.6-1.8,0.9-2.7c0.1-0.4,0.3-0.8,0.4-1.1c0.3-0.9,0.6-1.8,0.8-2.7c0.1-0.4,0.2-0.8,0.3-1.2
				c0.2-0.9,0.5-1.8,0.7-2.7c0.1-0.4,0.2-0.9,0.3-1.4c0.2-0.9,0.4-1.7,0.5-2.6c0.1-0.5,0.2-1,0.3-1.6c0.1-0.8,0.3-1.6,0.4-2.4
				c0.1-0.6,0.2-1.3,0.2-1.9c0.1-0.7,0.2-1.4,0.2-2.2c0.1-0.8,0.1-1.6,0.2-2.4c0-0.6,0.1-1.1,0.1-1.7c0.1-1.4,0.1-2.8,0.1-4.2
				c0-1.4,0-2.8-0.1-4.2c0-0.6-0.1-1.1-0.1-1.7c-0.1-0.8-0.1-1.6-0.2-2.4c-0.1-0.7-0.2-1.4-0.2-2.2c-0.1-0.6-0.2-1.3-0.2-1.9
				c-0.1-0.8-0.2-1.6-0.4-2.4c-0.1-0.5-0.2-1.1-0.3-1.6c-0.2-0.9-0.3-1.7-0.5-2.6c-0.1-0.5-0.2-0.9-0.3-1.4
				c-0.2-0.9-0.4-1.8-0.7-2.6c-0.1-0.4-0.2-0.8-0.4-1.2c-0.3-0.9-0.5-1.8-0.8-2.7c-0.1-0.4-0.3-0.8-0.4-1.2
				c-0.3-0.9-0.6-1.8-0.9-2.6c-0.2-0.4-0.3-0.9-0.5-1.3c-0.3-0.8-0.6-1.6-1-2.4c-0.3-0.7-0.6-1.4-0.9-2c-0.2-0.5-0.5-1.1-0.7-1.6
				c-1.2-2.5-2.6-5-4-7.4c0,0,0,0,0,0c-2.6-4.3-5.6-8.5-9-12.3c-0.1-0.1-0.2-0.2-0.3-0.2c-16-18.1-39.4-29.6-65.5-29.6
				C2074.4,1521.4,2051,1532.9,2035,1551z M2165.9,1569.1c0.1,0.2,0.2,0.3,0.3,0.5c0.5,0.8,0.9,1.6,1.4,2.4c0.2,0.3,0.3,0.6,0.5,0.9
				c0.4,0.7,0.7,1.4,1.1,2.1c0.2,0.4,0.4,0.8,0.6,1.2c0.3,0.6,0.6,1.3,0.9,1.9c0.3,0.8,0.7,1.5,1,2.3c0.2,0.6,0.5,1.2,0.7,1.8
				c0.2,0.6,0.4,1.3,0.7,1.9c0.1,0.4,0.3,0.8,0.4,1.3c0.2,0.6,0.4,1.3,0.6,2c0.1,0.4,0.2,0.8,0.4,1.3c0.2,0.7,0.4,1.3,0.5,2
				c0.1,0.4,0.2,0.8,0.3,1.3c0.2,1.1,0.5,2.2,0.7,3.3c0.1,0.6,0.2,1.2,0.3,1.8c0.1,0.5,0.2,1.1,0.2,1.6c0.1,0.6,0.2,1.3,0.2,1.9
				c0.1,0.5,0.1,1,0.2,1.5c0.1,0.7,0.1,1.5,0.2,2.2c0,0.4,0.1,0.8,0.1,1.2c0.1,1.2,0.1,2.4,0.1,3.5c0,1.2,0,2.4-0.1,3.5
				c0,0.4,0,0.8-0.1,1.2c0,0.8-0.1,1.5-0.2,2.2c0,0.5-0.1,1-0.2,1.5c-0.1,0.6-0.2,1.3-0.2,1.9c-0.1,0.5-0.1,1.1-0.2,1.6
				c-0.1,0.6-0.2,1.2-0.3,1.8c-0.2,1.1-0.4,2.2-0.7,3.3c-0.1,0.4-0.2,0.8-0.3,1.3c-0.2,0.7-0.3,1.3-0.5,2c-0.1,0.4-0.2,0.8-0.4,1.3
				c-0.2,0.7-0.4,1.3-0.6,2c-0.1,0.4-0.3,0.8-0.4,1.3c-0.2,0.6-0.4,1.3-0.7,1.9c-0.2,0.6-0.4,1.1-0.7,1.7c-0.3,0.8-0.7,1.6-1,2.4
				c-0.3,0.6-0.6,1.3-0.9,1.9c-0.2,0.4-0.4,0.8-0.6,1.2c-0.3,0.7-0.7,1.4-1,2c-0.2,0.3-0.3,0.6-0.5,1c-0.4,0.8-0.9,1.6-1.4,2.4
				c-0.1,0.2-0.2,0.3-0.3,0.5c-1.2,1.9-2.4,3.8-3.8,5.6c-3.9-5.3-7.1-11-9.5-17.1l1.7-0.8c2.7-1.3,3.9-4.5,2.6-7.2
				c-1.3-2.7-4.5-3.9-7.2-2.6l-0.5,0.2c-0.9-3.8-1.5-7.6-1.9-11.5h0.3c3,0,5.4-2.4,5.4-5.4c0-3-2.4-5.4-5.4-5.4h-0.4
				c0.3-4.7,0.9-9.3,2-13.8l0.5,0.2c0.7,0.3,1.5,0.5,2.3,0.5c2,0,4-1.2,4.9-3.1c1.3-2.7,0.1-5.9-2.6-7.2l-1.7-0.8
				c2.4-6,5.6-11.8,9.5-17.1C2163.5,1565.3,2164.7,1567.1,2165.9,1569.1z M2100.5,1532.2c21.3,0,40.6,8.7,54.5,22.8
				c-5,6.4-9.1,13.5-12.1,20.9l-1.8-0.9c-2.7-1.3-5.9-0.1-7.2,2.6c-1.3,2.7-0.1,5.9,2.6,7.2l2.9,1.4c-1.6,6-2.6,12.2-2.9,18.4h-3.5
				c-3,0-5.4,2.4-5.4,5.4c0,3,2.4,5.4,5.4,5.4h3.6c0.4,5.5,1.3,10.9,2.7,16.2l-2.9,1.4c-2.7,1.3-3.9,4.5-2.6,7.2
				c0.9,2,2.9,3.1,4.9,3.1c0.8,0,1.5-0.2,2.3-0.5l1.8-0.9c3,7.5,7.1,14.5,12.1,20.9c-13.9,14.1-33.2,22.8-54.5,22.8
				s-40.6-8.7-54.5-22.8c5-6.4,9.1-13.5,12.1-20.9l1.8,0.9c0.7,0.3,1.5,0.5,2.3,0.5c2,0,4-1.2,4.9-3.1c1.3-2.7,0.1-5.9-2.6-7.2
				l-2.9-1.4c1.4-5.3,2.3-10.7,2.7-16.2h2.3c3,0,5.4-2.4,5.4-5.4c0-3-2.4-5.4-5.4-5.4h-2.1c-0.3-6.3-1.3-12.4-2.9-18.4l2.9-1.4
				c2.7-1.3,3.9-4.5,2.6-7.2c-1.3-2.7-4.5-3.9-7.2-2.6l-1.8,0.9c-3-7.5-7.1-14.5-12.1-20.9C2059.9,1541,2079.2,1532.2,2100.5,1532.2
				z M2048.3,1580.6l-1.7,0.8c-2.7,1.3-3.9,4.5-2.6,7.2c0.9,2,2.9,3.1,4.9,3.1c0.8,0,1.5-0.2,2.3-0.5l0.5-0.2
				c1.1,4.5,1.8,9.1,2,13.8h-1.8c-3,0-5.4,2.4-5.4,5.4c0,3,2.4,5.4,5.4,5.4h1.6c-0.3,3.9-1,7.7-1.9,11.5l-0.5-0.2
				c-2.7-1.3-5.9-0.1-7.2,2.6c-1.3,2.7-0.1,5.9,2.6,7.2l1.7,0.8c-2.4,6-5.6,11.8-9.5,17.1c-1.3-1.8-2.6-3.7-3.8-5.6
				c-0.1-0.2-0.2-0.3-0.3-0.5c-0.5-0.8-0.9-1.6-1.4-2.4c-0.2-0.3-0.3-0.6-0.5-1c-0.4-0.7-0.7-1.3-1-2c-0.2-0.4-0.4-0.8-0.6-1.2
				c-0.3-0.6-0.6-1.3-0.9-1.9c-0.4-0.8-0.7-1.6-1-2.4c-0.2-0.6-0.5-1.1-0.7-1.7c-0.2-0.6-0.4-1.3-0.7-1.9c-0.1-0.4-0.3-0.8-0.4-1.3
				c-0.2-0.7-0.4-1.3-0.6-2c-0.1-0.4-0.2-0.8-0.4-1.3c-0.2-0.7-0.4-1.3-0.5-2c-0.1-0.4-0.2-0.8-0.3-1.3c-0.3-1.1-0.5-2.2-0.7-3.3
				c-0.1-0.6-0.2-1.2-0.3-1.8c-0.1-0.5-0.2-1.1-0.2-1.6c-0.1-0.6-0.2-1.3-0.2-1.9c-0.1-0.5-0.1-1-0.2-1.5c-0.1-0.7-0.1-1.5-0.2-2.2
				c0-0.4-0.1-0.8-0.1-1.2c-0.1-1.2-0.1-2.4-0.1-3.5c0-1.2,0-2.4,0.1-3.5c0-0.4,0-0.8,0.1-1.2c0-0.8,0.1-1.5,0.2-2.2
				c0-0.5,0.1-1,0.2-1.5c0.1-0.6,0.2-1.3,0.2-1.9c0.1-0.5,0.1-1.1,0.2-1.6c0.1-0.6,0.2-1.2,0.3-1.8c0.2-1.1,0.4-2.2,0.7-3.3
				c0.1-0.4,0.2-0.8,0.3-1.3c0.2-0.7,0.3-1.3,0.5-2c0.1-0.4,0.2-0.8,0.4-1.3c0.2-0.7,0.4-1.3,0.6-2c0.1-0.4,0.3-0.9,0.4-1.3
				c0.2-0.6,0.4-1.3,0.7-1.9c0.2-0.6,0.5-1.2,0.7-1.8c0.3-0.8,0.6-1.6,1-2.3c0.3-0.7,0.6-1.3,0.9-1.9c0.2-0.4,0.4-0.8,0.6-1.2
				c0.3-0.7,0.7-1.4,1.1-2.1c0.2-0.3,0.3-0.6,0.5-0.9c0.5-0.8,0.9-1.6,1.4-2.4c0.1-0.2,0.2-0.3,0.3-0.5c1.2-1.9,2.4-3.8,3.8-5.6
				C2042.7,1568.8,2045.9,1574.5,2048.3,1580.6z"/>
			<path class="st1" d="M2035,301.2c-0.1,0.1-0.2,0.2-0.3,0.2c-3.4,3.9-6.4,8-9,12.3c0,0,0,0,0,0c-1.5,2.4-2.8,4.8-4,7.4
				c-0.3,0.5-0.5,1.1-0.7,1.6c-0.3,0.7-0.6,1.3-0.9,2c-0.3,0.8-0.7,1.6-1,2.4c-0.2,0.4-0.3,0.8-0.5,1.3c-0.3,0.9-0.6,1.7-0.9,2.6
				c-0.1,0.4-0.3,0.8-0.4,1.2c-0.3,0.9-0.5,1.8-0.8,2.7c-0.1,0.4-0.2,0.8-0.4,1.2c-0.2,0.9-0.5,1.8-0.7,2.6
				c-0.1,0.5-0.2,0.9-0.3,1.4c-0.2,0.8-0.4,1.7-0.5,2.6c-0.1,0.5-0.2,1-0.3,1.6c-0.1,0.8-0.3,1.6-0.4,2.4c-0.1,0.6-0.2,1.3-0.2,1.9
				c-0.1,0.7-0.2,1.4-0.2,2.2c-0.1,0.8-0.1,1.6-0.2,2.4c0,0.6-0.1,1.1-0.1,1.7c-0.1,1.4-0.1,2.8-0.1,4.2s0,2.8,0.1,4.2
				c0,0.6,0.1,1.1,0.1,1.7c0.1,0.8,0.1,1.6,0.2,2.4c0.1,0.7,0.2,1.5,0.2,2.2c0.1,0.6,0.1,1.3,0.2,1.9c0.1,0.8,0.2,1.6,0.4,2.4
				c0.1,0.5,0.2,1,0.3,1.6c0.2,0.9,0.3,1.7,0.5,2.6c0.1,0.5,0.2,0.9,0.3,1.4c0.2,0.9,0.4,1.8,0.7,2.7c0.1,0.4,0.2,0.8,0.3,1.2
				c0.3,0.9,0.5,1.8,0.8,2.7c0.1,0.4,0.3,0.8,0.4,1.1c0.3,0.9,0.6,1.8,0.9,2.7c0.1,0.4,0.3,0.8,0.5,1.2c0.3,0.8,0.7,1.7,1,2.5
				c0.3,0.6,0.5,1.2,0.8,1.8c0.3,0.6,0.6,1.3,0.9,1.9c0.6,1.2,1.2,2.5,1.9,3.7c0,0.1,0.1,0.1,0.1,0.2c0.6,1.2,1.3,2.4,2,3.5
				c0,0.1,0.1,0.1,0.1,0.2c0.7,1.2,1.4,2.3,2.2,3.4c0,0,0,0.1,0.1,0.1c0.8,1.1,1.6,2.3,2.4,3.4c0,0,0,0,0,0c1.4,1.8,2.8,3.6,4.3,5.4
				c0.1,0.2,0.3,0.3,0.4,0.4c16,18,39.4,29.4,65.3,29.4s49.3-11.4,65.3-29.4c0.2-0.1,0.3-0.3,0.4-0.4c1.5-1.7,2.9-3.5,4.3-5.4
				c0,0,0,0,0,0c0.8-1.1,1.6-2.2,2.4-3.4c0,0,0-0.1,0.1-0.1c0.8-1.1,1.5-2.3,2.2-3.4c0-0.1,0.1-0.1,0.1-0.2c0.7-1.2,1.4-2.3,2-3.5
				c0-0.1,0.1-0.1,0.1-0.2c0.7-1.2,1.3-2.4,1.9-3.7c0.3-0.6,0.6-1.3,0.9-1.9c0.3-0.6,0.5-1.2,0.8-1.8c0.4-0.8,0.7-1.7,1-2.5
				c0.2-0.4,0.3-0.8,0.5-1.2c0.3-0.9,0.6-1.8,0.9-2.7c0.1-0.4,0.3-0.8,0.4-1.1c0.3-0.9,0.6-1.8,0.8-2.7c0.1-0.4,0.2-0.8,0.3-1.2
				c0.2-0.9,0.5-1.8,0.7-2.7c0.1-0.4,0.2-0.9,0.3-1.4c0.2-0.9,0.4-1.7,0.5-2.6c0.1-0.5,0.2-1,0.3-1.6c0.1-0.8,0.3-1.6,0.4-2.4
				c0.1-0.6,0.2-1.3,0.2-1.9c0.1-0.7,0.2-1.4,0.2-2.2c0.1-0.8,0.1-1.6,0.2-2.4c0-0.6,0.1-1.1,0.1-1.7c0.1-1.4,0.1-2.8,0.1-4.2
				s0-2.8-0.1-4.2c0-0.6-0.1-1.1-0.1-1.7c-0.1-0.8-0.1-1.6-0.2-2.4c-0.1-0.7-0.2-1.4-0.2-2.2c-0.1-0.6-0.2-1.3-0.2-1.9
				c-0.1-0.8-0.2-1.6-0.4-2.4c-0.1-0.5-0.2-1.1-0.3-1.6c-0.2-0.9-0.3-1.7-0.5-2.6c-0.1-0.5-0.2-0.9-0.3-1.4
				c-0.2-0.9-0.4-1.8-0.7-2.6c-0.1-0.4-0.2-0.8-0.4-1.2c-0.3-0.9-0.5-1.8-0.8-2.7c-0.1-0.4-0.3-0.8-0.4-1.2
				c-0.3-0.9-0.6-1.8-0.9-2.6c-0.2-0.4-0.3-0.9-0.5-1.3c-0.3-0.8-0.6-1.6-1-2.4c-0.3-0.7-0.6-1.4-0.9-2c-0.2-0.5-0.5-1.1-0.7-1.6
				c-1.2-2.5-2.6-5-4-7.4c0,0,0,0,0,0c-2.6-4.3-5.6-8.5-9-12.3c-0.1-0.1-0.2-0.2-0.3-0.2c-16-18.1-39.4-29.6-65.5-29.6
				C2074.4,271.6,2051,283.1,2035,301.2z M2165.9,319.3c0.1,0.2,0.2,0.3,0.3,0.5c0.5,0.8,0.9,1.6,1.4,2.4c0.2,0.3,0.3,0.6,0.5,0.9
				c0.4,0.7,0.7,1.4,1.1,2.1c0.2,0.4,0.4,0.8,0.6,1.2c0.3,0.6,0.6,1.3,0.9,1.9c0.3,0.8,0.7,1.5,1,2.3c0.2,0.6,0.5,1.2,0.7,1.8
				c0.2,0.6,0.4,1.3,0.7,1.9c0.1,0.4,0.3,0.8,0.4,1.3c0.2,0.6,0.4,1.3,0.6,2c0.1,0.4,0.2,0.8,0.4,1.3c0.2,0.7,0.4,1.3,0.5,2
				c0.1,0.4,0.2,0.8,0.3,1.3c0.2,1.1,0.5,2.2,0.7,3.3c0.1,0.6,0.2,1.2,0.3,1.8c0.1,0.5,0.2,1.1,0.2,1.6c0.1,0.6,0.2,1.3,0.2,1.9
				c0.1,0.5,0.1,1,0.2,1.5c0.1,0.7,0.1,1.5,0.2,2.2c0,0.4,0.1,0.8,0.1,1.2c0.1,1.2,0.1,2.4,0.1,3.5c0,1.2,0,2.4-0.1,3.5
				c0,0.4,0,0.8-0.1,1.2c0,0.8-0.1,1.5-0.2,2.2c0,0.5-0.1,1-0.2,1.5c-0.1,0.6-0.2,1.3-0.2,1.9c-0.1,0.5-0.1,1.1-0.2,1.6
				c-0.1,0.6-0.2,1.2-0.3,1.8c-0.2,1.1-0.4,2.2-0.7,3.3c-0.1,0.4-0.2,0.8-0.3,1.3c-0.2,0.7-0.3,1.3-0.5,2c-0.1,0.4-0.2,0.8-0.4,1.3
				c-0.2,0.7-0.4,1.3-0.6,2c-0.1,0.4-0.3,0.8-0.4,1.3c-0.2,0.6-0.4,1.3-0.7,1.9c-0.2,0.6-0.4,1.1-0.7,1.7c-0.3,0.8-0.7,1.6-1,2.4
				c-0.3,0.6-0.6,1.3-0.9,1.9c-0.2,0.4-0.4,0.8-0.6,1.2c-0.3,0.7-0.7,1.4-1,2c-0.2,0.3-0.3,0.6-0.5,1c-0.4,0.8-0.9,1.6-1.4,2.4
				c-0.1,0.2-0.2,0.3-0.3,0.5c-1.2,1.9-2.4,3.8-3.8,5.6c-3.9-5.3-7.1-11-9.5-17.1l1.7-0.8c2.7-1.3,3.9-4.5,2.6-7.2
				c-1.3-2.7-4.5-3.9-7.2-2.6l-0.5,0.2c-0.9-3.8-1.5-7.6-1.9-11.5h0.3c3,0,5.4-2.4,5.4-5.4c0-3-2.4-5.4-5.4-5.4h-0.4
				c0.3-4.7,0.9-9.3,2-13.8l0.5,0.2c0.7,0.3,1.5,0.5,2.3,0.5c2,0,4-1.2,4.9-3.1c1.3-2.7,0.1-5.9-2.6-7.2l-1.7-0.8
				c2.4-6,5.6-11.8,9.5-17.1C2163.5,315.5,2164.7,317.4,2165.9,319.3z M2100.5,282.5c21.3,0,40.6,8.7,54.5,22.8
				c-5,6.4-9.1,13.5-12.1,20.9l-1.8-0.9c-2.7-1.3-5.9-0.1-7.2,2.6c-1.3,2.7-0.1,5.9,2.6,7.2l2.9,1.4c-1.6,6-2.6,12.2-2.9,18.4h-3.5
				c-3,0-5.4,2.4-5.4,5.4c0,3,2.4,5.4,5.4,5.4h3.6c0.4,5.5,1.3,10.9,2.7,16.2l-2.9,1.4c-2.7,1.3-3.9,4.5-2.6,7.2
				c0.9,2,2.9,3.1,4.9,3.1c0.8,0,1.5-0.2,2.3-0.5l1.8-0.9c3,7.5,7.1,14.5,12.1,20.9c-13.9,14.1-33.2,22.8-54.5,22.8
				s-40.6-8.7-54.5-22.8c5-6.4,9.1-13.5,12.1-20.9l1.8,0.9c0.7,0.3,1.5,0.5,2.3,0.5c2,0,4-1.2,4.9-3.1c1.3-2.7,0.1-5.9-2.6-7.2
				l-2.9-1.4c1.4-5.3,2.3-10.7,2.7-16.2h2.3c3,0,5.4-2.4,5.4-5.4c0-3-2.4-5.4-5.4-5.4h-2.1c-0.3-6.3-1.3-12.4-2.9-18.4l2.9-1.4
				c2.7-1.3,3.9-4.5,2.6-7.2c-1.3-2.7-4.5-3.9-7.2-2.6l-1.8,0.9c-3-7.5-7.1-14.5-12.1-20.9C2059.9,291.2,2079.2,282.5,2100.5,282.5z
				 M2048.3,330.8l-1.7,0.8c-2.7,1.3-3.9,4.5-2.6,7.2c0.9,2,2.9,3.1,4.9,3.1c0.8,0,1.5-0.2,2.3-0.5l0.5-0.2c1.1,4.5,1.8,9.1,2,13.8
				h-1.8c-3,0-5.4,2.4-5.4,5.4c0,3,2.4,5.4,5.4,5.4h1.6c-0.3,3.9-1,7.7-1.9,11.5l-0.5-0.2c-2.7-1.3-5.9-0.1-7.2,2.6
				c-1.3,2.7-0.1,5.9,2.6,7.2l1.7,0.8c-2.4,6-5.6,11.8-9.5,17.1c-1.3-1.8-2.6-3.7-3.8-5.6c-0.1-0.2-0.2-0.3-0.3-0.5
				c-0.5-0.8-0.9-1.6-1.4-2.4c-0.2-0.3-0.3-0.6-0.5-1c-0.4-0.7-0.7-1.3-1-2c-0.2-0.4-0.4-0.8-0.6-1.2c-0.3-0.6-0.6-1.3-0.9-1.9
				c-0.4-0.8-0.7-1.6-1-2.4c-0.2-0.6-0.5-1.1-0.7-1.7c-0.2-0.6-0.4-1.3-0.7-1.9c-0.1-0.4-0.3-0.8-0.4-1.3c-0.2-0.7-0.4-1.3-0.6-2
				c-0.1-0.4-0.2-0.8-0.4-1.3c-0.2-0.7-0.4-1.3-0.5-2c-0.1-0.4-0.2-0.8-0.3-1.3c-0.3-1.1-0.5-2.2-0.7-3.3c-0.1-0.6-0.2-1.2-0.3-1.8
				c-0.1-0.5-0.2-1.1-0.2-1.6c-0.1-0.6-0.2-1.3-0.2-1.9c-0.1-0.5-0.1-1-0.2-1.5c-0.1-0.7-0.1-1.5-0.2-2.2c0-0.4-0.1-0.8-0.1-1.2
				c-0.1-1.2-0.1-2.4-0.1-3.5c0-1.2,0-2.4,0.1-3.5c0-0.4,0-0.8,0.1-1.2c0-0.8,0.1-1.5,0.2-2.2c0-0.5,0.1-1,0.2-1.5
				c0.1-0.6,0.2-1.3,0.2-1.9c0.1-0.5,0.1-1.1,0.2-1.6c0.1-0.6,0.2-1.2,0.3-1.8c0.2-1.1,0.4-2.2,0.7-3.3c0.1-0.4,0.2-0.8,0.3-1.3
				c0.2-0.7,0.3-1.3,0.5-2c0.1-0.4,0.2-0.8,0.4-1.3c0.2-0.7,0.4-1.3,0.6-2c0.1-0.4,0.3-0.9,0.4-1.3c0.2-0.6,0.4-1.3,0.7-1.9
				c0.2-0.6,0.5-1.2,0.7-1.8c0.3-0.8,0.6-1.6,1-2.3c0.3-0.7,0.6-1.3,0.9-1.9c0.2-0.4,0.4-0.8,0.6-1.2c0.3-0.7,0.7-1.4,1.1-2.1
				c0.2-0.3,0.3-0.6,0.5-0.9c0.5-0.8,0.9-1.6,1.4-2.4c0.1-0.2,0.2-0.3,0.3-0.5c1.2-1.9,2.4-3.8,3.8-5.6
				C2042.7,319,2045.9,324.7,2048.3,330.8z"/>
			<path class="st1" d="M2206.7,566.6c-3.1-8.7-11.5-14.3-20.8-13.6c-5.9,0.4-11.3,3.3-14.8,8c-0.1,0.1-0.1,0.1-0.2,0.2l-0.1-0.3
				c-0.1-0.2-0.1-0.4-0.2-0.6c-3.5-10.1-14-16.2-24.6-14.2c-5.4,1-10.2,4-13.4,8.4c-0.8-1.9-1.7-3.7-2.7-5.6
				c-3.8-7.1-11.4-11.4-19.4-10.9c-5.7,0.4-11,3.2-14.5,7.6c-2.5,3.2-4,7.1-4.4,11.1c-4.8-3-10.6-4.4-16.5-3.4
				c-6.7,1.1-12.7,5-16.3,10.8c-3.7,5.9-4.6,13-2.6,19.7c0.7,2.2,1.3,4.3,1.8,6.4c-34.1,19-50.1,44.1-55.7,55
				c-5.5-3.5-11-4.5-16.8-1.3c-12,6.6-8.1,31.2-1,50.4c14.5,39.2,60.1,101.2,139,84.7c39.2-8.2,67.2-26.3,83.3-53.8
				c21.6-37,21.6-90.2,0-158.1C2206.8,566.9,2206.7,566.8,2206.7,566.6z M2029.8,675.5c1.1-2.8,4.3-9.3,13.9-19
				c3.2,5.8,6.6,12.4,10.1,19.8c0.2,0.3,0.4,0.7,0.6,0.9c-3.3,7.3-6.9,12.5-9.2,15.6C2039.9,687.9,2034.7,681.8,2029.8,675.5z
				 M2058.8,665.6c-2.9-5.7-5.6-11-8.2-15.7c3.6-3.2,7.9-6.7,12.9-10.5C2062.9,649.5,2061.1,658.2,2058.8,665.6z M2063.7,627.9
				c-0.1,0.1-0.2,0.1-0.3,0.2c-6.9,4.9-12.6,9.5-17.5,13.7c-6-10.4-10.8-17.4-13.5-21.1c7.2-7.1,16.4-14.4,27.8-21.1
				C2062.5,609.8,2063.5,619.3,2063.7,627.9z M2026.1,627.4c2.8,4.1,7.4,11,13,20.7c-8.3,8.1-13,14.6-15.6,19.3
				c-4.6-6-9.2-11.7-13.8-16.2C2011.8,646.9,2016.9,637.8,2026.1,627.4z M2199,720.6c-14.7,25.2-40.7,41.8-77.2,49.5
				c-42.6,8.9-101.8-6.4-128.5-78.9c-8.1-21.9-7-37-3.2-39.2c3-1.7,6.8,0,10.9,3.6c0,0,0,0,0,0c5.3,4.6,11.3,12.3,17.1,19.8
				c14.2,18.2,30.2,38.9,49.9,35.5c30.8-5.4,64.6,7.6,65,7.7c2.4,0.9,5-0.3,5.9-2.6c0.9-2.4-0.2-5-2.6-5.9
				c-1.5-0.6-36.5-14-69.9-8.2c-4.7,0.8-9.3-0.6-13.9-3.5c9.3-12.2,32.6-51.1,12.7-117.2c-1.2-4.1-0.7-8.5,1.6-12.1
				c2.2-3.6,5.8-5.9,9.9-6.6c7.2-1.2,14.2,3.3,16.3,10.3c3.9,13.4,7,31.1,9,51.1c0.2,2.5,2.5,4.4,5,4.1c2.5-0.2,4.4-2.5,4.1-5
				c-1.8-17.9-4.3-33.5-7.6-46.5l-2.6-16.4c-0.5-3.1,0.3-6.2,2.3-8.7c2-2.5,4.8-4,8-4.2c4.4-0.3,8.6,2.1,10.7,6
				c3.2,6.1,5.6,12.5,6.9,18.5c0,0.2,0.1,0.5,0.2,0.7c0,0.1,0,0.2,0.1,0.3c0,0,0,0,0,0c0,0.1,0,0.2,0.1,0.2
				c6.9,26.8,6.5,65.5,6.5,65.9c0,2.5,2,4.6,4.5,4.7c2.5,0,4.6-2,4.7-4.5c0-1.6,0.4-40.1-6.7-68.1c0-0.2-0.1-0.5-0.2-0.7
				c-0.7-3.3-0.1-6.6,1.7-9.4c1.9-3,4.8-5,8.3-5.6c6.2-1.2,12.4,2.3,14.3,8.6l6.4,20.2c2.9,17.2,5.5,43.6-0.8,64.1
				c-0.8,2.4,0.6,5,3,5.7c2.4,0.8,5-0.6,5.7-3c7.4-24.1,4-54.2-0.2-75.3c-0.6-3.2,0.1-6.3,2.1-8.9c2-2.6,4.9-4.2,8.2-4.4
				c5.2-0.4,10,2.8,11.5,7.8C2218.9,635.2,2219.2,685.9,2199,720.6z"/>
			<path class="st1" d="M206.8,1070.8l19.9-202.4V602.6c0-26.4-21.5-47.9-47.8-47.9c-26.4,0-47.8,21.5-47.8,47.9l0,266.4l19.8,201.8
				c0,0,0,0.1,0,0.1l2.7,27c-7.9,1.2-14,8-14,16.3v15.1c0,9.1,7.4,16.5,16.5,16.5h45.6c9.1,0,16.5-7.4,16.5-16.5v-15.1
				c0-8.3-6.1-15.1-14-16.3L206.8,1070.8C206.8,1070.9,206.8,1070.9,206.8,1070.8z M206.7,947.8h-55.6l-2.6-26.6h60.8L206.7,947.8z
				 M205.5,960l-2.6,26.6c-0.2,0-0.4,0-0.6,0h-46.8c-0.2,0-0.4,0-0.6,0l-2.6-26.6H205.5z M199.1,1025.4h-40.3l-2.6-26.6h45.6
				L199.1,1025.4z M159.9,1037.6h37.9l-2.6,26.6h-32.7L159.9,1037.6z M163.7,1076.4H194l-2.1,21.4h-26.1L163.7,1076.4z M143.3,602.6
				c0-19.7,16-35.7,35.6-35.7c19.7,0,35.6,16,35.6,35.7l0,265.2l-4.1,41.2h-63.2l-4-40.6V602.6z M206,1114.3v15.1
				c0,2.4-1.9,4.3-4.3,4.3h-45.6c-2.4,0-4.3-1.9-4.3-4.3v-15.1c0-2.4,1.9-4.3,4.3-4.3h4.2h37.1h4.2
				C204.1,1110,206,1111.9,206,1114.3z"/>
			<path class="st1" d="M244.2,459.7c0.2-0.1,0.3-0.3,0.4-0.4c1.5-1.7,2.9-3.5,4.3-5.4c0,0,0,0,0,0c0.8-1.1,1.6-2.2,2.4-3.4
				c0,0,0-0.1,0.1-0.1c0.8-1.1,1.5-2.3,2.2-3.4c0-0.1,0.1-0.1,0.1-0.2c0.7-1.2,1.4-2.3,2-3.5c0-0.1,0.1-0.1,0.1-0.2
				c0.7-1.2,1.3-2.4,1.9-3.7c0.3-0.6,0.6-1.3,0.9-1.9c0.3-0.6,0.5-1.2,0.8-1.8c0.4-0.8,0.7-1.7,1-2.5c0.2-0.4,0.3-0.8,0.5-1.2
				c0.3-0.9,0.6-1.8,0.9-2.7c0.1-0.4,0.3-0.8,0.4-1.1c0.3-0.9,0.6-1.8,0.8-2.7c0.1-0.4,0.2-0.8,0.3-1.2c0.2-0.9,0.5-1.8,0.7-2.7
				c0.1-0.4,0.2-0.9,0.3-1.4c0.2-0.9,0.4-1.7,0.5-2.6c0.1-0.5,0.2-1,0.3-1.6c0.1-0.8,0.3-1.6,0.4-2.4c0.1-0.6,0.2-1.3,0.2-1.9
				c0.1-0.7,0.2-1.4,0.2-2.2c0.1-0.8,0.1-1.6,0.2-2.4c0-0.6,0.1-1.1,0.1-1.7c0.1-1.4,0.1-2.8,0.1-4.2c0-1.4,0-2.8-0.1-4.2
				c0-0.6-0.1-1.1-0.1-1.7c-0.1-0.8-0.1-1.6-0.2-2.4c-0.1-0.7-0.2-1.4-0.2-2.2c-0.1-0.6-0.2-1.3-0.2-1.9c-0.1-0.8-0.2-1.6-0.4-2.4
				c-0.1-0.5-0.2-1.1-0.3-1.6c-0.2-0.9-0.3-1.7-0.5-2.6c-0.1-0.5-0.2-0.9-0.3-1.4c-0.2-0.9-0.4-1.8-0.7-2.6
				c-0.1-0.4-0.2-0.8-0.4-1.2c-0.3-0.9-0.5-1.8-0.8-2.7c-0.1-0.4-0.3-0.8-0.4-1.2c-0.3-0.9-0.6-1.8-0.9-2.6
				c-0.2-0.4-0.3-0.9-0.5-1.3c-0.3-0.8-0.6-1.6-1-2.4c-0.3-0.7-0.6-1.4-0.9-2c-0.2-0.5-0.5-1.1-0.7-1.6c-1.2-2.5-2.6-5-4-7.4
				c0,0,0,0,0,0c-2.6-4.3-5.6-8.5-9-12.3c-0.1-0.1-0.2-0.2-0.3-0.2c-16-18.1-39.4-29.6-65.5-29.6c-26,0-49.4,11.5-65.5,29.6
				c-0.1,0.1-0.2,0.2-0.3,0.2c-3.4,3.9-6.4,8-9,12.3c0,0,0,0,0,0c-1.5,2.4-2.8,4.8-4,7.4c-0.3,0.5-0.5,1.1-0.7,1.6
				c-0.3,0.7-0.6,1.3-0.9,2c-0.3,0.8-0.7,1.6-1,2.4c-0.2,0.4-0.3,0.8-0.5,1.3c-0.3,0.9-0.6,1.7-0.9,2.6c-0.1,0.4-0.3,0.8-0.4,1.2
				c-0.3,0.9-0.5,1.8-0.8,2.7c-0.1,0.4-0.2,0.8-0.4,1.2c-0.2,0.9-0.5,1.8-0.7,2.6c-0.1,0.5-0.2,0.9-0.3,1.4
				c-0.2,0.8-0.4,1.7-0.5,2.6c-0.1,0.5-0.2,1-0.3,1.6c-0.1,0.8-0.3,1.6-0.4,2.4c-0.1,0.6-0.2,1.3-0.2,1.9c-0.1,0.7-0.2,1.4-0.2,2.2
				c-0.1,0.8-0.1,1.6-0.2,2.4c0,0.6-0.1,1.1-0.1,1.7c-0.1,1.4-0.1,2.8-0.1,4.2c0,1.4,0,2.8,0.1,4.2c0,0.6,0.1,1.1,0.1,1.7
				c0.1,0.8,0.1,1.6,0.2,2.4c0.1,0.7,0.2,1.5,0.2,2.2c0.1,0.6,0.1,1.3,0.2,1.9c0.1,0.8,0.2,1.6,0.4,2.4c0.1,0.5,0.2,1,0.3,1.6
				c0.2,0.9,0.3,1.7,0.5,2.6c0.1,0.5,0.2,0.9,0.3,1.4c0.2,0.9,0.4,1.8,0.7,2.7c0.1,0.4,0.2,0.8,0.3,1.2c0.3,0.9,0.5,1.8,0.8,2.7
				c0.1,0.4,0.3,0.8,0.4,1.1c0.3,0.9,0.6,1.8,0.9,2.7c0.1,0.4,0.3,0.8,0.5,1.2c0.3,0.8,0.7,1.7,1,2.5c0.3,0.6,0.5,1.2,0.8,1.8
				c0.3,0.6,0.6,1.3,0.9,1.9c0.6,1.2,1.2,2.5,1.9,3.7c0,0.1,0.1,0.1,0.1,0.2c0.6,1.2,1.3,2.4,2,3.5c0,0.1,0.1,0.1,0.1,0.2
				c0.7,1.2,1.4,2.3,2.2,3.4c0,0,0,0.1,0.1,0.1c0.8,1.1,1.6,2.3,2.4,3.4c0,0,0,0,0,0c1.4,1.8,2.8,3.6,4.3,5.4
				c0.1,0.2,0.3,0.3,0.4,0.4c16,18,39.4,29.4,65.3,29.4C204.8,489.1,228.2,477.7,244.2,459.7z M113.5,441.4
				c-0.1-0.2-0.2-0.3-0.3-0.5c-0.5-0.8-0.9-1.6-1.4-2.4c-0.2-0.3-0.3-0.6-0.5-1c-0.4-0.7-0.7-1.3-1-2c-0.2-0.4-0.4-0.8-0.6-1.2
				c-0.3-0.6-0.6-1.3-0.9-1.9c-0.4-0.8-0.7-1.6-1-2.4c-0.2-0.6-0.5-1.1-0.7-1.7c-0.2-0.6-0.4-1.3-0.7-1.9c-0.1-0.4-0.3-0.8-0.4-1.3
				c-0.2-0.7-0.4-1.3-0.6-2c-0.1-0.4-0.2-0.8-0.4-1.3c-0.2-0.7-0.4-1.3-0.5-2c-0.1-0.4-0.2-0.8-0.3-1.3c-0.3-1.1-0.5-2.2-0.7-3.3
				c-0.1-0.6-0.2-1.2-0.3-1.8c-0.1-0.5-0.2-1.1-0.2-1.6c-0.1-0.6-0.2-1.3-0.2-1.9c-0.1-0.5-0.1-1-0.2-1.5c-0.1-0.7-0.1-1.5-0.2-2.2
				c0-0.4-0.1-0.8-0.1-1.2c-0.1-1.2-0.1-2.4-0.1-3.5c0-1.2,0-2.4,0.1-3.5c0-0.4,0-0.8,0.1-1.2c0-0.8,0.1-1.5,0.2-2.2
				c0-0.5,0.1-1,0.2-1.5c0.1-0.6,0.2-1.3,0.2-1.9c0.1-0.5,0.1-1.1,0.2-1.6c0.1-0.6,0.2-1.2,0.3-1.8c0.2-1.1,0.4-2.2,0.7-3.3
				c0.1-0.4,0.2-0.8,0.3-1.3c0.2-0.7,0.3-1.3,0.5-2c0.1-0.4,0.2-0.8,0.4-1.3c0.2-0.7,0.4-1.3,0.6-2c0.1-0.4,0.3-0.9,0.4-1.3
				c0.2-0.6,0.4-1.3,0.7-1.9c0.2-0.6,0.5-1.2,0.7-1.8c0.3-0.8,0.6-1.6,1-2.3c0.3-0.7,0.6-1.3,0.9-1.9c0.2-0.4,0.4-0.8,0.6-1.2
				c0.3-0.7,0.7-1.4,1.1-2.1c0.2-0.3,0.3-0.6,0.5-0.9c0.5-0.8,0.9-1.6,1.4-2.4c0.1-0.2,0.2-0.3,0.3-0.5c1.2-1.9,2.4-3.8,3.8-5.6
				c3.9,5.3,7.1,11,9.5,17.1l-1.7,0.8c-2.7,1.3-3.9,4.5-2.6,7.2c0.9,2,2.9,3.1,4.9,3.1c0.8,0,1.5-0.2,2.3-0.5l0.5-0.2
				c1.1,4.5,1.8,9.1,2,13.8h-1.8c-3,0-5.4,2.4-5.4,5.4c0,3,2.4,5.4,5.4,5.4h1.6c-0.3,3.9-1,7.7-1.9,11.5l-0.5-0.2
				c-2.7-1.3-5.9-0.1-7.2,2.6c-1.3,2.7-0.1,5.9,2.6,7.2l1.7,0.8c-2.4,6-5.6,11.8-9.5,17.1C115.9,445.2,114.6,443.4,113.5,441.4z
				 M178.9,478.3c-21.3,0-40.6-8.7-54.5-22.8c5-6.4,9.1-13.5,12.1-20.9l1.8,0.9c0.7,0.3,1.5,0.5,2.3,0.5c2,0,4-1.2,4.9-3.1
				c1.3-2.7,0.1-5.9-2.6-7.2l-2.9-1.4c1.4-5.3,2.3-10.7,2.7-16.2h2.3c3,0,5.4-2.4,5.4-5.4c0-3-2.4-5.4-5.4-5.4h-2.1
				c-0.3-6.3-1.3-12.4-2.9-18.4l2.9-1.4c2.7-1.3,3.9-4.5,2.6-7.2c-1.3-2.7-4.5-3.9-7.2-2.6l-1.8,0.9c-3-7.5-7.1-14.5-12.1-20.9
				c13.9-14.1,33.2-22.8,54.5-22.8c21.3,0,40.6,8.7,54.5,22.8c-5,6.4-9.1,13.5-12.1,20.9l-1.8-0.9c-2.7-1.3-5.9-0.1-7.2,2.6
				c-1.3,2.7-0.1,5.9,2.6,7.2l2.9,1.4c-1.6,6-2.6,12.2-2.9,18.4h-3.5c-3,0-5.4,2.4-5.4,5.4c0,3,2.4,5.4,5.4,5.4h3.6
				c0.4,5.5,1.3,10.9,2.7,16.2l-2.9,1.4c-2.7,1.3-3.9,4.5-2.6,7.2c0.9,2,2.9,3.1,4.9,3.1c0.8,0,1.5-0.2,2.3-0.5l1.8-0.9
				c3,7.5,7.1,14.5,12.1,20.9C219.5,469.5,200.2,478.3,178.9,478.3z M231.1,429.9l1.7-0.8c2.7-1.3,3.9-4.5,2.6-7.2
				c-1.3-2.7-4.5-3.9-7.2-2.6l-0.5,0.2c-0.9-3.8-1.5-7.6-1.9-11.5h0.3c3,0,5.4-2.4,5.4-5.4c0-3-2.4-5.4-5.4-5.4h-0.4
				c0.3-4.7,0.9-9.3,2-13.8l0.5,0.2c0.7,0.3,1.5,0.5,2.3,0.5c2,0,4-1.2,4.9-3.1c1.3-2.7,0.1-5.9-2.6-7.2l-1.7-0.8
				c2.4-6,5.6-11.8,9.5-17.1c1.3,1.8,2.6,3.7,3.8,5.6c0.1,0.2,0.2,0.3,0.3,0.5c0.5,0.8,0.9,1.6,1.4,2.4c0.2,0.3,0.3,0.6,0.5,0.9
				c0.4,0.7,0.7,1.4,1.1,2.1c0.2,0.4,0.4,0.8,0.6,1.2c0.3,0.6,0.6,1.3,0.9,1.9c0.3,0.8,0.7,1.5,1,2.3c0.2,0.6,0.5,1.2,0.7,1.8
				c0.2,0.6,0.4,1.3,0.7,1.9c0.1,0.4,0.3,0.8,0.4,1.3c0.2,0.6,0.4,1.3,0.6,2c0.1,0.4,0.2,0.8,0.4,1.3c0.2,0.7,0.4,1.3,0.5,2
				c0.1,0.4,0.2,0.8,0.3,1.3c0.2,1.1,0.5,2.2,0.7,3.3c0.1,0.6,0.2,1.2,0.3,1.8c0.1,0.5,0.2,1.1,0.2,1.6c0.1,0.6,0.2,1.3,0.2,1.9
				c0.1,0.5,0.1,1,0.2,1.5c0.1,0.7,0.1,1.5,0.2,2.2c0,0.4,0.1,0.8,0.1,1.2c0.1,1.2,0.1,2.4,0.1,3.5c0,1.2,0,2.4-0.1,3.5
				c0,0.4,0,0.8-0.1,1.2c0,0.8-0.1,1.5-0.2,2.2c0,0.5-0.1,1-0.2,1.5c-0.1,0.6-0.2,1.3-0.2,1.9c-0.1,0.5-0.1,1.1-0.2,1.6
				c-0.1,0.6-0.2,1.2-0.3,1.8c-0.2,1.1-0.4,2.2-0.7,3.3c-0.1,0.4-0.2,0.8-0.3,1.3c-0.2,0.7-0.3,1.3-0.5,2c-0.1,0.4-0.2,0.8-0.4,1.3
				c-0.2,0.7-0.4,1.3-0.6,2c-0.1,0.4-0.3,0.8-0.4,1.3c-0.2,0.6-0.4,1.3-0.7,1.9c-0.2,0.6-0.4,1.1-0.7,1.7c-0.3,0.8-0.7,1.6-1,2.4
				c-0.3,0.6-0.6,1.3-0.9,1.9c-0.2,0.4-0.4,0.8-0.6,1.2c-0.3,0.7-0.7,1.4-1,2c-0.2,0.3-0.3,0.6-0.5,1c-0.4,0.8-0.9,1.6-1.4,2.4
				c-0.1,0.2-0.2,0.3-0.3,0.5c-1.2,1.9-2.4,3.8-3.8,5.6C236.7,441.7,233.5,436,231.1,429.9z"/>
			<path class="st1" d="M220.2,1464c39.2-8.2,67.2-26.3,83.3-53.8c21.6-37,21.6-90.2,0-158.1c-0.1-0.2-0.1-0.4-0.2-0.6
				c-3.1-8.7-11.5-14.3-20.8-13.6c-5.9,0.4-11.3,3.3-14.8,8c-0.1,0.1-0.1,0.1-0.2,0.2l-0.1-0.3c-0.1-0.2-0.1-0.4-0.2-0.6
				c-3.5-10.1-14-16.2-24.6-14.2c-5.4,1-10.2,4-13.4,8.4c-0.8-1.9-1.7-3.7-2.7-5.6c-3.8-7.1-11.4-11.4-19.4-10.9
				c-5.7,0.4-11,3.2-14.5,7.6c-2.5,3.2-4,7.1-4.4,11.1c-4.8-3-10.6-4.4-16.5-3.4c-6.7,1.1-12.7,5-16.3,10.8
				c-3.6,5.9-4.6,13-2.6,19.7c0.7,2.2,1.3,4.3,1.8,6.4c-34.1,19-50.1,44.1-55.7,55c-5.5-3.5-11-4.5-16.8-1.3
				c-12,6.6-8.1,31.2-1,50.4C95.7,1418.5,141.3,1480.5,220.2,1464z M126.4,1360.4c1.1-2.8,4.3-9.3,13.9-19
				c3.2,5.8,6.6,12.4,10.1,19.8c0.2,0.3,0.4,0.7,0.6,0.9c-3.3,7.3-6.9,12.5-9.2,15.6C136.5,1372.9,131.3,1366.7,126.4,1360.4z
				 M155.4,1350.5c-2.9-5.7-5.6-11-8.2-15.7c3.6-3.2,7.9-6.7,12.9-10.5C159.5,1334.4,157.7,1343.1,155.4,1350.5z M160.3,1312.8
				c-0.1,0.1-0.2,0.1-0.3,0.2c-6.9,4.9-12.6,9.5-17.5,13.7c-6-10.4-10.8-17.4-13.5-21.1c7.2-7.1,16.4-14.4,27.8-21.1
				C159.1,1294.8,160.1,1304.2,160.3,1312.8z M122.7,1312.3c2.8,4.1,7.4,11,13,20.7c-8.3,8.1-13,14.6-15.6,19.3
				c-4.6-6-9.2-11.7-13.8-16.2C108.4,1331.8,113.5,1322.7,122.7,1312.3z M86.6,1336.9c3-1.7,6.8,0,10.9,3.6c0,0,0,0,0,0
				c5.3,4.6,11.3,12.3,17.1,19.8c14.2,18.2,30.2,38.9,49.9,35.5c30.8-5.4,64.6,7.6,65,7.7c2.4,0.9,5-0.3,5.9-2.6
				c0.9-2.4-0.2-5-2.6-5.9c-1.5-0.6-36.5-14-69.9-8.2c-4.7,0.8-9.3-0.6-13.9-3.5c9.3-12.2,32.6-51.1,12.7-117.2
				c-1.2-4.1-0.7-8.5,1.6-12.1c2.2-3.6,5.8-5.9,9.9-6.6c7.2-1.2,14.2,3.3,16.3,10.3c3.9,13.4,7,31.1,9,51.1c0.2,2.5,2.5,4.4,5,4.1
				c2.5-0.2,4.4-2.5,4.1-5c-1.8-17.9-4.3-33.5-7.6-46.5l-2.6-16.4c-0.5-3.1,0.3-6.2,2.3-8.7c2-2.5,4.8-4,8-4.2
				c4.4-0.3,8.6,2.1,10.7,6c3.2,6.1,5.6,12.5,6.9,18.5c0,0.2,0.1,0.5,0.2,0.7c0,0.1,0,0.2,0.1,0.3c0,0,0,0,0,0c0,0.1,0,0.2,0.1,0.2
				c6.9,26.8,6.5,65.5,6.5,65.9c0,2.5,2,4.6,4.5,4.7c2.5,0,4.6-2,4.7-4.5c0-1.6,0.4-40.1-6.7-68.1c0-0.2-0.1-0.5-0.2-0.7
				c-0.7-3.3-0.1-6.6,1.7-9.4c1.9-3,4.8-5,8.3-5.6c6.2-1.2,12.4,2.3,14.3,8.6l6.4,20.2c2.9,17.2,5.5,43.6-0.8,64.1
				c-0.8,2.4,0.6,5,3,5.7c2.4,0.8,5-0.6,5.7-3c7.4-24.1,4-54.2-0.2-75.3c-0.6-3.2,0.1-6.3,2.1-8.9c2-2.6,4.9-4.2,8.2-4.4
				c5.2-0.4,10,2.8,11.5,7.8c20.8,65.3,21.1,116,0.8,150.7c-14.7,25.2-40.7,41.8-77.2,49.5c-42.6,8.9-101.8-6.4-128.5-78.9
				C81.7,1354.2,82.8,1339,86.6,1336.9z"/>
			<path class="st1" d="M196.9,1786.7c-26.4,0-47.8,21.5-47.8,47.9l0,37.4h12.2v-37.4c0-19.7,16-35.7,35.6-35.7
				c19.7,0,35.6,16,35.6,35.7l0,37.4h12.2v-37.4C244.7,1808.2,223.3,1786.7,196.9,1786.7z"/>
			<path class="st1" d="M2100.5,1786.7c-26.4,0-47.8,21.5-47.8,47.9l0,37.4h12.2v-37.4c0-19.7,16-35.7,35.6-35.7
				c19.7,0,35.6,16,35.6,35.7l0,37.4h12.2v-37.4C2148.3,1808.2,2126.8,1786.7,2100.5,1786.7z"/>
			<path class="st1" d="M284,1625.2c-0.1-0.7-0.2-1.4-0.2-2.2c-0.1-0.6-0.2-1.3-0.2-1.9c-0.1-0.8-0.2-1.6-0.4-2.4
				c-0.1-0.5-0.2-1.1-0.3-1.6c-0.2-0.9-0.3-1.7-0.5-2.6c-0.1-0.5-0.2-0.9-0.3-1.4c-0.2-0.9-0.4-1.8-0.7-2.6
				c-0.1-0.4-0.2-0.8-0.4-1.2c-0.3-0.9-0.5-1.8-0.8-2.7c-0.1-0.4-0.3-0.8-0.4-1.2c-0.3-0.9-0.6-1.8-0.9-2.6
				c-0.2-0.4-0.3-0.9-0.5-1.3c-0.3-0.8-0.6-1.6-1-2.4c-0.3-0.7-0.6-1.4-0.9-2c-0.2-0.5-0.5-1.1-0.7-1.6c-1.2-2.5-2.6-5-4-7.4
				c0,0,0,0,0,0c-2.6-4.3-5.6-8.5-9-12.3c-0.1-0.1-0.2-0.2-0.3-0.2c-16-18.1-39.4-29.6-65.5-29.6c-26,0-49.4,11.5-65.5,29.6
				c-0.1,0.1-0.2,0.2-0.3,0.2c-3.4,3.9-6.4,8-9,12.3c0,0,0,0,0,0c-1.5,2.4-2.8,4.8-4,7.4c-0.3,0.5-0.5,1.1-0.7,1.6
				c-0.3,0.7-0.6,1.3-0.9,2c-0.3,0.8-0.7,1.6-1,2.4c-0.2,0.4-0.3,0.8-0.5,1.3c-0.3,0.9-0.6,1.7-0.9,2.6c-0.1,0.4-0.3,0.8-0.4,1.2
				c-0.3,0.9-0.5,1.8-0.8,2.7c-0.1,0.4-0.2,0.8-0.4,1.2c-0.2,0.9-0.5,1.8-0.7,2.6c-0.1,0.5-0.2,0.9-0.3,1.4
				c-0.2,0.8-0.4,1.7-0.5,2.6c-0.1,0.5-0.2,1-0.3,1.6c-0.1,0.8-0.3,1.6-0.4,2.4c-0.1,0.6-0.2,1.3-0.2,1.9c-0.1,0.7-0.2,1.4-0.2,2.2
				c-0.1,0.8-0.1,1.6-0.2,2.4c0,0.6-0.1,1.1-0.1,1.7c-0.1,1.4-0.1,2.8-0.1,4.2c0,1.4,0,2.8,0.1,4.2c0,0.6,0.1,1.1,0.1,1.7
				c0.1,0.8,0.1,1.6,0.2,2.4c0.1,0.7,0.2,1.5,0.2,2.2c0.1,0.6,0.1,1.3,0.2,1.9c0.1,0.8,0.2,1.6,0.4,2.4c0.1,0.5,0.2,1,0.3,1.6
				c0.2,0.9,0.3,1.7,0.5,2.6c0.1,0.5,0.2,0.9,0.3,1.4c0.2,0.9,0.4,1.8,0.7,2.7c0.1,0.4,0.2,0.8,0.3,1.2c0.3,0.9,0.5,1.8,0.8,2.7
				c0.1,0.4,0.3,0.8,0.4,1.1c0.3,0.9,0.6,1.8,0.9,2.7c0.1,0.4,0.3,0.8,0.5,1.2c0.3,0.8,0.7,1.7,1,2.5c0.3,0.6,0.5,1.2,0.8,1.8
				c0.3,0.6,0.6,1.3,0.9,1.9c0.6,1.2,1.2,2.5,1.9,3.7c0,0.1,0.1,0.1,0.1,0.2c0.6,1.2,1.3,2.4,2,3.5c0,0.1,0.1,0.1,0.1,0.2
				c0.7,1.2,1.4,2.3,2.2,3.4c0,0,0,0.1,0.1,0.1c0.8,1.1,1.6,2.3,2.4,3.4c0,0,0,0,0,0c1.4,1.8,2.8,3.6,4.3,5.4
				c0.1,0.2,0.3,0.3,0.4,0.4c16,18,39.4,29.4,65.3,29.4c25.9,0,49.3-11.4,65.3-29.4c0.2-0.1,0.3-0.3,0.4-0.4
				c1.5-1.7,2.9-3.5,4.3-5.4c0,0,0,0,0,0c0.8-1.1,1.6-2.2,2.4-3.4c0,0,0-0.1,0.1-0.1c0.8-1.1,1.5-2.3,2.2-3.4c0-0.1,0.1-0.1,0.1-0.2
				c0.7-1.2,1.4-2.3,2-3.5c0-0.1,0.1-0.1,0.1-0.2c0.7-1.2,1.3-2.4,1.9-3.7c0.3-0.6,0.6-1.3,0.9-1.9c0.3-0.6,0.5-1.2,0.8-1.8
				c0.4-0.8,0.7-1.7,1-2.5c0.2-0.4,0.3-0.8,0.5-1.2c0.3-0.9,0.6-1.8,0.9-2.7c0.1-0.4,0.3-0.8,0.4-1.1c0.3-0.9,0.6-1.8,0.8-2.7
				c0.1-0.4,0.2-0.8,0.3-1.2c0.2-0.9,0.5-1.8,0.7-2.7c0.1-0.4,0.2-0.9,0.3-1.4c0.2-0.9,0.4-1.7,0.5-2.6c0.1-0.5,0.2-1,0.3-1.6
				c0.1-0.8,0.3-1.6,0.4-2.4c0.1-0.6,0.2-1.3,0.2-1.9c0.1-0.7,0.2-1.4,0.2-2.2c0.1-0.8,0.1-1.6,0.2-2.4c0-0.6,0.1-1.1,0.1-1.7
				c0.1-1.4,0.1-2.8,0.1-4.2c0-1.4,0-2.8-0.1-4.2c0-0.6-0.1-1.1-0.1-1.7C284.1,1626.8,284,1626,284,1625.2z M131.4,1673.5
				c-0.1-0.2-0.2-0.3-0.3-0.5c-0.5-0.8-0.9-1.6-1.4-2.4c-0.2-0.3-0.3-0.6-0.5-1c-0.4-0.7-0.7-1.3-1-2c-0.2-0.4-0.4-0.8-0.6-1.2
				c-0.3-0.6-0.6-1.3-0.9-1.9c-0.4-0.8-0.7-1.6-1-2.4c-0.2-0.6-0.5-1.1-0.7-1.7c-0.2-0.6-0.4-1.3-0.7-1.9c-0.1-0.4-0.3-0.8-0.4-1.3
				c-0.2-0.7-0.4-1.3-0.6-2c-0.1-0.4-0.2-0.8-0.4-1.3c-0.2-0.7-0.4-1.3-0.5-2c-0.1-0.4-0.2-0.8-0.3-1.3c-0.3-1.1-0.5-2.2-0.7-3.3
				c-0.1-0.6-0.2-1.2-0.3-1.8c-0.1-0.5-0.2-1.1-0.2-1.6c-0.1-0.6-0.2-1.3-0.2-1.9c-0.1-0.5-0.1-1-0.2-1.5c-0.1-0.7-0.1-1.5-0.2-2.2
				c0-0.4-0.1-0.8-0.1-1.2c-0.1-1.2-0.1-2.4-0.1-3.5c0-1.2,0-2.4,0.1-3.5c0-0.4,0-0.8,0.1-1.2c0-0.8,0.1-1.5,0.2-2.2
				c0-0.5,0.1-1,0.2-1.5c0.1-0.6,0.2-1.3,0.2-1.9c0.1-0.5,0.1-1.1,0.2-1.6c0.1-0.6,0.2-1.2,0.3-1.8c0.2-1.1,0.4-2.2,0.7-3.3
				c0.1-0.4,0.2-0.8,0.3-1.3c0.2-0.7,0.3-1.3,0.5-2c0.1-0.4,0.2-0.8,0.4-1.3c0.2-0.7,0.4-1.3,0.6-2c0.1-0.4,0.3-0.9,0.4-1.3
				c0.2-0.6,0.4-1.3,0.7-1.9c0.2-0.6,0.5-1.2,0.7-1.8c0.3-0.8,0.6-1.6,1-2.3c0.3-0.7,0.6-1.3,0.9-1.9c0.2-0.4,0.4-0.8,0.6-1.2
				c0.3-0.7,0.7-1.4,1.1-2.1c0.2-0.3,0.3-0.6,0.5-0.9c0.5-0.8,0.9-1.6,1.4-2.4c0.1-0.2,0.2-0.3,0.3-0.5c1.2-1.9,2.4-3.8,3.8-5.6
				c3.9,5.3,7.1,11,9.5,17.1l-1.7,0.8c-2.7,1.3-3.9,4.5-2.6,7.2c0.9,2,2.9,3.1,4.9,3.1c0.8,0,1.5-0.2,2.3-0.5l0.5-0.2
				c1.1,4.5,1.8,9.1,2,13.8h-1.8c-3,0-5.4,2.4-5.4,5.4c0,3,2.4,5.4,5.4,5.4h1.6c-0.3,3.9-1,7.7-1.9,11.5l-0.5-0.2
				c-2.7-1.3-5.9-0.1-7.2,2.6c-1.3,2.7-0.1,5.9,2.6,7.2l1.7,0.8c-2.4,6-5.6,11.8-9.5,17.1C133.9,1677.3,132.6,1675.4,131.4,1673.5z
				 M196.9,1710.3c-21.3,0-40.6-8.7-54.5-22.8c5-6.4,9.1-13.5,12.1-20.9l1.8,0.9c0.7,0.3,1.5,0.5,2.3,0.5c2,0,4-1.2,4.9-3.1
				c1.3-2.7,0.1-5.9-2.6-7.2l-2.9-1.4c1.4-5.3,2.3-10.7,2.7-16.2h2.3c3,0,5.4-2.4,5.4-5.4c0-3-2.4-5.4-5.4-5.4h-2.1
				c-0.3-6.3-1.3-12.4-2.9-18.4l2.9-1.4c2.7-1.3,3.9-4.5,2.6-7.2c-1.3-2.7-4.5-3.9-7.2-2.6l-1.8,0.9c-3-7.5-7.1-14.5-12.1-20.9
				c13.9-14.1,33.2-22.8,54.5-22.8c21.3,0,40.6,8.7,54.5,22.8c-5,6.4-9.1,13.5-12.1,20.9l-1.8-0.9c-2.7-1.3-5.9-0.1-7.2,2.6
				c-1.3,2.7-0.1,5.9,2.6,7.2l2.9,1.4c-1.6,6-2.6,12.2-2.9,18.4h-3.5c-3,0-5.4,2.4-5.4,5.4c0,3,2.4,5.4,5.4,5.4h3.6
				c0.4,5.5,1.3,10.9,2.7,16.2l-2.9,1.4c-2.7,1.3-3.9,4.5-2.6,7.2c0.9,2,2.9,3.1,4.9,3.1c0.8,0,1.5-0.2,2.3-0.5l1.8-0.9
				c3,7.5,7.1,14.5,12.1,20.9C237.5,1701.5,218.2,1710.3,196.9,1710.3z M273.5,1637.1c0,0.4,0,0.8-0.1,1.2c0,0.8-0.1,1.5-0.2,2.2
				c0,0.5-0.1,1-0.2,1.5c-0.1,0.6-0.2,1.3-0.2,1.9c-0.1,0.5-0.1,1.1-0.2,1.6c-0.1,0.6-0.2,1.2-0.3,1.8c-0.2,1.1-0.4,2.2-0.7,3.3
				c-0.1,0.4-0.2,0.8-0.3,1.3c-0.2,0.7-0.3,1.3-0.5,2c-0.1,0.4-0.2,0.8-0.4,1.3c-0.2,0.7-0.4,1.3-0.6,2c-0.1,0.4-0.3,0.8-0.4,1.3
				c-0.2,0.6-0.4,1.3-0.7,1.9c-0.2,0.6-0.4,1.1-0.7,1.7c-0.3,0.8-0.7,1.6-1,2.4c-0.3,0.6-0.6,1.3-0.9,1.9c-0.2,0.4-0.4,0.8-0.6,1.2
				c-0.3,0.7-0.7,1.4-1,2c-0.2,0.3-0.3,0.6-0.5,1c-0.4,0.8-0.9,1.6-1.4,2.4c-0.1,0.2-0.2,0.3-0.3,0.5c-1.2,1.9-2.4,3.8-3.8,5.6
				c-3.9-5.3-7.1-11-9.5-17.1l1.7-0.8c2.7-1.3,3.9-4.5,2.6-7.2c-1.3-2.7-4.5-3.9-7.2-2.6l-0.5,0.2c-0.9-3.8-1.5-7.6-1.9-11.5h0.3
				c3,0,5.4-2.4,5.4-5.4c0-3-2.4-5.4-5.4-5.4h-0.4c0.3-4.7,0.9-9.3,2-13.8l0.5,0.2c0.7,0.3,1.5,0.5,2.3,0.5c2,0,4-1.2,4.9-3.1
				c1.3-2.7,0.1-5.9-2.6-7.2l-1.7-0.8c2.4-6,5.6-11.8,9.5-17.1c1.3,1.8,2.6,3.7,3.8,5.6c0.1,0.2,0.2,0.3,0.3,0.5
				c0.5,0.8,0.9,1.6,1.4,2.4c0.2,0.3,0.3,0.6,0.5,0.9c0.4,0.7,0.7,1.4,1.1,2.1c0.2,0.4,0.4,0.8,0.6,1.2c0.3,0.6,0.6,1.3,0.9,1.9
				c0.3,0.8,0.7,1.5,1,2.3c0.2,0.6,0.5,1.2,0.7,1.8c0.2,0.6,0.4,1.3,0.7,1.9c0.1,0.4,0.3,0.8,0.4,1.3c0.2,0.6,0.4,1.3,0.6,2
				c0.1,0.4,0.2,0.8,0.4,1.3c0.2,0.7,0.4,1.3,0.5,2c0.1,0.4,0.2,0.8,0.3,1.3c0.2,1.1,0.5,2.2,0.7,3.3c0.1,0.6,0.2,1.2,0.3,1.8
				c0.1,0.5,0.2,1.1,0.2,1.6c0.1,0.6,0.2,1.3,0.2,1.9c0.1,0.5,0.1,1,0.2,1.5c0.1,0.7,0.1,1.5,0.2,2.2c0,0.4,0.1,0.8,0.1,1.2
				c0.1,1.2,0.1,2.4,0.1,3.5C273.6,1634.7,273.5,1635.9,273.5,1637.1z"/>
			<path class="st1" d="M1433.5,125.1c0-26.4-21.5-47.9-47.8-47.9l-266.1,0L918.1,97.1c0,0-0.1,0-0.1,0l-27,2.7
				c-1.2-7.9-8-14-16.3-14h-15.1c-9.1,0-16.5,7.4-16.5,16.5v45.7c0,9.1,7.4,16.5,16.5,16.5h15.1c8.3,0,15.1-6.1,16.3-14l27,2.7
				c0,0,0.1,0,0.1,0l202.1,19.9h265.5C1412.1,172.9,1433.5,151.5,1433.5,125.1z M963.5,104.9l26.5-2.6v45.6l-26.5-2.6V104.9z
				 M951.3,144l-26.5-2.6v-32.7l26.5-2.6V144z M1002.2,101l26.6-2.6v53.3l-26.6-2.6c0-0.2,0-0.4,0-0.6v-46.8
				C1002.2,101.4,1002.2,101.2,1002.2,101z M1040.9,97.2l26.5-2.6v60.9l-26.5-2.6V97.2z M879,147.9c0,2.4-1.9,4.3-4.3,4.3h-15.1
				c-2.4,0-4.3-1.9-4.3-4.3v-45.7c0-2.4,1.9-4.3,4.3-4.3h15.1c2.4,0,4.3,1.9,4.3,4.3v4.2v37.2V147.9z M891.2,112l21.4-2.1v30.3
				l-21.4-2.1V112z M1079.7,156.7V93.4l40.6-4h265.5c19.6,0,35.6,16,35.6,35.7c0,19.7-16,35.7-35.6,35.7l-264.9,0L1079.7,156.7z"/>
			<path class="st1" d="M2272,160.8l-101.6,0l-41.2-4.1V93.4l40.6-4H2272V77.2l-102.8,0l-201.5,19.9c0,0-0.1,0-0.1,0l-27,2.7
				c-1.2-7.9-8-14-16.3-14h-15.1c-9.1,0-16.5,7.4-16.5,16.5v45.7c0,9.1,7.4,16.5,16.5,16.5h15.1c8.3,0,15.1-6.1,16.3-14l27,2.7
				c0,0,0.1,0,0.1,0l202.1,19.9H2272V160.8z M2117.1,155.5l-26.5-2.6V97.2l26.5-2.6V155.5z M2013.1,104.9l26.5-2.6v45.6l-26.5-2.6
				V104.9z M2000.9,144l-26.5-2.6v-32.7l26.5-2.6V144z M2051.8,101l26.6-2.6v53.3l-26.6-2.6c0-0.2,0-0.4,0-0.6v-46.8
				C2051.8,101.4,2051.8,101.2,2051.8,101z M1928.6,147.9c0,2.4-1.9,4.3-4.3,4.3h-15.1c-2.4,0-4.3-1.9-4.3-4.3v-45.7
				c0-2.4,1.9-4.3,4.3-4.3h15.1c2.4,0,4.3,1.9,4.3,4.3v4.2v37.2V147.9z M1940.8,112l21.4-2.1v30.3l-21.4-2.1V112z"/>
			<path class="st1" d="M377.8,172.9c26.4,0,47.8-21.5,47.8-47.9c0-26.4-21.5-47.9-47.8-47.9l-266.1,0L2.8,87.9v12.3l18-1.8v53.3
				l-18-1.8v12.3l109.4,10.8H377.8z M112.3,89.4h265.5c19.6,0,35.6,16,35.6,35.7c0,19.7-16,35.7-35.6,35.7l-264.9,0l-41.2-4.1V93.4
				L112.3,89.4z M33,97.2l26.5-2.6v60.9L33,152.9V97.2z"/>
			<path class="st1" d="M1574.3,130.6c0,0.5,0.1,1,0.2,1.4c0.1,0.4,0.1,0.8,0.2,1.2c0.1,0.5,0.2,1.1,0.3,1.6c0.1,0.3,0.1,0.7,0.2,1
				c0.1,0.6,0.2,1.1,0.3,1.7c0.1,0.3,0.1,0.6,0.2,0.9c0.1,0.6,0.3,1.2,0.4,1.8c0.1,0.3,0.2,0.5,0.2,0.8c0.2,0.6,0.3,1.2,0.5,1.8
				c0.1,0.3,0.2,0.5,0.3,0.8c0.2,0.6,0.4,1.2,0.6,1.8c0.1,0.3,0.2,0.5,0.3,0.8c0.2,0.6,0.4,1.1,0.7,1.7c0.2,0.4,0.3,0.8,0.5,1.2
				c0.2,0.4,0.4,0.8,0.6,1.2c0.4,0.8,0.8,1.6,1.2,2.4c0,0,0,0.1,0.1,0.1c0.4,0.8,0.9,1.6,1.3,2.3c0,0,0,0.1,0.1,0.1
				c0.5,0.8,0.9,1.5,1.4,2.3c0,0,0,0,0,0.1c0.5,0.8,1,1.5,1.6,2.2c0,0,0,0,0,0c0.9,1.2,1.9,2.4,2.9,3.5c0.1,0.1,0.2,0.2,0.3,0.3
				c10.6,11.9,26.1,19.5,43.2,19.5c17.2,0,32.6-7.5,43.2-19.5c0.1-0.1,0.2-0.2,0.3-0.3c1-1.1,1.9-2.3,2.9-3.5c0,0,0,0,0,0
				c0.5-0.7,1.1-1.5,1.6-2.2c0,0,0,0,0-0.1c0.5-0.7,1-1.5,1.4-2.3c0,0,0-0.1,0.1-0.1c0.5-0.8,0.9-1.5,1.3-2.3c0,0,0-0.1,0.1-0.1
				c0.4-0.8,0.9-1.6,1.2-2.4c0.2-0.4,0.4-0.8,0.6-1.2c0.2-0.4,0.4-0.8,0.5-1.2c0.2-0.6,0.5-1.1,0.7-1.7c0.1-0.3,0.2-0.5,0.3-0.8
				c0.2-0.6,0.4-1.2,0.6-1.8c0.1-0.3,0.2-0.5,0.3-0.8c0.2-0.6,0.4-1.2,0.5-1.8c0.1-0.3,0.2-0.5,0.2-0.8c0.2-0.6,0.3-1.2,0.4-1.8
				c0.1-0.3,0.1-0.6,0.2-0.9c0.1-0.6,0.2-1.1,0.3-1.7c0.1-0.3,0.1-0.7,0.2-1c0.1-0.5,0.2-1.1,0.3-1.6c0.1-0.4,0.1-0.8,0.2-1.2
				c0.1-0.5,0.1-1,0.2-1.4c0.1-0.5,0.1-1.1,0.1-1.6c0-0.4,0.1-0.8,0.1-1.1c0-0.9,0.1-1.9,0.1-2.8c0-0.9,0-1.9-0.1-2.8
				c0-0.4-0.1-0.8-0.1-1.1c0-0.5-0.1-1.1-0.1-1.6c0-0.5-0.1-1-0.2-1.4c-0.1-0.4-0.1-0.8-0.2-1.2c-0.1-0.5-0.2-1.1-0.3-1.6
				c-0.1-0.3-0.1-0.7-0.2-1c-0.1-0.6-0.2-1.1-0.3-1.7c-0.1-0.3-0.1-0.6-0.2-0.9c-0.1-0.6-0.3-1.2-0.4-1.7c-0.1-0.3-0.2-0.5-0.2-0.8
				c-0.2-0.6-0.3-1.2-0.5-1.8c-0.1-0.3-0.2-0.5-0.3-0.8c-0.2-0.6-0.4-1.2-0.6-1.7c-0.1-0.3-0.2-0.6-0.3-0.8
				c-0.2-0.5-0.4-1.1-0.6-1.6c-0.2-0.5-0.4-0.9-0.6-1.3c-0.2-0.4-0.3-0.7-0.5-1.1c-0.8-1.7-1.7-3.3-2.6-4.9c0,0,0,0,0,0
				c-1.7-2.9-3.7-5.6-6-8.2c-0.1-0.1-0.1-0.1-0.2-0.2c-10.6-12-26.1-19.6-43.3-19.6c-17.2,0-32.7,7.6-43.3,19.6
				c-0.1,0.1-0.1,0.1-0.2,0.2c-2.2,2.6-4.2,5.3-6,8.2c0,0,0,0,0,0c-1,1.6-1.8,3.2-2.6,4.9c-0.2,0.4-0.3,0.7-0.5,1.1
				c-0.2,0.4-0.4,0.9-0.6,1.3c-0.2,0.5-0.4,1.1-0.7,1.6c-0.1,0.3-0.2,0.6-0.3,0.8c-0.2,0.6-0.4,1.2-0.6,1.7
				c-0.1,0.3-0.2,0.5-0.3,0.8c-0.2,0.6-0.4,1.2-0.5,1.8c-0.1,0.3-0.2,0.5-0.2,0.8c-0.2,0.6-0.3,1.2-0.4,1.7
				c-0.1,0.3-0.1,0.6-0.2,0.9c-0.1,0.6-0.2,1.1-0.3,1.7c-0.1,0.3-0.1,0.7-0.2,1c-0.1,0.5-0.2,1.1-0.3,1.6c-0.1,0.4-0.1,0.8-0.2,1.2
				c-0.1,0.5-0.1,1-0.2,1.4c-0.1,0.5-0.1,1.1-0.1,1.6c0,0.4-0.1,0.8-0.1,1.1c0,0.9-0.1,1.9-0.1,2.8c0,0.9,0,1.9,0.1,2.8
				c0,0.4,0.1,0.8,0.1,1.1C1574.2,129.5,1574.2,130.1,1574.3,130.6z M1675.2,98.6c0.1,0.1,0.1,0.2,0.2,0.3c0.3,0.5,0.6,1.1,0.9,1.6
				c0.1,0.2,0.2,0.4,0.3,0.6c0.2,0.4,0.5,0.9,0.7,1.4c0.1,0.3,0.3,0.5,0.4,0.8c0.2,0.4,0.4,0.9,0.6,1.3c0.2,0.5,0.4,1,0.6,1.5
				c0.2,0.4,0.3,0.8,0.5,1.2c0.2,0.4,0.3,0.8,0.4,1.2c0.1,0.3,0.2,0.6,0.3,0.8c0.1,0.4,0.3,0.9,0.4,1.3c0.1,0.3,0.2,0.6,0.2,0.8
				c0.1,0.4,0.2,0.9,0.4,1.3c0.1,0.3,0.1,0.6,0.2,0.8c0.2,0.7,0.3,1.4,0.4,2.2c0.1,0.4,0.1,0.8,0.2,1.2c0.1,0.4,0.1,0.7,0.2,1.1
				c0.1,0.4,0.1,0.8,0.2,1.3c0,0.3,0.1,0.7,0.1,1c0,0.5,0.1,1,0.1,1.5c0,0.3,0,0.5,0,0.8c0,0.8,0.1,1.6,0.1,2.4c0,0.8,0,1.6-0.1,2.4
				c0,0.3,0,0.5,0,0.8c0,0.5-0.1,1-0.1,1.5c0,0.3-0.1,0.7-0.1,1c0,0.4-0.1,0.9-0.2,1.3c0,0.4-0.1,0.7-0.2,1.1
				c-0.1,0.4-0.1,0.8-0.2,1.2c-0.1,0.7-0.3,1.5-0.4,2.2c-0.1,0.3-0.1,0.6-0.2,0.8c-0.1,0.4-0.2,0.9-0.4,1.3
				c-0.1,0.3-0.2,0.6-0.2,0.8c-0.1,0.4-0.3,0.9-0.4,1.3c-0.1,0.3-0.2,0.6-0.3,0.8c-0.1,0.4-0.3,0.8-0.4,1.3
				c-0.1,0.4-0.3,0.8-0.4,1.1c-0.2,0.5-0.4,1.1-0.7,1.6c-0.2,0.4-0.4,0.9-0.6,1.3c-0.1,0.3-0.3,0.5-0.4,0.8
				c-0.2,0.5-0.5,0.9-0.7,1.3c-0.1,0.2-0.2,0.4-0.3,0.6c-0.3,0.5-0.6,1.1-0.9,1.6c-0.1,0.1-0.1,0.2-0.2,0.3
				c-0.8,1.3-1.6,2.5-2.5,3.7c-2.6-3.5-4.7-7.3-6.3-11.3l1.2-0.5c1.8-0.8,2.6-3,1.7-4.8c-0.8-1.8-3-2.6-4.8-1.7l-0.3,0.1
				c-0.6-2.5-1-5-1.2-7.6h0.2c2,0,3.6-1.6,3.6-3.6c0-2-1.6-3.6-3.6-3.6h-0.3c0.2-3.1,0.6-6.1,1.3-9.1l0.3,0.1c0.5,0.2,1,0.3,1.5,0.3
				c1.3,0,2.6-0.8,3.2-2.1c0.8-1.8,0.1-3.9-1.7-4.8l-1.2-0.5c1.6-4,3.7-7.8,6.3-11.3C1673.6,96.1,1674.5,97.4,1675.2,98.6z
				 M1631.9,74.2c14.1,0,26.9,5.8,36.1,15.1c-3.3,4.2-6,8.9-8,13.8l-1.2-0.6c-1.8-0.8-3.9-0.1-4.8,1.7c-0.8,1.8-0.1,3.9,1.7,4.8
				l1.9,0.9c-1.1,4-1.7,8.1-1.9,12.2h-2.3c-2,0-3.6,1.6-3.6,3.6c0,2,1.6,3.6,3.6,3.6h2.4c0.3,3.6,0.9,7.2,1.8,10.7l-1.9,0.9
				c-1.8,0.8-2.6,3-1.7,4.8c0.6,1.3,1.9,2.1,3.2,2.1c0.5,0,1-0.1,1.5-0.3l1.2-0.6c2,4.9,4.7,9.6,8,13.8c-9.2,9.3-22,15.1-36.1,15.1
				c-14.1,0-26.9-5.8-36.1-15.1c3.3-4.2,6-8.9,8-13.8l1.2,0.6c0.5,0.2,1,0.3,1.5,0.3c1.3,0,2.6-0.8,3.2-2.1c0.8-1.8,0.1-3.9-1.7-4.8
				l-1.9-0.9c0.9-3.5,1.5-7.1,1.8-10.7h1.5c2,0,3.6-1.6,3.6-3.6c0-2-1.6-3.6-3.6-3.6h-1.4c-0.2-4.1-0.9-8.2-1.9-12.2l1.9-0.9
				c1.8-0.8,2.6-3,1.7-4.8c-0.8-1.8-3-2.6-4.8-1.7l-1.2,0.6c-2-4.9-4.7-9.6-8-13.8C1605,80,1617.8,74.2,1631.9,74.2z M1581.2,122.7
				c0-0.3,0-0.5,0-0.8c0-0.5,0.1-1,0.1-1.5c0-0.3,0.1-0.7,0.1-1c0-0.4,0.1-0.9,0.2-1.3c0-0.4,0.1-0.7,0.2-1.1
				c0.1-0.4,0.1-0.8,0.2-1.2c0.1-0.7,0.3-1.5,0.4-2.2c0.1-0.3,0.1-0.6,0.2-0.8c0.1-0.4,0.2-0.9,0.4-1.3c0.1-0.3,0.2-0.6,0.2-0.8
				c0.1-0.4,0.3-0.9,0.4-1.3c0.1-0.3,0.2-0.6,0.3-0.8c0.1-0.4,0.3-0.8,0.4-1.2c0.1-0.4,0.3-0.8,0.5-1.2c0.2-0.5,0.4-1,0.6-1.5
				c0.2-0.4,0.4-0.9,0.6-1.3c0.1-0.3,0.3-0.5,0.4-0.8c0.2-0.5,0.5-0.9,0.7-1.4c0.1-0.2,0.2-0.4,0.3-0.6c0.3-0.5,0.6-1.1,0.9-1.6
				c0.1-0.1,0.1-0.2,0.2-0.3c0.8-1.3,1.6-2.5,2.5-3.7c2.6,3.5,4.7,7.3,6.3,11.3l-1.1,0.5c-1.8,0.8-2.6,3-1.7,4.8
				c0.6,1.3,1.9,2.1,3.2,2.1c0.5,0,1-0.1,1.5-0.3l0.3-0.1c0.7,3,1.2,6,1.3,9.1h-1.2c-2,0-3.6,1.6-3.6,3.6c0,2,1.6,3.6,3.6,3.6h1.1
				c-0.2,2.6-0.6,5.1-1.2,7.6l-0.3-0.1c-1.8-0.8-3.9-0.1-4.8,1.7c-0.8,1.8-0.1,3.9,1.7,4.8l1.1,0.5c-1.6,4-3.7,7.8-6.3,11.3
				c-0.9-1.2-1.7-2.4-2.5-3.7c-0.1-0.1-0.1-0.2-0.2-0.3c-0.3-0.5-0.6-1.1-0.9-1.6c-0.1-0.2-0.2-0.4-0.3-0.6
				c-0.2-0.4-0.5-0.9-0.7-1.3c-0.1-0.3-0.3-0.5-0.4-0.8c-0.2-0.4-0.4-0.8-0.6-1.3c-0.2-0.5-0.5-1.1-0.7-1.6
				c-0.1-0.4-0.3-0.7-0.4-1.1c-0.2-0.4-0.3-0.8-0.4-1.3c-0.1-0.3-0.2-0.6-0.3-0.8c-0.1-0.4-0.3-0.9-0.4-1.3
				c-0.1-0.3-0.2-0.6-0.2-0.8c-0.1-0.4-0.2-0.9-0.4-1.3c-0.1-0.3-0.1-0.6-0.2-0.8c-0.2-0.7-0.3-1.5-0.5-2.2
				c-0.1-0.4-0.1-0.8-0.2-1.2c-0.1-0.4-0.1-0.7-0.2-1.1c-0.1-0.4-0.1-0.8-0.2-1.3c0-0.3-0.1-0.7-0.1-1c0-0.5-0.1-1-0.1-1.5
				c0-0.3,0-0.5,0-0.8c0-0.8-0.1-1.6-0.1-2.4C1581.2,124.3,1581.2,123.5,1581.2,122.7z"/>
			<path class="st1" d="M574.8,116.7c-3.5-2.2-7.1-2.9-10.8-0.8c-7.7,4.2-5.2,20-0.6,32.3c9.3,25.1,38.5,64.8,89.1,54.3
				c25.1-5.2,43.1-16.9,53.3-34.5c13.8-23.7,13.8-57.8,0-101.3c0-0.1-0.1-0.2-0.1-0.4c-2-5.6-7.4-9.2-13.3-8.7
				c-3.8,0.3-7.2,2.1-9.5,5.1c0,0-0.1,0.1-0.1,0.1l-0.1-0.2c0-0.1-0.1-0.2-0.1-0.4c-2.3-6.5-9-10.4-15.7-9.1
				c-3.4,0.6-6.5,2.6-8.6,5.4c-0.5-1.2-1.1-2.4-1.8-3.6c-2.4-4.6-7.3-7.3-12.4-7c-3.6,0.2-7,2-9.3,4.9c-1.6,2-2.6,4.5-2.8,7.1
				c-3-1.9-6.8-2.8-10.6-2.2c-4.3,0.7-8.1,3.2-10.4,6.9c-2.3,3.8-2.9,8.3-1.7,12.6c0.4,1.4,0.8,2.8,1.2,4.1
				C588.7,93.6,578.5,109.7,574.8,116.7z M590,105.2c1.8,2.6,4.7,7,8.3,13.3c-5.3,5.2-8.3,9.3-10,12.4c-3-3.8-5.9-7.5-8.8-10.4
				C580.9,117.7,584.1,111.9,590,105.2z M611,129.7c-1.8-3.7-3.6-7-5.2-10c2.3-2.1,5.1-4.3,8.3-6.7
				C613.6,119.4,612.4,124.9,611,129.7z M607.7,136.5c0.1,0.2,0.2,0.4,0.4,0.6c-2.1,4.7-4.4,8-5.9,10c-3.4-3.1-6.7-7.1-9.9-11.1
				c0.7-1.8,2.8-6,8.9-12.2C603.3,127.6,605.5,131.8,607.7,136.5z M616,67.8c1.4-2.3,3.7-3.8,6.4-4.2c4.6-0.8,9.1,2.1,10.4,6.6
				c2.5,8.6,4.5,19.9,5.7,32.7c0.2,1.6,1.6,2.8,3.2,2.6s2.8-1.6,2.6-3.2c-1.1-11.4-2.8-21.4-4.9-29.7l-1.7-10.5
				c-0.3-2,0.2-4,1.5-5.6c1.3-1.6,3.1-2.5,5.1-2.7c2.8-0.2,5.5,1.3,6.8,3.8c2.2,4.1,3.8,8.5,4.6,12.5c0,0,0,0,0,0.1c0,0,0,0.1,0,0.1
				c4.4,17.2,4.2,41.9,4.2,42.2c0,1.6,1.3,3,2.9,3c1.6,0,3-1.3,3-2.9c0-1,0.3-25.7-4.3-43.6c0-0.1-0.1-0.3-0.1-0.4
				c-0.5-2.1-0.1-4.2,1.1-6c1.2-1.9,3.1-3.2,5.3-3.6c4-0.7,7.9,1.5,9.2,5.5l4.1,12.9c1.9,11,3.5,27.9-0.5,41
				c-0.5,1.6,0.4,3.2,1.9,3.7c1.6,0.5,3.2-0.4,3.7-1.9c4.7-15.4,2.6-34.7-0.1-48.2c-0.4-2,0.1-4.1,1.3-5.7c1.3-1.7,3.2-2.7,5.2-2.8
				c3.3-0.2,6.4,1.8,7.4,5c13.3,41.8,13.5,74.3,0.5,96.5c-9.4,16.1-26,26.8-49.5,31.7c-27.3,5.7-65.2-4.1-82.3-50.6
				c-5.2-14-4.5-23.7-2.1-25.1c1.9-1.1,4.3,0,7,2.3c0,0,0,0,0,0c3.4,2.9,7.2,7.9,11,12.7c9.1,11.7,19.3,24.9,31.9,22.7
				c19.7-3.4,41.4,4.8,41.6,4.9c1.5,0.6,3.2-0.2,3.8-1.7c0.6-1.5-0.2-3.2-1.7-3.8c-0.9-0.4-23.4-9-44.8-5.2c-3,0.5-6-0.4-8.9-2.2
				c6-7.8,20.9-32.7,8.1-75.1C614.2,73,614.6,70.2,616,67.8z M614.1,105.5c-0.1,0-0.1,0.1-0.2,0.1c-4.4,3.1-8.1,6.1-11.2,8.8
				c-3.9-6.6-6.9-11.1-8.6-13.5c4.6-4.5,10.5-9.2,17.8-13.5C613.3,94,614,100,614.1,105.5z"/>
			<path class="st1" d="M863.8,1769.6h15.1c8.3,0,15.1-6.1,16.3-14l27,2.7c0,0,0.1,0,0.1,0l202.1,19.9h265.5
				c26.4,0,47.8-21.5,47.8-47.9c0-26.4-21.5-47.9-47.8-47.9l-266.1,0l-201.5,19.9c-0.1,0-0.1,0-0.2,0l-27,2.7c-1.2-7.9-8-14-16.3-14
				h-15.1c-9.1,0-16.5,7.4-16.5,16.5v45.7C847.3,1762.2,854.7,1769.6,863.8,1769.6z M1033,1756.9l-26.6-2.6c0-0.2,0-0.4,0-0.6v-46.8
				c0-0.2,0-0.4,0-0.6l26.6-2.6V1756.9z M1045.2,1702.4l26.5-2.6v60.9l-26.5-2.6V1702.4z M994.2,1753.1l-26.5-2.6v-40.4l26.5-2.6
				V1753.1z M955.5,1749.3l-26.5-2.6v-32.7l26.5-2.6V1749.3z M916.8,1745.5l-21.4-2.1v-26.1l21.4-2.1V1745.5z M1124.4,1694.6h265.5
				c19.6,0,35.6,16,35.6,35.7c0,19.7-16,35.7-35.6,35.7l-264.9,0l-41.2-4.1v-63.3L1124.4,1694.6z M859.5,1707.5
				c0-2.4,1.9-4.3,4.3-4.3h15.1c2.4,0,4.3,1.9,4.3,4.3v4.2v37.2v4.2c0,2.4-1.9,4.3-4.3,4.3h-15.1c-2.4,0-4.3-1.9-4.3-4.3V1707.5z"/>
			<path class="st1" d="M703.3,1713.7c-0.4-5.7-3.2-11-7.6-14.6c-3.2-2.5-7.1-4-11.1-4.4c3-4.8,4.3-10.6,3.4-16.5
				c-1.1-6.7-5-12.7-10.8-16.3c-5.8-3.7-13-4.6-19.6-2.6c-2.2,0.7-4.3,1.3-6.4,1.8c-19-34.2-44-50.1-54.9-55.8
				c3.5-5.5,4.5-11.1,1.3-16.8c-6.6-12-31.2-8.1-50.3-1c-39.2,14.5-101.1,60.2-84.6,139.2c8.2,39.3,26.3,67.3,53.8,83.4
				c37,21.6,90.1,21.6,157.9,0c0.2-0.1,0.4-0.1,0.6-0.2c8.7-3.1,14.3-11.5,13.6-20.8c-0.4-5.9-3.3-11.3-8-14.8
				c-0.1-0.1-0.1-0.1-0.2-0.2l0.3-0.1c0.2-0.1,0.4-0.1,0.6-0.2c10.1-3.6,16.2-14,14.2-24.6c-1-5.4-4-10.2-8.4-13.4
				c1.9-0.8,3.7-1.7,5.6-2.7C699.6,1729.4,703.8,1721.7,703.3,1713.7z M566,1632.9c2.8,1.1,9.3,4.3,19,13.9
				c-5.8,3.2-12.4,6.6-19.8,10.1c-0.3,0.2-0.7,0.4-0.9,0.6c-7.3-3.3-12.5-6.9-15.6-9.2C553.5,1643,559.7,1637.8,566,1632.9z
				 M591.5,1653.7c3.2,3.7,6.7,7.9,10.5,12.9c-10.1-0.7-18.8-2.4-26.1-4.7C581.6,1659,586.8,1656.3,591.5,1653.7z M613.5,1666.9
				c-0.1-0.1-0.1-0.2-0.2-0.3c-4.9-6.9-9.5-12.6-13.7-17.5c10.3-6,17.3-10.8,21.1-13.5c7.1,7.3,14.4,16.4,21,27.8
				C631.6,1665.6,622.1,1666.7,613.5,1666.9z M614,1629.2c-4.1,2.8-11,7.4-20.7,13c-8.1-8.3-14.6-13-19.3-15.6
				c6-4.6,11.7-9.2,16.1-13.8C594.6,1614.9,603.6,1620,614,1629.2z M688.1,1725c-6.1,3.3-12.5,5.6-18.5,6.9c-0.2,0-0.5,0.1-0.7,0.2
				c-0.1,0-0.2,0-0.3,0.1c0,0,0,0,0,0c-0.1,0-0.2,0-0.2,0.1c-26.8,6.9-65.4,6.5-65.8,6.5c-2.5,0-4.6,2-4.7,4.5c0,2.5,2,4.6,4.5,4.7
				c1.6,0,40,0.4,68-6.8c0.2,0,0.5-0.1,0.7-0.2c3.2-0.7,6.6-0.1,9.4,1.7c3,1.9,5,4.8,5.6,8.3c1.2,6.2-2.3,12.4-8.5,14.3l-20.2,6.4
				c-17.2,2.9-43.5,5.5-64-0.8c-2.4-0.8-5,0.6-5.7,3c-0.8,2.4,0.6,5,3,5.7c24,7.4,54.1,4,75.2-0.2c3.2-0.6,6.3,0.1,8.9,2.1
				c2.6,2,4.2,4.9,4.4,8.2c0.4,5.2-2.8,10.1-7.8,11.6c-65.2,20.8-115.8,21.1-150.5,0.8c-25.2-14.7-41.8-40.7-49.4-77.3
				c-8.9-42.6,6.4-101.9,78.8-128.7c21.9-8.1,37-7,39.1-3.2c1.7,3,0,6.8-3.6,10.9c0,0,0,0,0,0c-4.6,5.3-12.3,11.3-19.8,17.1
				c-18.2,14.2-38.8,30.2-35.4,49.9c5.4,30.8-7.6,64.7-7.7,65c-0.9,2.4,0.3,5,2.6,6c2.4,0.9,5-0.2,5.9-2.6c0.6-1.5,14-36.6,8.2-70
				c-0.8-4.7,0.6-9.3,3.4-13.9c12.1,9.3,51,32.7,117.1,12.7c4.1-1.2,8.5-0.7,12.1,1.6c3.6,2.2,5.9,5.8,6.6,10
				c1.2,7.3-3.3,14.3-10.3,16.3c-13.4,3.9-31,7-51.1,9c-2.5,0.2-4.4,2.5-4.1,5c0.2,2.5,2.5,4.4,5,4.1c17.9-1.8,33.4-4.3,46.4-7.6
				l16.3-2.6c3.1-0.5,6.2,0.3,8.7,2.3c2.5,2,4,4.8,4.2,8C694.4,1718.7,692.1,1722.9,688.1,1725z"/>
			<g>
				<path class="st1" d="M1636.1,1711.3l-65.8,22.5c-4.5,1.6-7.7,5.5-8.2,10.2c-0.5,4.7,1.7,9.2,5.7,11.7
					c12.4,7.6,36.5,18.9,69.4,18.9c27.1,0,60.3-7.7,97.8-31.5c26.5,4.8,54,8.6,81.9,11.2c12.4,1.2,25.3,2.2,38.4,2.9
					c0.1,0,0.2,0,0.3,0c2.4,0,4.5-1.7,5-4c1.7-8,2.6-16.2,2.6-24.2c0-63.1-51.3-114.5-114.4-114.5
					C1692.7,1614.6,1644.8,1655.9,1636.1,1711.3z M1573.2,1747c-0.9-0.5-0.9-1.4-0.9-1.8c0-0.5,0.3-1.3,1.3-1.7l67.2-23
					c24.7,7.6,51.3,14.3,79.2,19.8C1688.5,1757.9,1629,1781.1,1573.2,1747z M1799.1,1742.2c-36-4.1-71-10.1-103.8-17.7
					c12.3-68.1,59.1-91.7,70.9-96.6C1814,1669.1,1803.2,1726.6,1799.1,1742.2z M1853.2,1729.1c0,5.9-0.5,11.8-1.5,17.7
					c-11.5-0.7-22.7-1.6-33.6-2.6c-2.9-0.3-5.8-0.6-8.8-0.9c4.1-17.7,12.2-70.6-25.6-112.5
					C1824.1,1645.1,1853.2,1683.8,1853.2,1729.1z M1749,1624.8c0.3,0,0.5,0,0.7,0c-20.2,12-53.9,40-64.4,97.3
					c-13.4-3.3-26.4-6.8-38.9-10.6C1654.9,1661.8,1698.2,1624.8,1749,1624.8z"/>
			</g>
			<ellipse class="st1" cx="1937.9" cy="1160.1" rx="23.6" ry="23.6"/>
			<ellipse class="st1" cx="2190.3" cy="497" rx="23.6" ry="23.6"/>
			<ellipse class="st1" cx="1789.8" cy="118.2" rx="23.6" ry="23.6"/>
			<ellipse class="st1" cx="488.8" cy="118.2" rx="23.6" ry="23.6"/>
			<ellipse class="st1" cx="324.3" cy="1160.1" rx="23.6" ry="23.6"/>
			<ellipse class="st1" cx="74.5" cy="517.8" rx="23.6" ry="23.6"/>
			<g>
				<ellipse class="st1" cx="1995.6" cy="1742.2" rx="23.6" ry="23.6"/>
				<ellipse class="st1" cx="324.3" cy="1742.2" rx="23.6" ry="23.6"/>
			</g>
		</g>
	</g>
</g>
<g id="Object">
	<path class="st2" d="M1915.8,415.4c-27.7-34.9-69.1-54.8-113.6-54.8H469.9c-44.5,0-85.9,20-113.6,54.8
		c-27.7,34.9-37.8,79.7-27.7,123.1l225,969.9c7.4,31.8,25.5,60.5,51.1,80.8c25.6,20.3,57.6,31.5,90.3,31.5h882.3
		c32.7,0,64.7-11.2,90.3-31.5c25.6-20.3,43.7-49,51.1-80.8l225-969.9C1953.6,495.2,1943.5,450.3,1915.8,415.4z"/>
	<g>
		<g>
			<g>
				<path class="st3" d="M1802.1,340.4h-576.3h-179.8H469.9c-71.2,0-123.9,66.3-107.8,135.6l225,969.9
					c11.6,50.1,56.3,85.6,107.8,85.6h351.3h179.8h351.3c51.5,0,96.1-35.5,107.8-85.6l225-969.9
					C1926,406.7,1873.3,340.4,1802.1,340.4z"/>
				<linearGradient id="SVGID_1_" gradientUnits="userSpaceOnUse" x1="1415.3254" y1="414.2024" x2="1160.4336" y2="692.2662">
					<stop  offset="0" style="stop-color:#ED623B"/>
					<stop  offset="0.9903" style="stop-color:#EDD03B"/>
				</linearGradient>
				<path class="st4" d="M1909.9,476.1c16.1-69.4-36.6-135.6-107.8-135.6h-576.3h-179.8H812.2c205.5,98.1,574.3,244,1057.3,310.1
					L1909.9,476.1z"/>
				<linearGradient id="SVGID_2_" gradientUnits="userSpaceOnUse" x1="1137.3019" y1="486.2206" x2="1089.1433" y2="664.6908">
					<stop  offset="0" style="stop-color:#ED623B"/>
					<stop  offset="0.9903" style="stop-color:#EDD03B"/>
				</linearGradient>
				<path class="st5" d="M1864.3,672.5l5.1-21.9c-482.9-66.1-851.7-212-1057.3-310.1H469.9c-31.7,0-59.7,13.2-79.7,33.9
					c132.7,51.2,643.4,233.1,1341.7,295.2C1777.8,670.1,1822.1,671,1864.3,672.5z"/>
				<linearGradient id="SVGID_3_" gradientUnits="userSpaceOnUse" x1="1047.2504" y1="530.2338" x2="1035.9189" y2="717.2026">
					<stop  offset="0" style="stop-color:#ED623B"/>
					<stop  offset="0.9903" style="stop-color:#EDD03B"/>
				</linearGradient>
				<path class="st6" d="M1731.9,669.5c-698.3-62.1-1209-244-1341.7-295.2c-24.8,25.8-37,63.3-28.1,101.8L416.4,710
					C609.7,698.6,1253.8,663.3,1731.9,669.5z"/>
				<g>
					<defs>
						<path id="SVGID_4_" d="M1802.1,340.4h-576.3h-179.8H469.9c-71.2,0-123.9,66.3-107.8,135.6l225,969.9
							c11.6,50.1,56.3,85.6,107.8,85.6h351.3h179.8h351.3c51.5,0,96.1-35.5,107.8-85.6l225-969.9
							C1926,406.7,1873.3,340.4,1802.1,340.4z"/>
					</defs>
					<clipPath id="SVGID_5_">
						<use xlink:href="#SVGID_4_"  style="overflow:visible;"/>
					</clipPath>
					<g class="st7">
						<path class="st0" d="M830.5,729.9c0,0,643.3-219,1101.3-253.8l-10.3,25.7C1921.6,501.8,1292.2,593.5,830.5,729.9z"/>
						<path class="st0" d="M799.2,753.1c0,0,679.8-201.6,1137.8-236.3l-10.3,25.7C1926.7,542.5,1260.8,616.8,799.2,753.1z"/>
						<g>
							<rect x="1652.3" y="125" class="st0" width="14.9" height="651.7"/>
							<rect x="1806.9" y="125" class="st0" width="14.9" height="651.7"/>
							<g>
								<g>
									<g>
										<g>
											<polygon class="st0" points="1817.4,283.7 1665.9,377.4 1659.7,369.1 1811.2,275.4 											"/>
											<polygon class="st0" points="1659.7,283.7 1811.2,377.4 1817.4,369.1 1665.9,275.4 											"/>
										</g>
										<rect x="1665.1" y="372.2" class="st0" width="147.2" height="10.4"/>
									</g>
									<g>
										<g>
											<polygon class="st0" points="1817.4,388.2 1665.9,482 1659.7,473.7 1811.2,379.9 											"/>
											<polygon class="st0" points="1659.7,388.2 1811.2,482 1817.4,473.7 1665.9,379.9 											"/>
										</g>
										<rect x="1665.1" y="476.8" class="st0" width="147.2" height="10.4"/>
									</g>
									<g>
										<g>
											<polygon class="st0" points="1817.4,493.3 1665.9,587.1 1659.7,578.8 1811.2,485 											"/>
											<polygon class="st0" points="1659.7,493.3 1811.2,587.1 1817.4,578.8 1665.9,485 											"/>
										</g>
										<rect x="1665.1" y="581.9" class="st0" width="147.2" height="10.4"/>
									</g>
									<rect x="1667.1" y="270.2" class="st0" width="147.2" height="10.4"/>
								</g>
								<g>
									<rect x="1667.1" y="172.2" class="st0" width="147.2" height="10.4"/>
									<rect x="1667.1" y="142.6" class="st0" width="147.2" height="10.4"/>
									<g>
										<polygon class="st0" points="1817.4,181.6 1665.9,275.4 1659.7,267 1811.2,173.3 										"/>
										<polygon class="st0" points="1659.7,181.6 1811.2,275.4 1817.4,267 1665.9,173.3 										"/>
									</g>
									<g>
										<rect x="1672" y="147.8" class="st0" width="10.6" height="29.6"/>
										<rect x="1692" y="147.8" class="st0" width="10.6" height="29.6"/>
										<rect x="1712" y="147.8" class="st0" width="10.6" height="29.6"/>
										<rect x="1732" y="147.8" class="st0" width="10.6" height="29.6"/>
										<rect x="1752.1" y="147.8" class="st0" width="10.6" height="29.6"/>
										<rect x="1772.1" y="147.8" class="st0" width="10.6" height="29.6"/>
										<rect x="1792.1" y="147.8" class="st0" width="10.6" height="29.6"/>
									</g>
								</g>
							</g>
						</g>
						<g>
							<rect x="1131.8" y="469.9" class="st0" width="7" height="306.8"/>
							<rect x="1204.6" y="469.9" class="st0" width="7" height="306.8"/>
							<g>
								<g>
									<g>
										<g>
											<polygon class="st0" points="1209.6,544.6 1138.3,588.7 1135.3,584.8 1206.7,540.7 											"/>
											<polygon class="st0" points="1135.3,544.6 1206.7,588.7 1209.6,584.8 1138.3,540.7 											"/>
										</g>
										<rect x="1137.9" y="586.3" class="st0" width="69.3" height="4.9"/>
									</g>
									<g>
										<g>
											<polygon class="st0" points="1209.6,593.8 1138.3,638 1135.3,634 1206.7,589.9 											"/>
											<polygon class="st0" points="1135.3,593.8 1206.7,638 1209.6,634 1138.3,589.9 											"/>
										</g>
										<rect x="1137.9" y="635.5" class="st0" width="69.3" height="4.9"/>
									</g>
									<g>
										<g>
											<polygon class="st0" points="1209.6,643.3 1138.3,687.4 1135.3,683.5 1206.7,639.4 											"/>
											<polygon class="st0" points="1135.3,643.3 1206.7,687.4 1209.6,683.5 1138.3,639.4 											"/>
										</g>
										<rect x="1137.9" y="685" class="st0" width="69.3" height="4.9"/>
									</g>
									<rect x="1138.8" y="538.2" class="st0" width="69.3" height="4.9"/>
								</g>
								<g>
									<rect x="1138.8" y="492.1" class="st0" width="69.3" height="4.9"/>
									<rect x="1138.8" y="478.2" class="st0" width="69.3" height="4.9"/>
									<g>
										<polygon class="st0" points="1209.6,496.5 1138.3,540.7 1135.3,536.7 1206.7,492.6 										"/>
										<polygon class="st0" points="1135.3,496.5 1206.7,540.7 1209.6,536.7 1138.3,492.6 										"/>
									</g>
									<g>
										<rect x="1141.1" y="480.6" class="st0" width="5" height="13.9"/>
										<rect x="1150.6" y="480.6" class="st0" width="5" height="13.9"/>
										<rect x="1160" y="480.6" class="st0" width="5" height="13.9"/>
										<rect x="1169.4" y="480.6" class="st0" width="5" height="13.9"/>
										<rect x="1178.8" y="480.6" class="st0" width="5" height="13.9"/>
										<rect x="1188.2" y="480.6" class="st0" width="5" height="13.9"/>
										<rect x="1197.7" y="480.6" class="st0" width="5" height="13.9"/>
									</g>
								</g>
							</g>
						</g>
						<g>
							<path class="st0" d="M1314.4,572c-12.6,0-25.7-2-39.4-6.1c-20.1-5.9-41.3-16.2-63.2-30.5c-37-24.3-63.3-52.4-63.5-52.7
								l4.4-4.1c0.3,0.3,26.1,27.9,62.5,51.8c33.3,21.9,82.6,45.1,128.1,31.4c35.8-10.8,75.2-39.2,117-84.5
								c33.7-36.4,68.9-83.7,104.9-140.6c61.2-96.9,103.6-189.2,104-190.1l5.5,2.5c-0.4,0.9-42.9,93.5-104.4,190.8
								c-36.1,57.2-71.6,104.8-105.5,141.5c-42.6,46.1-82.9,75.1-119.7,86.2C1335.4,570.5,1325.1,572,1314.4,572z"/>
						</g>
						<g>
							<path class="st0" d="M1397.5,571.9c-44.6,0-88.5-18.6-120.4-36.4c-43.4-24.3-74.2-52.4-74.6-52.6l4.1-4.4
								c0.3,0.3,30.7,27.9,73.5,51.9c39.3,22,97.5,45.3,151.3,31.5c42.2-10.8,88.6-39.3,137.8-84.7c39.6-36.4,81-83.8,123.2-140.6
								c71.9-96.9,121.7-189.2,122.2-190.1l5.3,2.8c-0.5,0.9-50.5,93.6-122.6,190.8c-42.4,57.2-84.2,104.8-124,141.5
								c-50,46-97.2,75-140.4,86C1421.3,570.6,1409.4,571.9,1397.5,571.9z"/>
						</g>
					</g>
				</g>
				<path class="st8" d="M481.5,990.7l105.6,455.3c11.6,50.1,56.3,85.6,107.8,85.6h351.3h179.8h351.3c51.5,0,96.1-35.5,107.8-85.6
					l144.4-622.5C1307.5,864.9,728.4,951.6,481.5,990.7z"/>
				<g>
					<path class="st9" d="M486.2,1011.2l6.4,27.4c269-38.8,893.4-127.3,1327.6-175.8l6.7-29c-160.6,17.8-363.3,43-607.2,75.5
						C927,948.1,644.2,988.4,486.2,1011.2z"/>
					<path class="st9" d="M1809.4,909.4l6.7-29c-158.9,17.8-357.9,42.5-596.4,74.3c-286.5,38.1-563.5,77.5-723.3,100.6l6.4,27.4
						C774.8,1043.3,1381.1,957.6,1809.4,909.4z"/>
					<path class="st9" d="M1798.6,956l6.7-29c-157.1,17.7-352.5,42-585.6,73c-280.5,37.3-551.9,75.8-713.1,99.1l6.4,27.4
						C787.3,1086.9,1376.3,1003.8,1798.6,956z"/>
					<path class="st9" d="M1787.8,1002.6l6.7-29.1c-155.2,17.6-347,41.5-574.8,71.8c-274.7,36.5-540.6,74.2-702.9,97.6l6.4,27.4
						C799.3,1130.7,1371.4,1050,1787.8,1002.6z"/>
					<path class="st9" d="M1776.9,1049.2l6.7-29.1c-153.3,17.5-341.4,41-564,70.6c-269,35.8-529.6,72.7-692.7,96.1l6.4,27.4
						C810.7,1174.4,1366.7,1096.2,1776.9,1049.2z"/>
					<path class="st9" d="M1766.1,1095.9l6.7-29.1c-151.3,17.3-335.8,40.5-553.2,69.4c-263.5,35-518.9,71.2-682.5,94.7l6.4,27.4
						C821.7,1218.3,1361.9,1142.4,1766.1,1095.9z"/>
					<path class="st9" d="M1755.3,1142.5l6.7-29.1c-149.2,17.2-330.2,39.9-542.3,68.1c-258.1,34.3-508.4,69.7-672.3,93.2l6.4,27.4
						C832.2,1262.2,1357.3,1188.6,1755.3,1142.5z"/>
					<path class="st9" d="M1744.5,1189.1l6.7-29.1c-147.1,17-324.4,39.3-531.5,66.9c-252.8,33.6-498.1,68.2-662.1,91.8l6.4,27.4
						C842.3,1306.2,1352.6,1234.7,1744.5,1189.1z"/>
				</g>
				<linearGradient id="SVGID_6_" gradientUnits="userSpaceOnUse" x1="1192.1711" y1="1159.7523" x2="1122.0366" y2="525.6203">
					<stop  offset="0" style="stop-color:#FFDE00"/>
					<stop  offset="0.9903" style="stop-color:#EDD3F7"/>
				</linearGradient>
				<path class="st10" d="M416.4,710l170.7,736L481.5,990.7c246.9-39,826.1-125.7,1347.8-167.2l-144.4,622.5l179.4-773.5
					C1381.5,656.3,628.3,697.5,416.4,710z"/>
				<path class="st0" d="M452.5,865.8l3.7,15.9c118.9-10.9,1075.1-97.9,1380.9-91.9l2.3-10.1C1532.8,772.3,553.8,857,452.5,865.8z"
					/>
				<path class="st0" d="M527,1225l51.8,231.3c11.7,52.5,56.8,89.6,108.8,89.6h354.6h181.5h354.6c52,0,97-37.2,108.8-89.6
					l51.8-231.3H527z"/>
				<g>
					<path class="st11" d="M1418.5,1409c0,0-0.1,0.1-0.1,0.1c-1.7,1.9-3.2,4-4.5,6.1c0,0,0,0,0,0c-0.7,1.2-1.4,2.4-2,3.7
						c-0.1,0.3-0.2,0.5-0.4,0.8c-0.2,0.3-0.3,0.7-0.5,1c-0.2,0.4-0.3,0.8-0.5,1.2c-0.1,0.2-0.2,0.4-0.2,0.6
						c-0.2,0.4-0.3,0.9-0.5,1.3c-0.1,0.2-0.1,0.4-0.2,0.6c-0.1,0.4-0.3,0.9-0.4,1.3c-0.1,0.2-0.1,0.4-0.2,0.6
						c-0.1,0.4-0.2,0.9-0.3,1.3c-0.1,0.2-0.1,0.5-0.2,0.7c-0.1,0.4-0.2,0.8-0.3,1.3c0,0.3-0.1,0.5-0.1,0.8c-0.1,0.4-0.1,0.8-0.2,1.2
						c0,0.3-0.1,0.6-0.1,0.9c0,0.4-0.1,0.7-0.1,1.1c0,0.4-0.1,0.8-0.1,1.2c0,0.3,0,0.6-0.1,0.9c0,0.7-0.1,1.4-0.1,2.1s0,1.4,0.1,2.1
						c0,0.3,0,0.6,0.1,0.9c0,0.4,0.1,0.8,0.1,1.2c0,0.4,0.1,0.7,0.1,1.1c0,0.3,0.1,0.6,0.1,0.9c0.1,0.4,0.1,0.8,0.2,1.2
						c0,0.3,0.1,0.5,0.1,0.8c0.1,0.4,0.2,0.9,0.3,1.3c0,0.2,0.1,0.4,0.2,0.7c0.1,0.4,0.2,0.9,0.3,1.3c0.1,0.2,0.1,0.4,0.2,0.6
						c0.1,0.4,0.3,0.9,0.4,1.3c0.1,0.2,0.1,0.4,0.2,0.6c0.2,0.4,0.3,0.9,0.5,1.3c0.1,0.2,0.2,0.4,0.2,0.6c0.2,0.4,0.3,0.8,0.5,1.3
						c0.1,0.3,0.3,0.6,0.4,0.9c0.1,0.3,0.3,0.6,0.4,0.9c0.3,0.6,0.6,1.2,0.9,1.8c0,0,0,0.1,0,0.1c0.3,0.6,0.7,1.2,1,1.7
						c0,0,0,0.1,0,0.1c0.3,0.6,0.7,1.1,1.1,1.7c0,0,0,0,0,0c0.4,0.6,0.8,1.1,1.2,1.7c0,0,0,0,0,0c0.7,0.9,1.4,1.8,2.1,2.7
						c0.1,0.1,0.1,0.2,0.2,0.2c8,9,19.6,14.6,32.5,14.6s24.5-5.7,32.5-14.6c0.1-0.1,0.2-0.1,0.2-0.2c0.8-0.9,1.5-1.8,2.1-2.7
						c0,0,0,0,0,0c0.4-0.5,0.8-1.1,1.2-1.7c0,0,0,0,0,0c0.4-0.6,0.7-1.1,1.1-1.7c0,0,0-0.1,0-0.1c0.3-0.6,0.7-1.2,1-1.7
						c0,0,0-0.1,0-0.1c0.3-0.6,0.6-1.2,0.9-1.8c0.1-0.3,0.3-0.6,0.4-0.9c0.1-0.3,0.3-0.6,0.4-0.9c0.2-0.4,0.3-0.8,0.5-1.3
						c0.1-0.2,0.2-0.4,0.2-0.6c0.2-0.4,0.3-0.9,0.5-1.3c0.1-0.2,0.1-0.4,0.2-0.6c0.1-0.4,0.3-0.9,0.4-1.3c0.1-0.2,0.1-0.4,0.2-0.6
						c0.1-0.4,0.2-0.9,0.3-1.3c0.1-0.2,0.1-0.4,0.2-0.7c0.1-0.4,0.2-0.8,0.3-1.3c0-0.3,0.1-0.5,0.1-0.8c0.1-0.4,0.1-0.8,0.2-1.2
						c0-0.3,0.1-0.6,0.1-0.9c0-0.4,0.1-0.7,0.1-1.1c0-0.4,0.1-0.8,0.1-1.2c0-0.3,0-0.6,0.1-0.9c0-0.7,0.1-1.4,0.1-2.1s0-1.4-0.1-2.1
						c0-0.3,0-0.6-0.1-0.9c0-0.4-0.1-0.8-0.1-1.2c0-0.4-0.1-0.7-0.1-1.1c0-0.3-0.1-0.6-0.1-0.9c-0.1-0.4-0.1-0.8-0.2-1.2
						c0-0.3-0.1-0.5-0.1-0.8c-0.1-0.4-0.2-0.8-0.3-1.3c-0.1-0.2-0.1-0.5-0.2-0.7c-0.1-0.4-0.2-0.9-0.3-1.3c-0.1-0.2-0.1-0.4-0.2-0.6
						c-0.1-0.4-0.3-0.9-0.4-1.3c-0.1-0.2-0.1-0.4-0.2-0.6c-0.1-0.4-0.3-0.9-0.5-1.3c-0.1-0.2-0.2-0.4-0.3-0.6
						c-0.2-0.4-0.3-0.8-0.5-1.2c-0.1-0.3-0.3-0.7-0.5-1c-0.1-0.3-0.2-0.5-0.4-0.8c-0.6-1.3-1.3-2.5-2-3.7c0,0,0,0,0,0
						c-1.3-2.2-2.8-4.2-4.5-6.1c0,0-0.1-0.1-0.1-0.1c-8-9-19.6-14.7-32.6-14.7C1438.1,1394.3,1426.5,1400,1418.5,1409z M1483.7,1418
						c0,0.1,0.1,0.2,0.1,0.2c0.2,0.4,0.5,0.8,0.7,1.2c0.1,0.2,0.2,0.3,0.3,0.5c0.2,0.3,0.4,0.7,0.5,1c0.1,0.2,0.2,0.4,0.3,0.6
						c0.2,0.3,0.3,0.6,0.4,1c0.2,0.4,0.3,0.8,0.5,1.1c0.1,0.3,0.2,0.6,0.4,0.9c0.1,0.3,0.2,0.6,0.3,0.9c0.1,0.2,0.1,0.4,0.2,0.6
						c0.1,0.3,0.2,0.6,0.3,1c0.1,0.2,0.1,0.4,0.2,0.6c0.1,0.3,0.2,0.7,0.3,1c0.1,0.2,0.1,0.4,0.1,0.6c0.1,0.5,0.2,1.1,0.3,1.6
						c0.1,0.3,0.1,0.6,0.2,0.9c0,0.3,0.1,0.5,0.1,0.8c0,0.3,0.1,0.6,0.1,1c0,0.2,0.1,0.5,0.1,0.8c0,0.4,0.1,0.7,0.1,1.1
						c0,0.2,0,0.4,0,0.6c0,0.6,0,1.2,0,1.8s0,1.2,0,1.8c0,0.2,0,0.4,0,0.6c0,0.4-0.1,0.7-0.1,1.1c0,0.3,0,0.5-0.1,0.8
						c0,0.3-0.1,0.6-0.1,1c0,0.3-0.1,0.5-0.1,0.8c0,0.3-0.1,0.6-0.2,0.9c-0.1,0.5-0.2,1.1-0.3,1.6c0,0.2-0.1,0.4-0.1,0.6
						c-0.1,0.3-0.2,0.7-0.3,1c-0.1,0.2-0.1,0.4-0.2,0.6c-0.1,0.3-0.2,0.7-0.3,1c-0.1,0.2-0.1,0.4-0.2,0.6c-0.1,0.3-0.2,0.6-0.3,0.9
						c-0.1,0.3-0.2,0.6-0.3,0.9c-0.2,0.4-0.3,0.8-0.5,1.2c-0.1,0.3-0.3,0.6-0.4,1c-0.1,0.2-0.2,0.4-0.3,0.6c-0.2,0.3-0.3,0.7-0.5,1
						c-0.1,0.2-0.2,0.3-0.3,0.5c-0.2,0.4-0.4,0.8-0.7,1.2c-0.1,0.1-0.1,0.2-0.2,0.3c-0.6,1-1.2,1.9-1.9,2.8
						c-1.9-2.6-3.5-5.5-4.7-8.5l0.9-0.4c1.3-0.6,1.9-2.2,1.3-3.6c-0.6-1.3-2.2-1.9-3.6-1.3l-0.2,0.1c-0.5-1.9-0.8-3.8-0.9-5.7h0.1
						c1.5,0,2.7-1.2,2.7-2.7c0-1.5-1.2-2.7-2.7-2.7h-0.2c0.1-2.3,0.5-4.6,1-6.8l0.2,0.1c0.4,0.2,0.8,0.3,1.1,0.3c1,0,2-0.6,2.4-1.6
						c0.6-1.3,0-2.9-1.3-3.6l-0.9-0.4c1.2-3,2.8-5.9,4.7-8.5C1482.4,1416.1,1483.1,1417,1483.7,1418z M1451.1,1399.7
						c10.6,0,20.2,4.3,27.1,11.4c-2.5,3.2-4.5,6.7-6,10.4l-0.9-0.4c-1.4-0.6-2.9,0-3.6,1.3c-0.6,1.3,0,3,1.3,3.6l1.5,0.7
						c-0.8,3-1.3,6.1-1.4,9.2h-1.7c-1.5,0-2.7,1.2-2.7,2.7c0,1.5,1.2,2.7,2.7,2.7h1.8c0.2,2.7,0.7,5.4,1.4,8l-1.5,0.7
						c-1.3,0.6-1.9,2.2-1.3,3.6c0.5,1,1.4,1.6,2.4,1.6c0.4,0,0.8-0.1,1.1-0.3l0.9-0.4c1.5,3.7,3.5,7.2,6,10.4
						c-6.9,7-16.5,11.4-27.1,11.4c-10.6,0-20.2-4.4-27.1-11.4c2.5-3.2,4.5-6.7,6-10.4l0.9,0.4c0.4,0.2,0.8,0.3,1.1,0.3
						c1,0,2-0.6,2.4-1.6c0.6-1.3,0-3-1.3-3.6l-1.5-0.7c0.7-2.6,1.2-5.3,1.4-8h1.1c1.5,0,2.7-1.2,2.7-2.7c0-1.5-1.2-2.7-2.7-2.7h-1.1
						c-0.2-3.1-0.6-6.2-1.4-9.2l1.5-0.7c1.3-0.6,1.9-2.2,1.3-3.6c-0.6-1.3-2.2-1.9-3.6-1.3l-0.9,0.4c-1.5-3.7-3.5-7.2-6-10.4
						C1430.9,1404,1440.5,1399.7,1451.1,1399.7z M1425.1,1423.7l-0.9,0.4c-1.3,0.6-1.9,2.2-1.3,3.6c0.5,1,1.4,1.6,2.4,1.6
						c0.4,0,0.8-0.1,1.1-0.3l0.2-0.1c0.5,2.2,0.9,4.5,1,6.8h-0.9c-1.5,0-2.7,1.2-2.7,2.7c0,1.5,1.2,2.7,2.7,2.7h0.8
						c-0.2,1.9-0.5,3.8-0.9,5.7l-0.2-0.1c-1.3-0.6-2.9,0-3.6,1.3c-0.6,1.3,0,3,1.3,3.6l0.9,0.4c-1.2,3-2.8,5.9-4.7,8.5
						c-0.7-0.9-1.3-1.8-1.9-2.8c-0.1-0.1-0.1-0.2-0.2-0.3c-0.2-0.4-0.5-0.8-0.7-1.2c-0.1-0.2-0.2-0.3-0.3-0.5
						c-0.2-0.3-0.3-0.7-0.5-1c-0.1-0.2-0.2-0.4-0.3-0.6c-0.1-0.3-0.3-0.6-0.4-1c-0.2-0.4-0.3-0.8-0.5-1.2c-0.1-0.3-0.2-0.6-0.3-0.8
						c-0.1-0.3-0.2-0.6-0.3-0.9c-0.1-0.2-0.1-0.4-0.2-0.6c-0.1-0.3-0.2-0.6-0.3-1c-0.1-0.2-0.1-0.4-0.2-0.6c-0.1-0.3-0.2-0.7-0.3-1
						c-0.1-0.2-0.1-0.4-0.1-0.6c-0.1-0.5-0.2-1.1-0.3-1.6c-0.1-0.3-0.1-0.6-0.2-0.9c0-0.3-0.1-0.5-0.1-0.8c0-0.3-0.1-0.6-0.1-1
						c0-0.2-0.1-0.5-0.1-0.8c0-0.4-0.1-0.7-0.1-1.1c0-0.2,0-0.4,0-0.6c0-0.6,0-1.2,0-1.8s0-1.2,0-1.8c0-0.2,0-0.4,0-0.6
						c0-0.4,0.1-0.7,0.1-1.1c0-0.3,0-0.5,0.1-0.8c0-0.3,0.1-0.6,0.1-1c0-0.3,0.1-0.5,0.1-0.8c0-0.3,0.1-0.6,0.2-0.9
						c0.1-0.5,0.2-1.1,0.3-1.6c0-0.2,0.1-0.4,0.1-0.6c0.1-0.3,0.2-0.7,0.3-1c0.1-0.2,0.1-0.4,0.2-0.6c0.1-0.3,0.2-0.7,0.3-1
						c0.1-0.2,0.1-0.4,0.2-0.6c0.1-0.3,0.2-0.6,0.3-0.9c0.1-0.3,0.2-0.6,0.3-0.9c0.2-0.4,0.3-0.8,0.5-1.2c0.1-0.3,0.3-0.6,0.4-1
						c0.1-0.2,0.2-0.4,0.3-0.6c0.2-0.3,0.3-0.7,0.5-1c0.1-0.2,0.2-0.3,0.3-0.5c0.2-0.4,0.5-0.8,0.7-1.2c0-0.1,0.1-0.2,0.1-0.2
						c0.6-1,1.2-1.9,1.9-2.8C1422.4,1417.8,1423.9,1420.7,1425.1,1423.7z"/>
					<path class="st11" d="M773.8,1409c0,0-0.1,0.1-0.1,0.1c-1.7,1.9-3.2,4-4.5,6.1c0,0,0,0,0,0c-0.7,1.2-1.4,2.4-2,3.7
						c-0.1,0.3-0.2,0.5-0.4,0.8c-0.2,0.3-0.3,0.7-0.5,1c-0.2,0.4-0.3,0.8-0.5,1.2c-0.1,0.2-0.2,0.4-0.2,0.6
						c-0.2,0.4-0.3,0.9-0.5,1.3c-0.1,0.2-0.1,0.4-0.2,0.6c-0.1,0.4-0.3,0.9-0.4,1.3c-0.1,0.2-0.1,0.4-0.2,0.6
						c-0.1,0.4-0.2,0.9-0.3,1.3c-0.1,0.2-0.1,0.5-0.2,0.7c-0.1,0.4-0.2,0.8-0.3,1.3c0,0.3-0.1,0.5-0.1,0.8c-0.1,0.4-0.1,0.8-0.2,1.2
						c0,0.3-0.1,0.6-0.1,0.9c0,0.4-0.1,0.7-0.1,1.1c0,0.4-0.1,0.8-0.1,1.2c0,0.3,0,0.6-0.1,0.9c0,0.7-0.1,1.4-0.1,2.1s0,1.4,0.1,2.1
						c0,0.3,0,0.6,0.1,0.9c0,0.4,0.1,0.8,0.1,1.2c0,0.4,0.1,0.7,0.1,1.1c0,0.3,0.1,0.6,0.1,0.9c0.1,0.4,0.1,0.8,0.2,1.2
						c0,0.3,0.1,0.5,0.1,0.8c0.1,0.4,0.2,0.9,0.3,1.3c0,0.2,0.1,0.4,0.2,0.7c0.1,0.4,0.2,0.9,0.3,1.3c0.1,0.2,0.1,0.4,0.2,0.6
						c0.1,0.4,0.3,0.9,0.4,1.3c0.1,0.2,0.1,0.4,0.2,0.6c0.2,0.4,0.3,0.9,0.5,1.3c0.1,0.2,0.2,0.4,0.2,0.6c0.2,0.4,0.3,0.8,0.5,1.3
						c0.1,0.3,0.3,0.6,0.4,0.9c0.1,0.3,0.3,0.6,0.4,0.9c0.3,0.6,0.6,1.2,0.9,1.8c0,0,0,0.1,0,0.1c0.3,0.6,0.7,1.2,1,1.7
						c0,0,0,0.1,0,0.1c0.3,0.6,0.7,1.1,1.1,1.7c0,0,0,0,0,0c0.4,0.6,0.8,1.1,1.2,1.7c0,0,0,0,0,0c0.7,0.9,1.4,1.8,2.1,2.7
						c0.1,0.1,0.1,0.2,0.2,0.2c8,9,19.6,14.6,32.5,14.6c12.9,0,24.5-5.7,32.5-14.6c0.1-0.1,0.2-0.1,0.2-0.2c0.8-0.9,1.5-1.8,2.1-2.7
						c0,0,0,0,0,0c0.4-0.5,0.8-1.1,1.2-1.7c0,0,0,0,0,0c0.4-0.6,0.7-1.1,1.1-1.7c0,0,0-0.1,0-0.1c0.3-0.6,0.7-1.2,1-1.7
						c0,0,0-0.1,0-0.1c0.3-0.6,0.6-1.2,0.9-1.8c0.1-0.3,0.3-0.6,0.4-0.9c0.1-0.3,0.3-0.6,0.4-0.9c0.2-0.4,0.3-0.8,0.5-1.3
						c0.1-0.2,0.2-0.4,0.2-0.6c0.2-0.4,0.3-0.9,0.5-1.3c0.1-0.2,0.1-0.4,0.2-0.6c0.1-0.4,0.3-0.9,0.4-1.3c0.1-0.2,0.1-0.4,0.2-0.6
						c0.1-0.4,0.2-0.9,0.3-1.3c0.1-0.2,0.1-0.4,0.2-0.7c0.1-0.4,0.2-0.8,0.3-1.3c0-0.3,0.1-0.5,0.1-0.8c0.1-0.4,0.1-0.8,0.2-1.2
						c0-0.3,0.1-0.6,0.1-0.9c0-0.4,0.1-0.7,0.1-1.1c0-0.4,0.1-0.8,0.1-1.2c0-0.3,0-0.6,0.1-0.9c0-0.7,0.1-1.4,0.1-2.1s0-1.4-0.1-2.1
						c0-0.3,0-0.6-0.1-0.9c0-0.4-0.1-0.8-0.1-1.2c0-0.4-0.1-0.7-0.1-1.1c0-0.3-0.1-0.6-0.1-0.9c-0.1-0.4-0.1-0.8-0.2-1.2
						c0-0.3-0.1-0.5-0.1-0.8c-0.1-0.4-0.2-0.8-0.3-1.3c-0.1-0.2-0.1-0.5-0.2-0.7c-0.1-0.4-0.2-0.9-0.3-1.3c-0.1-0.2-0.1-0.4-0.2-0.6
						c-0.1-0.4-0.3-0.9-0.4-1.3c-0.1-0.2-0.1-0.4-0.2-0.6c-0.1-0.4-0.3-0.9-0.5-1.3c-0.1-0.2-0.2-0.4-0.3-0.6
						c-0.2-0.4-0.3-0.8-0.5-1.2c-0.1-0.3-0.3-0.7-0.5-1c-0.1-0.3-0.2-0.5-0.4-0.8c-0.6-1.3-1.3-2.5-2-3.7c0,0,0,0,0,0
						c-1.3-2.2-2.8-4.2-4.5-6.1c0,0-0.1-0.1-0.1-0.1c-8-9-19.6-14.7-32.6-14.7C793.4,1394.3,781.8,1400,773.8,1409z M839,1418
						c0,0.1,0.1,0.2,0.1,0.2c0.2,0.4,0.5,0.8,0.7,1.2c0.1,0.2,0.2,0.3,0.3,0.5c0.2,0.3,0.4,0.7,0.5,1c0.1,0.2,0.2,0.4,0.3,0.6
						c0.2,0.3,0.3,0.6,0.4,1c0.2,0.4,0.3,0.8,0.5,1.1c0.1,0.3,0.2,0.6,0.4,0.9c0.1,0.3,0.2,0.6,0.3,0.9c0.1,0.2,0.1,0.4,0.2,0.6
						c0.1,0.3,0.2,0.6,0.3,1c0.1,0.2,0.1,0.4,0.2,0.6c0.1,0.3,0.2,0.7,0.3,1c0.1,0.2,0.1,0.4,0.1,0.6c0.1,0.5,0.2,1.1,0.3,1.6
						c0.1,0.3,0.1,0.6,0.2,0.9c0,0.3,0.1,0.5,0.1,0.8c0,0.3,0.1,0.6,0.1,1c0,0.2,0.1,0.5,0.1,0.8c0,0.4,0.1,0.7,0.1,1.1
						c0,0.2,0,0.4,0,0.6c0,0.6,0,1.2,0,1.8s0,1.2,0,1.8c0,0.2,0,0.4,0,0.6c0,0.4-0.1,0.7-0.1,1.1c0,0.3,0,0.5-0.1,0.8
						c0,0.3-0.1,0.6-0.1,1c0,0.3-0.1,0.5-0.1,0.8c0,0.3-0.1,0.6-0.2,0.9c-0.1,0.5-0.2,1.1-0.3,1.6c0,0.2-0.1,0.4-0.1,0.6
						c-0.1,0.3-0.2,0.7-0.3,1c-0.1,0.2-0.1,0.4-0.2,0.6c-0.1,0.3-0.2,0.7-0.3,1c-0.1,0.2-0.1,0.4-0.2,0.6c-0.1,0.3-0.2,0.6-0.3,0.9
						c-0.1,0.3-0.2,0.6-0.3,0.9c-0.2,0.4-0.3,0.8-0.5,1.2c-0.1,0.3-0.3,0.6-0.4,1c-0.1,0.2-0.2,0.4-0.3,0.6c-0.2,0.3-0.3,0.7-0.5,1
						c-0.1,0.2-0.2,0.3-0.3,0.5c-0.2,0.4-0.4,0.8-0.7,1.2c-0.1,0.1-0.1,0.2-0.2,0.3c-0.6,1-1.2,1.9-1.9,2.8
						c-1.9-2.6-3.5-5.5-4.7-8.5l0.9-0.4c1.3-0.6,1.9-2.2,1.3-3.6c-0.6-1.3-2.2-1.9-3.6-1.3l-0.2,0.1c-0.5-1.9-0.8-3.8-0.9-5.7h0.1
						c1.5,0,2.7-1.2,2.7-2.7c0-1.5-1.2-2.7-2.7-2.7h-0.2c0.1-2.3,0.5-4.6,1-6.8l0.2,0.1c0.4,0.2,0.8,0.3,1.1,0.3c1,0,2-0.6,2.4-1.6
						c0.6-1.3,0-2.9-1.3-3.6l-0.9-0.4c1.2-3,2.8-5.9,4.7-8.5C837.7,1416.1,838.4,1417,839,1418z M806.4,1399.7
						c10.6,0,20.2,4.3,27.1,11.4c-2.5,3.2-4.5,6.7-6,10.4l-0.9-0.4c-1.4-0.6-2.9,0-3.6,1.3c-0.6,1.3,0,3,1.3,3.6l1.5,0.7
						c-0.8,3-1.3,6.1-1.4,9.2h-1.7c-1.5,0-2.7,1.2-2.7,2.7c0,1.5,1.2,2.7,2.7,2.7h1.8c0.2,2.7,0.7,5.4,1.4,8l-1.5,0.7
						c-1.3,0.6-1.9,2.2-1.3,3.6c0.5,1,1.4,1.6,2.4,1.6c0.4,0,0.8-0.1,1.1-0.3l0.9-0.4c1.5,3.7,3.5,7.2,6,10.4
						c-6.9,7-16.5,11.4-27.1,11.4c-10.6,0-20.2-4.4-27.1-11.4c2.5-3.2,4.5-6.7,6-10.4l0.9,0.4c0.4,0.2,0.8,0.3,1.1,0.3
						c1,0,2-0.6,2.4-1.6c0.6-1.3,0-3-1.3-3.6l-1.5-0.7c0.7-2.6,1.2-5.3,1.4-8h1.1c1.5,0,2.7-1.2,2.7-2.7c0-1.5-1.2-2.7-2.7-2.7h-1.1
						c-0.2-3.1-0.6-6.2-1.4-9.2l1.5-0.7c1.3-0.6,1.9-2.2,1.3-3.6c-0.6-1.3-2.2-1.9-3.6-1.3l-0.9,0.4c-1.5-3.7-3.5-7.2-6-10.4
						C786.2,1404,795.8,1399.7,806.4,1399.7z M780.4,1423.7l-0.9,0.4c-1.3,0.6-1.9,2.2-1.3,3.6c0.5,1,1.4,1.6,2.4,1.6
						c0.4,0,0.8-0.1,1.1-0.3l0.2-0.1c0.5,2.2,0.9,4.5,1,6.8h-0.9c-1.5,0-2.7,1.2-2.7,2.7c0,1.5,1.2,2.7,2.7,2.7h0.8
						c-0.2,1.9-0.5,3.8-0.9,5.7l-0.2-0.1c-1.3-0.6-2.9,0-3.6,1.3c-0.6,1.3,0,3,1.3,3.6l0.9,0.4c-1.2,3-2.8,5.9-4.7,8.5
						c-0.7-0.9-1.3-1.8-1.9-2.8c-0.1-0.1-0.1-0.2-0.2-0.3c-0.2-0.4-0.5-0.8-0.7-1.2c-0.1-0.2-0.2-0.3-0.3-0.5
						c-0.2-0.3-0.3-0.7-0.5-1c-0.1-0.2-0.2-0.4-0.3-0.6c-0.1-0.3-0.3-0.6-0.4-1c-0.2-0.4-0.3-0.8-0.5-1.2c-0.1-0.3-0.2-0.6-0.3-0.8
						c-0.1-0.3-0.2-0.6-0.3-0.9c-0.1-0.2-0.1-0.4-0.2-0.6c-0.1-0.3-0.2-0.6-0.3-1c-0.1-0.2-0.1-0.4-0.2-0.6c-0.1-0.3-0.2-0.7-0.3-1
						c-0.1-0.2-0.1-0.4-0.1-0.6c-0.1-0.5-0.2-1.1-0.3-1.6c-0.1-0.3-0.1-0.6-0.2-0.9c0-0.3-0.1-0.5-0.1-0.8c0-0.3-0.1-0.6-0.1-1
						c0-0.2-0.1-0.5-0.1-0.8c0-0.4-0.1-0.7-0.1-1.1c0-0.2,0-0.4,0-0.6c0-0.6,0-1.2,0-1.8s0-1.2,0-1.8c0-0.2,0-0.4,0-0.6
						c0-0.4,0.1-0.7,0.1-1.1c0-0.3,0-0.5,0.1-0.8c0-0.3,0.1-0.6,0.1-1c0-0.3,0.1-0.5,0.1-0.8c0-0.3,0.1-0.6,0.2-0.9
						c0.1-0.5,0.2-1.1,0.3-1.6c0-0.2,0.1-0.4,0.1-0.6c0.1-0.3,0.2-0.7,0.3-1c0.1-0.2,0.1-0.4,0.2-0.6c0.1-0.3,0.2-0.7,0.3-1
						c0.1-0.2,0.1-0.4,0.2-0.6c0.1-0.3,0.2-0.6,0.3-0.9c0.1-0.3,0.2-0.6,0.3-0.9c0.2-0.4,0.3-0.8,0.5-1.2c0.1-0.3,0.3-0.6,0.4-1
						c0.1-0.2,0.2-0.4,0.3-0.6c0.2-0.3,0.3-0.7,0.5-1c0.1-0.2,0.2-0.3,0.3-0.5c0.2-0.4,0.5-0.8,0.7-1.2c0-0.1,0.1-0.2,0.1-0.2
						c0.6-1,1.2-1.9,1.9-2.8C777.7,1417.8,779.2,1420.7,780.4,1423.7z"/>
				</g>
				<path class="st0" d="M1870,614.5v-14.6l-14.6,11.8v14.6l-2.8,2.3v43.5c-2.9-0.1-5.8-0.2-8.7-0.3v-76.2h-5.5v-10.2l-17.1-23.7v34
					h-5.5v51.8h-9.9V622h-6.5v-29.2h-3.6v-7.4h-3v-15.3h-2.4v-10.3h-2v10.3h-2.4v15.3h-3v7.4h-3.6V622h-6.5v23h-5.5v-25h-3.1v-6.4
					h-10.9v6.4h-3.1v25h-5.5v13.1h-13.2V645h-22.7v-23h-22.7v36.2h-13.6v10.8c-1.5,0-3,0-4.4,0v-17h-2.5v-5.1h-8.8v5.1h-1.7v-11.1
					h-5.7v-25.7h-3.2v-6.5l-11.2-18.6v25.1h-3.2v25.7h-5v-16.5l-11.4,24.8v11.4l-2.2,1.8v6.5c-2.3,0-4.5,0-6.8,0v-32.3h-4.3v-8
					l-5.9,0.3v-8.3c2.7-0.4,4.8-2.7,4.8-5.5c0-3.1-2.5-5.6-5.6-5.6s-5.6,2.5-5.6,5.6c0,2.8,2.1,5.1,4.8,5.5v8.4l-5.9,0.3v7.3h-4.3
					v32.3c-2.6,0-5.2,0-7.8,0v-11.7h-5v-22.8h-2.8v-5.8h-2.4v-12h-1.8v-8h-1.5v8h-1.8v12h-2.4v5.8h-2.8v22.8h-5V669
					c-1.4,0-2.9,0-4.3,0v-13.4h-2.4v-5h-8.5v5h-2.4v13.5c-0.7,0-1.4,0-2.1,0v-2.4h-12.5v-10.3H1501v-18h-17.7v28.3h-10.7v3
					c-1.2,0-2.3,0-3.5,0v-7.9h-1.9v-4h-6.8v4h-1.3v-2.6h-4v-18h-2.2v-4.6l-7.9-13v17.6h-2.2v18h-4V659h-9.5v-25.3h-15.8v16.1h-15.8
					v9.2h-11v-17.3h-4.4v-19.8h-2.5v-5h-2.1v-10.4h-1.6v-7h-1.3v7h-1.6v10.4h-2.1v5h-2.5v19.8h-4.4v15.7h-3.8v-17h-2.1v-4.3h-7.4
					v4.3h-2.1v17h-1.8V650h-10.9v-8.9h-15.4v-15.7h-15.4V650h-9.3v1.9h-0.1v-3.8h-2.1v-7.8h-1.6v-5.2h-1.3v5.2h-1.6v7.8h-2.1v3.8
					h-2.5v14.8h-4.4v-12.1h-3.8v-17h-2.1v-4.3h-7.4v4.3h-2.1v17h-2.6v-28.8h-10.9v-11h-15.4v-19.2h-15.4v30.2h-9.3V675
					c-44,1.2-87.7,2.6-130.6,4v-53.2h-9.3v-30.2h-15.4v19.2h-15.4v11h-10.9v28.8h-2.6v-17h-2.1v-4.3h-7.4v4.3h-2.1v17h-3.8v12.1
					h-4.4v-14.8h-2.5v-3.8h-2.1v-7.8h-1.6v-5.2h-1.3v5.2h-1.6v7.8h-2.1v3.8h-0.1V650h-9.3v-24.6h-15.4v15.7h-15.4v8.9h-10.9v7.3
					h-1.8v-17h-2.1v-4.3h-7.4v4.3h-2.1v17h-3.8v-15.7H924v-19.8h-2.5v-5h-2.1v-10.4h-1.6v-7h-1.3v7h-1.6v10.4h-2.1v5h-2.5v19.8H906
					V659h-11v-9.2h-15.8v-16.1h-15.8V659h-9.5v0.1h-4v-18h-2.2v-17.6l-7.9,13v4.6h-2.2v18h-4v2.6h-1.3v-4h-6.8v4h-1.9v15.7h-3.5
					v-10.8h-10.7v-28.3h-17.7v18h-17.7v10.3h-12.5v8.4h-2.1v-19.5h-2.4v-5h-8.5v5h-2.4v19.5h-4.3v-18h-5v-22.8h-2.8v-5.8h-2.4v-12
					h-1.8v-8H728v8h-1.8v12h-2.4v5.8h-2.8v22.8h-5V677h-7.8v-40.5h-4.3v-7.3l-5.9-0.3v-8.4c2.7-0.4,4.8-2.7,4.8-5.5
					c0-3.1-2.5-5.6-5.6-5.6c-3.1,0-5.6,2.5-5.6,5.6c0,2.8,2.1,5.1,4.8,5.5v8.3l-5.9-0.3v8h-4.3v59c-2.3,0.1-4.5,0.2-6.8,0.3v-33.6
					l-2.2-1.8v-11.4l-11.4-24.8v16.5h-5v-25.7h-3.2v-25.1l-11.2,18.6v6.5h-3.2v25.7h-5.7v11.1h-1.7v-5.1h-8.8v5.1h-2.5V672H620
					v-13.8h-13.6V622h-22.7v23H561v13.1h-13.2V645h-5.5v-25h-3.1v-6.4h-10.9v6.4h-3.1v25h-5.5v-23h-6.5v-29.2h-3.6v-7.4h-3v-15.3
					h-2.4v-10.3h-2v10.3h-2.4v15.3h-3v7.4h-3.6V622h-6.5v25.5h-9.9v-51.8h-5.5v-34l-17.1,23.7v10.2h-5.5v43H440v-10.1l-2.8-2.3
					v-14.6l-14.6-11.8v14.6l-2.8-2.3v97.5c-1.2,0.1-2.3,0.1-3.5,0.2l3.5,14.9v21.3h4.9l17.1,73.8c226.3-22.5,941.7-87.8,1402.5-61.4
					l12.9-55.5h15.5v-90.7L1870,614.5z"/>
			</g>
			<g>
				<path class="st0" d="M481.5,990.7c114.2-20.2,228.7-38.1,343.4-55.2c57.3-8.5,114.7-16.7,172.1-24.7l43.1-5.9l43.1-5.8
					l86.2-11.3l86.3-10.8l43.2-5.2c14.4-1.7,28.8-3.5,43.2-5.1c57.6-6.7,115.2-13,172.9-18.7c57.7-5.7,115.5-10.8,173.3-15l43.4-2.8
					l21.7-1.1c7.2-0.4,14.5-0.8,21.7-1c29-1,58-1.9,87-0.8l-21.7,0.8c-3.6,0.1-7.2,0.4-10.8,0.6l-10.8,0.7l-10.8,0.7
					c-3.6,0.3-7.2,0.6-10.8,0.9l-21.6,1.8l-43.2,4l-43.2,4.5l-43.2,4.7l-43.1,5c-28.8,3.4-57.5,6.8-86.3,10.3
					c-14.4,1.7-28.8,3.5-43.1,5.3l-43.1,5.3l-86.2,10.8l-172.4,22l-344.8,44C711.7,963.1,596.7,977.5,481.5,990.7z"/>
			</g>
			<g>
				<g>
					<g>
						<rect x="484" y="427.3" class="st12" width="4.8" height="50.6"/>
					</g>
				</g>
				<g>
					<g>
						<rect x="461.1" y="450.2" class="st12" width="50.6" height="4.8"/>
					</g>
				</g>
			</g>
			<g>
				<g>
					<g>
						<rect x="715.1" y="517.8" class="st12" width="4.8" height="50.6"/>
					</g>
				</g>
				<g>
					<g>
						<rect x="692.2" y="540.7" class="st12" width="50.6" height="4.8"/>
					</g>
				</g>
			</g>
			<g>
				<g>
					<g>
						<rect x="1378.8" y="410" class="st12" width="4.8" height="50.6"/>
					</g>
				</g>
				<g>
					<g>
						<rect x="1355.9" y="432.9" class="st12" width="50.6" height="4.8"/>
					</g>
				</g>
			</g>
			<g>
				<g>
					<g>
						<rect x="1556.1" y="589.9" class="st12" width="2.6" height="27.7"/>
					</g>
				</g>
				<g>
					<g>
						<rect x="1543.5" y="602.4" class="st12" width="27.7" height="2.6"/>
					</g>
				</g>
			</g>
			<g>
				<g>
					<g>
						<rect x="1828" y="423.8" class="st12" width="2.6" height="27.7"/>
					</g>
				</g>
				<g>
					<g>
						<rect x="1815.5" y="436.4" class="st12" width="27.7" height="2.6"/>
					</g>
				</g>
			</g>
			<g>
				<g>
					<g>
						<rect x="880.1" y="420.1" class="st12" width="2.6" height="27.7"/>
					</g>
				</g>
				<g>
					<g>
						<rect x="867.6" y="432.6" class="st12" width="27.7" height="2.6"/>
					</g>
				</g>
			</g>
			<g>
				<g>
					<g>
						<rect x="1121.7" y="366.1" class="st12" width="2.6" height="27.7"/>
					</g>
				</g>
				<g>
					<g>
						<rect x="1109.2" y="378.6" class="st12" width="27.7" height="2.6"/>
					</g>
				</g>
			</g>
			<g>
				<path class="st13" d="M1678.2,1001.4c-103.5-75.4-367.5-90.6-367.5-90.6l-533.6,133.3c-10-9-31.1-15.2-55.5-15.2
					c-34.1,0-61.7,12.1-61.7,27c0,14.9,27.6,27,61.7,27c16.7,0,31.9-2.9,43-7.7l639.7,128.6
					C1404.3,1203.9,1728.8,1038.2,1678.2,1001.4z M1343.1,1132.7c-6.3-2.5-14.2-4-22.8-4c-19.8,0-36,7.8-36.8,17.7l-505.7-79.3
					c3.5-3.4,5.5-7.2,5.5-11.1c0-1.2-0.2-2.3-0.5-3.4l435.9-102.1c1.1,3.9,10,7,20.9,7c10.9,0,19.9-3.1,20.9-7
					c38.9,12.7,133.4,43.6,180.7,60.4c-5.6,3.2-8.9,7.4-8.9,12c0,6.9,7.6,12.9,18.9,16.1C1424.1,1063.1,1373.2,1107.3,1343.1,1132.7
					z"/>
				<linearGradient id="SVGID_7_" gradientUnits="userSpaceOnUse" x1="1331.1089" y1="926.123" x2="1777.0422" y2="607.269">
					<stop  offset="0" style="stop-color:#ED623B"/>
					<stop  offset="0.9903" style="stop-color:#EDD03B"/>
				</linearGradient>
				<path class="st14" d="M1678.2,1001.4c-103.5-75.4-367.5-90.6-367.5-90.6l-533.6,133.3c-10-9-31.1-15.2-55.5-15.2
					c-34.1,0-61.7,12.1-61.7,27c0,14.9,27.6,27,61.7,27c16.7,0,31.9-2.9,43-7.7l639.7,128.6
					C1404.3,1203.9,1728.8,1038.2,1678.2,1001.4z M1343.1,1132.7c-6.3-2.5-14.2-4-22.8-4c-19.8,0-36,7.8-36.8,17.7l-505.7-79.3
					c3.5-3.4,5.5-7.2,5.5-11.1c0-1.2-0.2-2.3-0.5-3.4l435.9-102.1c1.1,3.9,10,7,20.9,7c10.9,0,19.9-3.1,20.9-7
					c38.9,12.7,133.4,43.6,180.7,60.4c-5.6,3.2-8.9,7.4-8.9,12c0,6.9,7.6,12.9,18.9,16.1C1424.1,1063.1,1373.2,1107.3,1343.1,1132.7
					z"/>
				<ellipse class="st13" cx="1142.3" cy="1042.3" rx="44.5" ry="19.5"/>
			</g>
			<path class="st0" d="M444,936c58.6-8.2,117.4-15.6,176.1-23l88.1-10.7c29.4-3.6,58.8-6.9,88.2-10.3l44.1-5.1l44.1-4.9l88.3-9.6
				c29.4-3.2,58.9-6.1,88.3-9.1l88.4-8.8c58.9-5.6,117.9-11,176.9-16c29.5-2.4,59-4.8,88.5-7.1l44.3-3.3l44.3-3
				c59.1-3.9,118.2-7.1,177.4-9.1c29.6-0.9,59.2-1.5,88.8-1.3c7.4,0,14.8,0.2,22.2,0.3l11.1,0.3l5.6,0.2l5.5,0.3
				c14.8,0.7,29.6,1.8,44.2,4c-14.7-1.7-29.5-2.1-44.3-2.3l-5.5-0.1l-5.5,0l-11.1,0c-7.4,0.1-14.8,0.1-22.2,0.4
				c-29.6,0.7-59.1,2-88.6,3.7c-29.5,1.6-59,3.5-88.5,5.6c-29.5,2.1-59,4.3-88.5,6.7l-88.4,7.3c-29.5,2.5-58.9,5.1-88.4,7.8
				c-58.9,5.3-117.8,10.8-176.7,16.5c-58.9,5.6-117.8,11.4-176.7,17.3l-176.6,17.7C679.6,912.4,561.8,924.4,444,936z"/>
			<path class="st0" d="M444,902.9c29.5-3.2,58.9-6.3,88.4-9.4l88.4-9.1c59-5.9,118-11.6,177-17.3c29.5-2.8,59-5.6,88.5-8.3
				l88.5-7.9c59-5.2,118.1-10.3,177.2-15.1c59.1-4.8,118.2-9.3,177.3-13.5c59.1-4.2,118.2-8.3,177.4-11.6
				c59.2-3.3,118.4-6.2,177.6-7.9c29.6-0.8,59.3-1.3,88.9-1.1c7.4,0,14.8,0.2,22.2,0.3l11.1,0.3l5.6,0.2l5.6,0.2
				c14.8,0.6,29.6,1.6,44.3,3.6c-14.7-1.9-29.5-2.6-44.3-3l-5.6-0.2l-5.6-0.1l-11.1-0.2c-7.4,0-14.8-0.1-22.2-0.1
				c-29.6,0.1-59.2,0.9-88.8,2c-59.2,2.1-118.4,5.4-177.5,9c-118.3,7.4-236.5,16.3-354.6,26c-59.1,4.7-118.1,9.7-177.2,14.8
				l-177.1,15.6c-59,5.3-118,10.7-177,16.2C562,891.8,503,897.4,444,902.9z"/>
			<path class="st0" d="M444,882.8c29.5-3,58.9-6,88.4-8.8l88.4-8.5c59-5.5,118-10.9,177-16.2c59-5.3,118-10.2,177.1-15.1
				c59-4.9,118.1-9.6,177.2-14.1c59.1-4.4,118.2-8.6,177.3-12.5c59.1-3.9,118.2-7.6,177.4-10.6c59.2-3,118.4-5.6,177.6-7.1
				c29.6-0.7,59.2-1,88.9-0.8c7.4,0,14.8,0.2,22.2,0.4l11.1,0.3l5.6,0.2l5.5,0.3c14.8,0.7,29.6,1.6,44.3,3.7
				c-14.7-1.9-29.5-2.6-44.3-3.1l-5.5-0.2l-5.6-0.1l-11.1-0.2c-7.4,0-14.8-0.2-22.2-0.1c-29.6,0-59.2,0.7-88.8,1.7
				c-59.2,1.9-118.4,4.8-177.5,8.2l-88.7,5.4c-29.6,1.9-59.1,3.8-88.7,5.8c-59.1,4-118.2,8.4-177.2,12.9
				c-59.1,4.4-118.1,9-177.2,13.7l-177.1,14.6c-59,4.9-118.1,9.9-177.1,15.1C562,872.4,503,877.6,444,882.8z"/>
			<g>
				<path class="st0" d="M444,866.5c29.5-2.9,59-5.7,88.4-8.4l88.5-8.1c59-5.2,118-10.3,177-15.3c59-5,118.1-9.7,177.1-14.3
					c59-4.6,118.1-9,177.2-13.3c59.1-4.1,118.2-8.1,177.3-11.7c59.1-3.6,118.2-7.1,177.4-9.8c59.2-2.8,118.4-5.1,177.6-6.4
					c29.6-0.6,59.2-0.8,88.9-0.5c7.4,0,14.8,0.3,22.2,0.4l11.1,0.4l5.6,0.2l5.5,0.3c14.8,0.7,29.6,1.7,44.3,3.8
					c-14.7-1.9-29.5-2.6-44.3-3.2l-5.5-0.2l-5.5-0.1l-11.1-0.3c-7.4-0.1-14.8-0.2-22.2-0.2c-29.6-0.1-59.2,0.5-88.8,1.4
					c-59.2,1.6-118.3,4.3-177.5,7.5l-88.7,5c-29.6,1.7-59.1,3.5-88.7,5.4c-59.1,3.8-118.2,7.8-177.2,12.1
					c-59.1,4.1-118.1,8.4-177.2,12.9l-177.1,13.7c-59,4.6-118.1,9.4-177.1,14.2C562,856.7,503,861.7,444,866.5z"/>
			</g>
			<path class="st0" d="M444,850.3c29.4-2.7,58.8-5.3,88.2-7.9l88.3-7.6c58.9-4.9,117.7-9.7,176.6-14.3c58.9-4.7,117.8-9,176.7-13.3
				c58.9-4.3,117.8-8.4,176.8-12.3c58.9-3.8,117.9-7.4,176.9-10.8c59-3.3,117.9-6.5,177-9c59-2.5,118-4.6,177.1-5.6
				c29.5-0.4,59.1-0.6,88.6-0.1c7.4,0.1,14.8,0.3,22.1,0.5l11.1,0.4l5.5,0.2l5.5,0.3c14.7,0.8,29.5,1.8,44.1,3.8
				c-14.7-1.9-29.4-2.7-44.2-3.2l-5.5-0.2l-5.5-0.1l-11.1-0.3c-7.4-0.1-14.8-0.3-22.1-0.3c-29.5-0.2-59,0.3-88.6,1
				c-59,1.4-118,3.8-177,6.7l-88.5,4.5c-29.5,1.6-59,3.2-88.4,5c-58.9,3.5-117.9,7.2-176.8,11.2c-58.9,3.8-117.8,7.8-176.8,12
				l-176.7,12.8c-58.9,4.3-117.8,8.7-176.7,13.2L444,850.3z"/>
			<path class="st0" d="M444,833.7c29.4-2.7,58.8-5.2,88.2-7.7l88.3-7.4c58.9-4.7,117.7-9.3,176.6-13.7
				c58.9-4.5,117.8-8.5,176.7-12.5c58.9-4,117.8-7.8,176.8-11.3c58.9-3.4,117.9-6.7,176.9-9.5c29.5-1.4,59-2.8,88.5-4
				c29.5-1.3,59-2.4,88.5-3.3c59-1.8,118.1-3.2,177.1-3.3c29.5,0,59.1,0.3,88.6,1.4c29.5,1.1,59,2.6,88.3,6.7
				c-14.6-1.9-29.4-3-44.1-3.9l-11.1-0.6l-11.1-0.5c-7.4-0.3-14.7-0.5-22.1-0.7c-29.5-0.7-59-0.7-88.5-0.5c-59,0.5-118,2.2-177,4.4
				c-118,4.5-235.9,10.6-353.8,17.7c-58.9,3.4-117.9,7.1-176.8,11l-88.4,5.9l-88.4,6.1c-58.9,4.1-117.8,8.3-176.7,12.6
				C561.8,824.8,502.9,829.2,444,833.7z"/>
			<polygon class="st0" points="579.5,974.9 579.5,943.5 761.5,920.3 761.5,947.6 			"/>
			<g>
				<path class="st9" d="M492.6,1010.3c-2.8-2.5-5.6-4.9-8.3-7.3l1.9,8.3C488.3,1010.9,490.5,1010.6,492.6,1010.3z"/>
				<path class="st9" d="M642.6,1125c-7.1-4.7-14-9.4-20.7-14.1c-40.1,5.7-76.6,11-108.8,15.6l-2.6-11l8.5,36.7l-2.1-9.2
					C553.7,1137.7,596,1131.6,642.6,1125z"/>
				<path class="st9" d="M569.5,1072.9c-24,3.4-46.3,6.6-66.7,9.6l-6.4-27.4c13.3-1.9,27.5-4,42.4-6.1c-6.2-4.9-12.1-9.8-17.8-14.5
					c-9.9,1.4-19.3,2.8-28.4,4.1l14,60.5c24.9-3.6,52.4-7.5,82.1-11.8C582.1,1082.4,575.7,1077.7,569.5,1072.9z"/>
				<path class="st9" d="M764,1198.6c-8.3-4.5-16.4-9.1-24.4-13.6c-78.3,11-148.4,21-206.3,29.3l-6.4-27.4
					c49.7-7.2,108.5-15.6,173.8-24.8c-7.6-4.6-15.1-9.3-22.4-13.9c-58.2,8.2-110.6,15.7-155.2,22.2l12.7,54.6h42.3
					C632.8,1217.1,695.6,1208.2,764,1198.6z"/>
				<path class="st13" d="M492.6,1010.3c-2.1,0.3-4.3,0.6-6.4,0.9l6.4,27.4c9.1-1.3,18.6-2.7,28.4-4.1
					C510.8,1026.1,501.3,1018,492.6,1010.3z"/>
				<path class="st13" d="M502.8,1082.5c20.4-2.9,42.7-6.2,66.7-9.6c-10.8-8.2-21-16.2-30.7-23.9c-14.9,2.1-29.1,4.2-42.4,6.1
					L502.8,1082.5z"/>
				<path class="st13" d="M621.8,1110.9c-11.5-8-22.5-15.9-33.1-23.6c-29.7,4.3-57.2,8.2-82.1,11.8l3.8,16.4l2.6,11
					C545.2,1121.8,581.7,1116.6,621.8,1110.9z"/>
				<path class="st13" d="M642.6,1125c-46.5,6.6-88.8,12.7-125.8,18l2.1,9.2l4.2,18.2c44.6-6.4,97-13.9,155.2-22.2
					C666,1140.4,654.1,1132.7,642.6,1125z"/>
				<path class="st13" d="M533.4,1214.3c57.9-8.3,127.9-18.3,206.3-29.3c-13.3-7.6-26.3-15.2-38.8-22.8
					c-65.3,9.2-124.1,17.6-173.8,24.8L533.4,1214.3z"/>
				<path class="st13" d="M778,1225c9.4-1.3,18.9-2.6,28.4-4c-14.5-7.4-28.7-14.9-42.4-22.4c-68.4,9.6-131.2,18.5-185.9,26.4H778z"
					/>
			</g>
		</g>
		<path class="st15" d="M1915.8,360.8c-27.7-34.9-69.1-54.8-113.6-54.8H469.9c-44.5,0-85.9,20-113.6,54.8
			c-27.7,34.9-37.8,79.7-27.7,123.1l225,969.9c7.4,31.8,25.5,60.5,51.1,80.8c25.6,20.3,57.6,31.5,90.3,31.5h882.3
			c32.7,0,64.7-11.2,90.3-31.5c25.6-20.3,43.7-49,51.1-80.8l225-969.9C1953.6,440.5,1943.5,395.6,1915.8,360.8z M1909.9,476.1
			l-225,969.9c-11.6,50.1-56.3,85.6-107.8,85.6h-351.3h-179.8H694.9c-51.5,0-96.1-35.5-107.8-85.6l-225-969.9
			c-16.1-69.4,36.6-135.6,107.8-135.6h576.3h179.8h576.3C1873.3,340.4,1926,406.7,1909.9,476.1z"/>
	</g>
</g>
<g id="text">
	<text transform="matrix(1 0 0 1 728.9956 1366.4705)" class="st15 st16 st17 st18">BASEBALL PARK</text>
	<text transform="matrix(1 0 0 1 945.2994 1453.4784)" class="st15 st19 st20 st21">EST</text>
	<text transform="matrix(1 0 0 1 1174.3855 1453.4784)" class="st15 st19 st20 st21">1980</text>
</g>
</svg>
